<ttFont>
          <CharString index="0">
            80 474 rmoveto
            -285 188 -225 283 186 191 189 0 vhcurveto
            -5 54 -52 20 0 vvcurveto
            0 -113 -107 -138 -173 -198 141 271 -2 vhcurveto
            0 122 -4 159 261 143 11 14 7 vhcurveto
            0 9 24 61 vvcurveto
            216 -115 194 -240 -270 -243 -24 callgsubr
            172 150 rmoveto
            207 26 124 106 135 hhcurveto
            137 94 -162 -132 hvcurveto
            -9 -67 -139 -10 -232 hhcurveto
            return
          </CharString>
          <CharString index="1">
            rmoveto
            83 52 140 148 65 75 rrcurveto
            25 hlineto
            61 -77 116 -137 85 -61 42 16 14 12 17 40 -23 27 -222 275 -34 56 -47 10 -47 0 -47 -10 -21 -32 -216 -274 -58 -49 27 -48 11 -11 29 -12 rrcurveto
            endchar
          </CharString>
          <CharString index="2">
            126 706 rmoveto
            -412 280 -330 419 412 342 342 455 1 callgsubr
            321 -429 -409 -349 -351 -451 vhcurveto
            205 90 rmoveto
            370 191 214 310 297 245 -263 -448 -377 -200 -198 -285 -311 -247 264 438 vhcurveto
            return
          </CharString>
          <CharString index="3">
            160 -31 callsubr
            hintmask 1010001010000000
            193 308 rmoveto
            hintmask 1000101010000000
            -209 120 -135 215 -56 callsubr
            vhcurveto
            9 -2 12 -124 14 -14 273 10 callsubr
            -104 -12 -25 vhcurveto
            hintmask 0101001010000000
            -31 -7 17 28 hvcurveto
            822 vlineto
            -19 7 -283 -103 -6 -54 6 -12 142 -62 rlineto
            -593 vlineto
            hintmask 1000101010000000
            -19 -31 -130 -71 -89 hhcurveto
            -177 -47 103 135 hvcurveto
            667 vlineto
            -16 9 -243 -89 -9 -55 9 -11 99 -49 rlineto
            hintmask 0000010100000000
            return
          </CharString>
          <CharString index="4">
            rmoveto
            7 -9 rlineto
            498 hlineto
            12 80 -4 14 -211 34 rlineto
            769 254 vlineto
            18 26 5 30 27 vvcurveto
            20 -5 18 callsubr
            -171 -10 -101 vhcurveto
            201 vlineto
            221 69 92 65 139 76 -68 0 vhcurveto
            71 54 3 97 0 vvcurveto
            0 -77 34 -86 -274 -146 -213 -262 vhcurveto
            -148 vlineto
            -148 -42 rlineto
            0 -14 -15 -28 vvcurveto
            -9 2 -9 2 -13 vhcurveto
            158 -769 hlineto
            -132 -43 rlineto
            return
          </CharString>
          <CharString index="5">
            -78 callsubr
            104 -26 56 -38 36 -66 18 -61 -112 -106 -127 -104 -94 19 -50 26 -19 40 -7 rrcurveto
            endchar
          </CharString>
          <CharString index="6">
            78 681 rmoveto
            -396 304 -321 417 412 183 187 0 vhcurveto
            419 vlineto
            47 30 rlineto
            81 -544 -92 vlineto
            309 -31 rlineto
            -346 vlineto
            -58 -69 -126 -60 -180 hhcurveto
            -254 -294 236 417 410 233 214 237 203 204 -60 -51 36 hvcurveto
            13 -51 0 -114 0 vvcurveto
            0 34 -19 47 7 vhcurveto
            72 304 -22 14 -191 108 -313 -1 rlinecurve
            -443 -1 -315 -345 -481 vvcurveto
            return
          </CharString>
          <CharString index="7">
            87 40 rmoveto
            0 99 -76 214 209 168 116 179 vhcurveto
            350 -505 -60 256 vvcurveto
            76 52 63 78 104 87 -45 -54 70 vhcurveto
            69 67 12 91 0 vvcurveto
            0 -106 45 -160 -198 -158 -125 -170 vhcurveto
            -360 505 78 -259 vvcurveto
            -102 -86 -42 -92 -103 -110 62 63 -76 vhcurveto
            -19 callsubr
            return
          </CharString>
          <CharString index="8">
            -88 callgsubr
            105 -26 56 -38 35 -66 19 -61 -114 -106 -126 -103 -94 18 -50 26 -18 40 -8 rrcurveto
            endchar
          </CharString>
          <CharString index="9">
            -45 callgsubr
            -4 -53 callgsubr
            892 vlineto
            -17 9 -282 -115 -11 -54 11 -12 139 -59 rlineto
            -661 vlineto
            -132 -43 rlineto
            return
          </CharString>
          <CharString index="10">
            390 -23 rmoveto
            85 9 7 19 7 13 272 708 rcurveline
            273 -749 rlineto
            88 14 41 0 hvcurveto
            322 874 97 29 13 82 -4 10 rlineto
            -370 hlineto
            -11 -80 7 -12 143 -26 -226 -700 -261 808 rlineto
            0 -61 0 -47 -44 vhcurveto
            -270 -770 -206 703 110 38 10 73 -8 10 rlineto
            -391 hlineto
            -11 -80 7 -12 85 -29 rlineto
            return
          </CharString>
          <CharString index="11">
            102 474 rmoveto
            -285 180 -225 310 160 197 189 0 52 -56 22 -15 callgsubr
            -94 -107 -164 -166 -200 143 274 216 127 182 151 157 125 -115 0 vhcurveto
            80 65 7 95 0 vvcurveto
            0 -83 68 -180 -302 -249 -24 callgsubr
            return
          </CharString>
          <CharString index="12">
            rmoveto
            158 113 148 128 24 hvcurveto
            0 -22 30 -54 -3 vhcurveto
            -119 -36 -70 -59 -113 hhcurveto
            -111 -75 75 103 -29 hvcurveto
            0 -47 7 -34 -30 vhcurveto
            -146 32 85 -134 179 hhcurveto
            endchar
          </CharString>
          <CharString index="13">
            rmoveto
            67 31 callgsubr
            -70 52 -57 -12 callgsubr
            67 -54 54 hvcurveto
            -420 hmoveto
            68 31 callgsubr
            -71 52 -56 -12 callgsubr
            66 -54 54 hvcurveto
            endchar
          </CharString>
          <CharString index="14">
            574 -36 144 -144 156 410 94 299 125 -111 111 hstemhm
            125 179 408 164 521 181 hintmask 00000000
            hintmask 01101111
            125 285 rmoveto
            -153 106 -168 228 123 171 180 38 36 vhcurveto
            -128 81 136 -90 174 hhcurveto
            186 191 189 0 hvcurveto
            -4 54 -52 20 0 vvcurveto
            hintmask 01110111
            0 -114 -107 -138 -172 -198 141 271 -3 vhcurveto
            -2 104 94 0 83 hhcurveto
            261 144 9 14 7 hvcurveto
            0 9 24 61 vvcurveto
            216 -115 194 -240 -144 -135 -68 -111 -96 vhcurveto
            120 -39 -97 59 -163 hhcurveto
            -153 -196 -102 0 -65 40 -21 0 hvcurveto
            0 160 63 108 144 60 -101 -168 vhcurveto
            -86 vlineto
            -13 -2 -119 -15 -189 -28 rrcurveto
            hintmask 01101111
            -198 -31 -68 -58 -149 vvcurveto
            756 339 rmoveto
            203 26 125 110 134 hhcurveto
            137 94 -162 -132 hvcurveto
            -7 -66 -135 -12 -237 hhcurveto
            -655 -330 rmoveto
            85 38 33 87 17 vhcurveto
            14 94 172 4 17 hhcurveto
            -9 0 -108 39 -87 vhcurveto
            hintmask 10101111
            -57 -63 -127 -78 -78 hhcurveto
            -106 -73 99 87 hvcurveto
            return
          </CharString>
          <CharString index="15">
            208 268 rmoveto
            -167 78 -137 191 120 172 130 0 0 0 47 -40 23 vhcurveto
            0 -110 -47 -119 -79 -50 72 87 vhcurveto
            621 326 vlineto
            22 26 2 30 27 vvcurveto
            20 -2 18 callsubr
            -247 -10 -101 vhcurveto
            287 -68 vlineto
            -73 -270 -146 -51 rlineto
            0 -15 -15 -28 vvcurveto
            -9 2 -9 6 -13 vhcurveto
            131 hlineto
            return
          </CharString>
          <CharString index="16">
            rmoveto
            40 8 26 18 19 50 -103 94 -107 126 -61 114 -66 -19 -38 -35 -25 -56 68 -105 117 -115 130 -80 rrcurveto
            endchar
          </CharString>
          <CharString index="17">
            100 hmoveto
            1145 hlineto
            -33 328 rlineto
            -45 7 -38 -12 0 vvcurveto
            -58 -210 rlineto
            -728 hlineto
            914 1289 rlineto
            14 45 -21 45 0 vvcurveto
            -1117 hlineto
            34 -328 rlineto
            43 -7 38 12 0 vvcurveto
            59 210 rlineto
            700 hlineto
            -935 -1294 rlineto
            5 -59 23 -26 0 vvcurveto
            return
          </CharString>
          <CharString index="18">
            111 hmoveto
            827 hlineto
            -33 304 rlineto
            -45 6 -25 -11 0 vvcurveto
            -64 -205 rlineto
            -451 hlineto
            625 841 rlineto
            52 -18 26 0 vhcurveto
            -785 hlineto
            32 -305 rlineto
            45 -7 27 13 0 vvcurveto
            65 205 rlineto
            405 hlineto
            -619 -836 rlineto
            -7 -45 21 -38 0 vvcurveto
            return
          </CharString>
          <CharString index="19">
            226 23 17 68 -15 19 -257 73 -16 367 -209 127 rlinecurve
            190 43 154 123 230 vvcurveto
            300 -170 142 -309 vhcurveto
            -579 -89 callgsubr
            139 -79 callsubr
            -141 -43 rlineto
            return
          </CharString>
          <CharString index="20">
            9 rlineto
            -476 -89 callgsubr
            return
          </CharString>
          <CharString index="21">
            -217 43 rlineto
            1242 187 vlineto
            151 23 -33 -177 58 hvcurveto
            0 52 0 34 17 vhcurveto
            -41 315 rlineto
            -1120 hlineto
            -38 -315 rlineto
            29 -17 57 0 0 vvcurveto
            177 58 24 33 151 hhcurveto
            186 -1242 hlineto
            return
          </CharString>
          <CharString index="22">
            201 hintmask 00000000
            hintmask 01110101
            -78 callgsubr
            hintmask 10110101
            -88 callsubr
            hintmask 01110101
            -72 callsubr
            hintmask 00001010
            return
          </CharString>
          <CharString index="23">
            rmoveto
            112 104 94 137 45 115 -36 51 -45 27 -68 4 -38 -123 -78 -146 -81 -112 rrcurveto
            0 32 -66 63 9 vhcurveto
            319 10 rmoveto
            121 92 110 125 56 108 -29 56 -42 31 -66 12 -52 -119 -94 -135 -94 -101 rrcurveto
            0 26 -72 64 3 vhcurveto
            endchar
          </CharString>
          <CharString index="24">
            70 9 rmoveto
            6 -9 rlineto
            423 hlineto
            14 80 27 callgsubr
            223 385 rlineto
            436 -385 hlineto
            -30 callgsubr
            -9 -76 6 callgsubr
            -84 -243 rlineto
            -584 585 447 hlineto
            50 -141 rlineto
            40 -7 38 7 0 vvcurveto
            402 vlineto
            0 -45 8 -33 -8 vhcurveto
            -50 -142 rlineto
            -447 554 560 hlineto
            59 -182 rlineto
            0 37 -12 45 7 vhcurveto
            34 304 rlineto
            -1056 hlineto
            -14 -85 7 -14 71 -17 -728 -1248 -153 -43 rlineto
            582 546 rmoveto
            367 633 rlineto
            -633 vlineto
            return
          </CharString>
          <CharString index="25">
            0 -104 -112 -76 vhcurveto
            -77 -54 92 -92 hhcurveto
            -103 -153 -182 0 hvcurveto
            2 -23 42 -40 24 -13 rrcurveto
            endchar
          </CharString>
          <CharString index="26">
            -135 -169 vvcurveto
            -108 65 -76 102 143 115 121 0 44 -42 17 -2 vhcurveto
            -3 -89 -54 -44 hhcurveto
            -50 -33 25 54 return
          </CharString>
          <CharString index="27">
            0 98 110 80 vhcurveto
            69 65 -92 90 hhcurveto
            104 153 184 0 hvcurveto
            -3 23 -35 36 -30 17 rrcurveto
            return
          </CharString>
          <CharString index="28">
            -34 rlineto
            -1236 vlineto
            return
          </CharString>
          <CharString index="29">
            rmoveto
            -88 callgsubr
            return
          </CharString>
          <CharString index="30">
            -5 -87 callsubr
            return
          </CharString>
          <CharString index="31">
            rmoveto
            447 hlineto
            12 23 15 38 -13 57 rrcurveto
            -447 hlineto
            -14 -21 -14 -56 14 -41 rrcurveto
            endchar
          </CharString>
          <CharString index="32">
            76 -85 -3 120 vvcurveto
            74 103 115 5 vhcurveto
            0 2 40 -46 11 vhcurveto
            0 -224 -141 -274 vvcurveto
            -63 61 -77 67 54 63 70 52 vhcurveto
            return
          </CharString>
          <CharString index="33">
            43 9 -67 callgsubr
            return
          </CharString>
          <CharString index="34">
            rmoveto
            113 108 92 133 117 -87 83 -118 -115 -111 -95 -121 -119 92 -90 118 hvcurveto
            14 90 rmoveto
            -49 -57 54 83 78 35 30 60 43 56 -52 -85 -79 -36 -29 -52 hvcurveto
            endchar
          </CharString>
          <CharString index="35">
            330 681 rmoveto
            589 vlineto
            0 96 20 104 216 120 -132 -183 -231 -156 -71 -223 -76 -49 3 5 -32 vhcurveto
            return
          </CharString>
          <CharString index="36">
            168 59 rmoveto
            0 191 -95 195 311 211 -43 callsubr
            -113 -110 -66 -59 -79 vhcurveto
            704 vlineto
            -16 9 -303 -112 -7 -54 7 -14 160 -40 rlineto
            159 -1209 rmoveto
            627 vlineto
            28 -26 callgsubr
            return
          </CharString>
          <CharString index="37">
            105 474 rmoveto
            -285 182 -225 308 85 115 76 63 78 vhcurveto
            16 -112 15 -14 268 10 callsubr
            -101 -12 -25 -31 -7 17 28 vhcurveto
            1427 vlineto
            return
          </CharString>
          <CharString index="38">
            126 -76 callgsubr
            447 hlineto
            15 80 -8 -53 callgsubr
            return
          </CharString>
          <CharString index="39">
            0 -68 callgsubr
            return
          </CharString>
          <CharString index="40">
            -36 callgsubr
            hintmask 10100000
            353 hmoveto
            -96 callgsubr
            endchar
          </CharString>
          <CharString index="41">
            rmoveto
            -216 -112 -148 -95 -41 vhcurveto
            0 3 -56 30 -29 vhcurveto
            134 66 200 134 321 vvcurveto
            return
          </CharString>
          <CharString index="42">
            406 0 9 524 118 877 -20 return
          </CharString>
          <CharString index="43">
            -36 130 1270 128 -85 85 return
          </CharString>
          <CharString index="44">
            rmoveto
            5 -9 rlineto
            return
          </CharString>
          <CharString index="45">
            -216 34 rlineto
            536 422 vlineto
            50 -133 rlineto
            41 -13 36 13 0 vvcurveto
            389 vlineto
            0 -38 7 -39 -7 vhcurveto
            -45 -137 rlineto
            -427 592 580 hlineto
            58 -182 rlineto
            0 38 -12 45 7 vhcurveto
            34 304 rlineto
            -1076 -89 callgsubr
            139 -79 callsubr
            return
          </CharString>
          <CharString index="46">
            576 -36 130 1286 128 return
          </CharString>
          <CharString index="47">
            -312 193 -200 361 vhcurveto
            return
          </CharString>
          <CharString index="48">
            rmoveto
            56 31 11 54 0 vvcurveto
            -339 332 332 320 rlineto
            -9 71 -64 14 0 vvcurveto
            -430 -367 rlineto
            0 -22 -28 5 -43 vhcurveto
            return
          </CharString>
          <CharString index="49">
            117 115 return
          </CharString>
          <CharString index="50">
            125 82 -125 141 hhcurveto
            193 117 169 0 hvcurveto
            -4 23 -14 34 -42 16 rrcurveto
            0 -97 -123 -122 vhcurveto
            return
          </CharString>
          <CharString index="51">
            101 171 128 25 34 return
          </CharString>
          <CharString index="52">
            -16 9 -301 -112 -11 -54 11 -14 rlineto
            return
          </CharString>
          <CharString index="53">
            66 -36 112 861 111 return
          </CharString>
          <CharString index="54">
            11 callgsubr
            1124 vlineto
            1043 -1288 rlineto
            return
          </CharString>
          <CharString index="55">
            363 -76 callgsubr
            616 hlineto
            15 72 -7 13 rlineto
            return
          </CharString>
          <CharString index="56">
            -115 -5 vhcurveto
            0 -2 -40 return
          </CharString>
          <CharString index="57">
            -104 -36 144 815 125 return
          </CharString>
          <CharString index="58">
            67 -68 callsubr
            1229 135 -85 85 return
          </CharString>
          <CharString index="59">
            -43 -39 callsubr
            return
          </CharString>
          <CharString index="60">
            -16 9 -310 -112 -11 -54 11 -14 167 -40 rlineto
            -411 vlineto
            22 -56 -85 21 -89 hhcurveto
            return
          </CharString>
          <CharString index="61">
            -447 0 9 1011 -6 callsubr
            return
          </CharString>
          <CharString index="62">
            vlineto
            -30 callgsubr
            rlineto
            return
          </CharString>
          <CharString index="63">
            141 -146 -264 -242 -132 -167 return
          </CharString>
          <CharString index="64">
            267 318 287 -176 212 -271 return
          </CharString>
          <CharString index="65">
            0 callsubr
            140 -61 rlineto
            -668 vlineto
            -133 -43 rlineto
            return
          </CharString>
          <CharString index="66">
            -30 callsubr
            rlineto
            return
          </CharString>
          <CharString index="67">
            94 -49 -92 57 -133 hhcurveto
            -157 -219 -151 0 hvcurveto
            -13 callsubr
            return
          </CharString>
          <CharString index="68">
            -9 -76 -23 callsubr
            return
          </CharString>
          <CharString index="69">
            -479 506 118 hstem
            88 472 vstem
            94 506 rmoveto
            448 hlineto
            11 24 15 38 -13 56 rrcurveto
            -447 -8 callgsubr
            -40 rrcurveto
            endchar
          </CharString>
          <CharString index="70">
            -18 66 78 -18 82 hhcurveto
            311 212 -43 callsubr
            -122 -121 -75 -61 -78 hvcurveto
            108 vlineto
            -16 9 rlineto
            return
          </CharString>
          <CharString index="71">
            -4 callsubr
            -13 -81 6 -13 140 -34 rlineto
            return
          </CharString>
          <CharString index="72">
            vlineto
            -130 -43 rlineto
            return
          </CharString>
          <CharString index="73">
            -40 rlineto
            -1288 -35 callsubr
            return
          </CharString>
          <CharString index="74">
            -23 callsubr
            448 hlineto
            15 80 -7 14 return
          </CharString>
          <CharString index="75">
            157 -34 callsubr
            return
          </CharString>
          <CharString index="76">
            hintmask 0000000000000000
            return
          </CharString>
          <CharString index="77">
            -160 34 return
          </CharString>
          <CharString index="78">
            -2 callgsubr
            231 189 return
          </CharString>
          <CharString index="79">
            -16 9 -302 -112 -9 -54 9 return
          </CharString>
          <CharString index="80">
            43 10 -67 callgsubr
            return
          </CharString>
          <CharString index="81">
            -21 23 11 630 117 617 117 return
          </CharString>
          <CharString index="82">
            127 134 82 return
          </CharString>
          <CharString index="83">
            hstemhm
            179 189 return
          </CharString>
          <CharString index="84">
            4 -9 rlineto
            return
          </CharString>
          <CharString index="85">
            vvcurveto
            -99 65 -76 102 143 117 121 0 44 -43 17 -2 vhcurveto
            -3 -89 -54 -45 hhcurveto
            -50 -33 25 54 return
          </CharString>
          <CharString index="86">
            -36 156 -122 -21 960 111 return
          </CharString>
          <CharString index="87">
            1085 -2 -21 1430 85 return
          </CharString>
          <CharString index="88">
            -71 -65 -2 -88 0 vvcurveto
            return
          </CharString>
          <CharString index="89">
            hstemhm
            240 189 return
          </CharString>
          <CharString index="90">
            132 409 hstemhm
            return
          </CharString>
          <CharString index="91">
            hstemhm
            -23 callgsubr
            return
          </CharString>
          <CharString index="92">
            532 rmoveto
            872 hlineto
            11 41 0 13 -11 41 rrcurveto
            -872 hlineto
            -32 callgsubr
          </CharString>
          <CharString index="93">
            -146 34 rlineto
            return
          </CharString>
          <CharString index="94">
            123 vlineto
            -17 9 -263 -106 -10 -54 10 -12 -60 callgsubr
            return
          </CharString>
          <CharString index="95">
            -52 -66 -56 -61 65 return
          </CharString>
          <CharString index="96">
            -9 34 69 -34 564 -27 5 -36 -14 -16 -7 rlinecurve
            -35 -556 31 -57 -380 5 rlineto
            return
          </CharString>
          <CharString index="97">
            -276 0 9 872 167 30 callgsubr
            return
          </CharString>
          <CharString index="98">
            -275 -36 104 876 104 return
          </CharString>
          <CharString index="99">
            -530 88 256 80 return
          </CharString>
          <CharString index="100">
            -110 -181 return
          </CharString>
          <CharString index="101">
            -20 29 -20 return
          </CharString>
          <CharString index="102">
            rmoveto
            -61 66 -54 54 68 57 68 56 61 -71 52 -57 -47 callgsubr
            vhcurveto
            endchar
          </CharString>
          <CharString index="103">
            151 -74 callsubr
            -476 hlineto
            return
          </CharString>
          <CharString index="104">
            -35 callgsubr
            20 -20 hstemhm
            return
          </CharString>
          <CharString index="105">
            -513 -21 534 return
          </CharString>
          <CharString index="106">
            150 189 -20 return
          </CharString>
          <CharString index="107">
            -9 -54 9 -12 return
          </CharString>
          <CharString index="108">
            -125 1761 -1672 85 573 92 44 85 573 92 hstemhm
            return
          </CharString>
          <CharString index="109">
            555 hstem
            230 160 vstem
            145 return
          </CharString>
          <CharString index="110">
            -1 callsubr
            hstemhm
            return
          </CharString>
          <CharString index="111">
            9 1351 132 -125 125 -87 87 hstemhm
            233 189 return
          </CharString>
          <CharString index="112">
            151 42 9 81 -5 9 rlineto
            -476 hlineto
            -14 -85 7 -14 rlineto
            return
          </CharString>
          <CharString index="113">
            923 0 117 396 118 71 119 554 117 return
          </CharString>
          <CharString index="114">
            rmoveto
            -61 65 -54 54 69 57 68 56 61 -72 52 -56 -65 -52 return
          </CharString>
          <CharString index="115">
            9 883 121 -83 83 511 -20 hstemhm
            255 160 return
          </CharString>
          <CharString index="116">
            -276 -36 153 780 118 return
          </CharString>
          <CharString index="117">
            93 24 83 -12 14 rlineto
            0 return
          </CharString>
          <CharString index="118">
            118 504 117 return
          </CharString>
          <CharString index="119">
            -27 callgsubr
            hstemhm
            271 160 return
          </CharString>
          <CharString index="120">
            -79 callgsubr
            hstemhm
            return
          </CharString>
          <CharString index="121">
            -35 26 -74 21 -14 14 3 12 2 rlinecurve
            9 198 return
          </CharString>
          <CharString index="122">
            hlineto
            11 40 0 14 -11 40 rrcurveto
            return
          </CharString>
          <CharString index="123">
            361 158 hstemhm
            return
          </CharString>
          <CharString index="124">
            hstemhm
            271 160 return
          </CharString>
          <CharString index="125">
            15 -15 callgsubr
            return
          </CharString>
          <CharString index="126">
            rlineto
            0 -14 -16 -6 -26 vhcurveto
            -10 2 -12 -9 vvcurveto
            return
          </CharString>
          <CharString index="127">
            -576 1609 410 hstem
            76 400 vstem
            return
          </CharString>
          <CharString index="128">
            -273 -162 1769 hstem
            84 688 vstem
            return
          </CharString>
          <CharString index="129">
            -35 callgsubr
            hstemhm
            return
          </CharString>
          <CharString index="130">
            -105 0 94 825 94 return
          </CharString>
          <CharString index="131">
            0 117 126 97 vhcurveto
            return
          </CharString>
          <CharString index="132">
            117 -16 callgsubr
            return
          </CharString>
          <CharString index="133">
            405 hlineto
            14 80 return
          </CharString>
          <CharString index="134">
            9 888 151 return
          </CharString>
          <CharString index="135">
            hstemhm
            78 205 return
          </CharString>
          <CharString index="136">
            187 hintmask 00000000
            return
          </CharString>
          <CharString index="137">
            166 165 return
          </CharString>
          <CharString index="138">
            hstemhm
            88 178 return
          </CharString>
        <CharString name=".notdef">
          -597 endchar
        </CharString>
        <CharString name=".null">
          -11 callgsubr
        </CharString>
        <CharString name="A">
          -65 callsubr
          hstem
          24 1499 vstem
          24 9 rmoveto
          6 -9 rlineto
          418 hlineto
          14 80 27 callgsubr
          136 405 rlineto
          566 hlineto
          143 -405 -129 -48 callsubr
          479 -77 callgsubr
          -30 callsubr
          -499 1400 rlineto
          0 -128 -18 -56 -30 vhcurveto
          -486 -1352 -153 -43 rlineto
          462 566 rmoveto
          235 666 248 -666 rlineto
          endchar
        </CharString>
        <CharString name="AE">
          6 callsubr
          -83 83 hstem
          1029 189 447 128 93 82 vstem
          -83 callsubr
          endchar
        </CharString>
        <CharString name="AEacute">
          6 callsubr
          -38 callgsubr
          991 400 -362 189 447 128 93 82 hintmask 1111101110000000
          -83 callsubr
          46 978 rmoveto
          hintmask 1111110110000000
          -99 callsubr
        </CharString>
        <CharString name="Aacute">
          -65 callsubr
          101 410 -17 callgsubr
          -956 400 hintmask 11101000
          24 9 rmoveto
          6 -9 rlineto
          418 hlineto
          14 80 27 callgsubr
          136 405 rlineto
          566 hlineto
          143 -405 -129 -48 callsubr
          479 -77 callgsubr
          -30 callsubr
          -499 1400 rlineto
          0 -128 -18 -56 -30 vhcurveto
          -486 -1352 -153 -43 rlineto
          462 566 rmoveto
          235 666 248 -666 rlineto
          hintmask 00010100
          -328 958 rmoveto
          -99 callsubr
        </CharString>
        <CharString name="Abreve">
          -65 callsubr
          162 125 -17 callgsubr
          -1051 591 hintmask 11101000
          24 9 rmoveto
          6 -9 rlineto
          418 hlineto
          14 80 27 callgsubr
          136 405 rlineto
          566 hlineto
          143 -405 -129 -48 callsubr
          479 -77 callgsubr
          -30 callsubr
          -499 1400 rlineto
          0 -128 -18 -56 -30 vhcurveto
          -486 -1352 -153 -43 rlineto
          462 566 rmoveto
          235 666 248 -666 rlineto
          hintmask 00010100
          -211 1019 -95 callsubr
        </CharString>
        <CharString name="Acircumflex">
          -65 callsubr
          345 158 -17 callgsubr
          -1113 715 hintmask 11101000
          24 9 rmoveto
          6 -9 rlineto
          418 hlineto
          14 80 27 callgsubr
          136 405 rlineto
          566 hlineto
          143 -405 -129 -48 callsubr
          479 -77 callgsubr
          -30 callsubr
          -499 1400 rlineto
          0 -128 -18 -56 -30 vhcurveto
          -486 -1352 -153 -43 rlineto
          462 566 rmoveto
          235 666 248 -666 rlineto
          hintmask 00010100
          -502 926 -105 callgsubr
        </CharString>
        <CharString name="Adieresis">
          -65 callsubr
          192 239 -17 callgsubr
          -1068 625 hintmask 11101000
          24 9 rmoveto
          6 -9 rlineto
          418 hlineto
          14 80 27 callgsubr
          136 405 rlineto
          566 hlineto
          143 -405 -129 -48 callsubr
          479 -77 callgsubr
          -30 callsubr
          -499 1400 rlineto
          0 -128 -18 -56 -30 vhcurveto
          -486 -1352 -153 -43 rlineto
          462 566 rmoveto
          235 666 248 -666 rlineto
          hintmask 00010100
          -25 1049 -93 callgsubr
        </CharString>
        <CharString name="Agrave">
          -65 callsubr
          101 410 -17 callgsubr
          -956 400 hintmask 11101000
          24 9 rmoveto
          6 -9 rlineto
          418 hlineto
          14 80 27 callgsubr
          136 405 rlineto
          566 hlineto
          143 -405 -129 -48 callsubr
          479 -77 callgsubr
          -30 callsubr
          -499 1400 rlineto
          0 -128 -18 -56 -30 vhcurveto
          -486 -1352 -153 -43 rlineto
          462 566 rmoveto
          235 666 248 -666 rlineto
          hintmask 00010100
          -97 958 -91 callsubr
        </CharString>
        <CharString name="Amacron">
          -65 callsubr
          159 118 -17 callgsubr
          -992 472 hintmask 11101000
          24 9 rmoveto
          6 -9 rlineto
          418 hlineto
          14 80 27 callgsubr
          136 405 rlineto
          566 hlineto
          143 -405 -129 -48 callsubr
          479 -77 callgsubr
          -30 callsubr
          -499 1400 rlineto
          0 -128 -18 -56 -30 vhcurveto
          -486 -1352 -153 -43 rlineto
          462 566 rmoveto
          235 666 248 -666 rlineto
          hintmask 00010100
          -442 1016 -76 callsubr
        </CharString>
        <CharString name="Aogonek">
          406 28 callgsubr
          360 9 12 -21 533 118 877 -20 -17 callgsubr
          -470 162 hintmask 11011100
          24 9 rmoveto
          6 -9 rlineto
          418 hlineto
          14 80 27 callgsubr
          136 405 rlineto
          566 hlineto
          143 -405 -129 -48 callsubr
          180 hlineto
          hintmask 10111010
          0 -157 -81 callsubr
          164 134 117 0 hvcurveto
          160 hlineto
          hintmask 11011100
          14 80 -7 14 -30 callsubr
          -499 1400 rlineto
          0 -128 -18 -56 -30 vhcurveto
          -486 -1352 -153 -43 rlineto
          462 566 rmoveto
          235 666 248 -666 rlineto
          endchar
        </CharString>
        <CharString name="Aring">
          -65 callsubr
          89 90 245 90 -17 callgsubr
          -971 118 194 119 hintmask 11100100
          24 9 rmoveto
          6 -9 rlineto
          418 hlineto
          14 80 27 callgsubr
          136 405 rlineto
          566 hlineto
          143 -405 -129 -48 callsubr
          479 -77 callgsubr
          -30 callsubr
          -499 1400 rlineto
          0 -128 -18 -56 -30 vhcurveto
          -486 -1352 -153 -43 rlineto
          462 566 rmoveto
          235 666 248 -666 rlineto
          hintmask 00011011
          -217 946 -73 callsubr
        </CharString>
        <CharString name="Atilde">
          -65 callsubr
          220 22 callsubr
          24 1499 -1119 728 hintmask 11100100
          24 9 rmoveto
          6 -9 rlineto
          418 hlineto
          14 80 27 callgsubr
          136 405 rlineto
          566 hlineto
          143 -405 -129 -48 callsubr
          479 -77 callgsubr
          -30 callsubr
          -499 1400 rlineto
          0 -128 -18 -56 -30 vhcurveto
          -486 -1352 -153 -43 rlineto
          462 566 rmoveto
          235 666 248 -666 rlineto
          hintmask 00000000
          -506 1059 rmoveto
          hintmask 00010010
          -80 callsubr
          hintmask 00001010
          -81 callgsubr
        </CharString>
        <CharString name="B">
          14 callgsubr
          hstemhm
          249 187 536 198 -123 199 hintmask 00000000
          hintmask 11110100
          109 -76 callgsubr
          573 hlineto
          254 305 108 323 203 -97 144 -226 35 hvcurveto
          12 vlineto
          hintmask 11111000
          -14 callgsubr
          hintmask 11110100
          -57 callgsubr
          hintmask 11111000
          -6 callgsubr
          endchar
        </CharString>
        <CharString name="C">
          -34 callgsubr
          hstem
          78 205 vstem
          -100 callgsubr
          endchar
        </CharString>
        <CharString name="CR">
          -11 callgsubr
        </CharString>
        <CharString name="Cacute">
          -34 callgsubr
          101 410 28 callsubr
          367 400 hintmask 11010000
          -100 callgsubr
          hintmask 00101000
          656 914 rmoveto
          -99 callsubr
        </CharString>
        <CharString name="Ccaron">
          -34 callgsubr
          99 150 28 callsubr
          232 671 hintmask 11010000
          -100 callgsubr
          hintmask 00101000
          698 912 -102 callgsubr
        </CharString>
        <CharString name="Ccedilla">
          408 -8 callsubr
          70 128 1279 137 hstem
          78 205 618 165 vstem
          657 -163 rmoveto
          -94 callgsubr
          30 87 rlineto
          306 17 179 116 0 vvcurveto
          -55 313 rlineto
          0 -47 0 -37 -14 vhcurveto
          0 -4 -147 -13 -47 vhcurveto
          0 -136 -112 -208 -284 -285 219 465 383 218 212 257 305 115 -96 0 vhcurveto
          11 -54 0 -129 0 vvcurveto
          36 -11 51 0 0 vvcurveto
          74 319 rlineto
          0 -195 108 -303 -459 -315 -354 -459 -367 240 -322 395 -38 vhcurveto
          endchar
        </CharString>
        <CharString name="Ccircumflex">
          -34 callgsubr
          345 158 28 callsubr
          210 715 hintmask 11010000
          -100 callgsubr
          hintmask 00101000
          482 882 -105 callgsubr
        </CharString>
        <CharString name="Cdotaccent">
          -34 callgsubr
          130 237 28 callsubr
          445 245 hintmask 11010000
          -100 callgsubr
          hintmask 00101000
          771 943 -90 callgsubr
        </CharString>
        <CharString name="D">
          0 130 1245 117 hstem
          196 184 816 202 vstem
          -86 callgsubr
          endchar
        </CharString>
        <CharString name="Dcaron">
          0 130 1245 -58 callsubr
          150 hstemhm
          196 184 55 671 90 202 hintmask 11010100
          -86 callgsubr
          hintmask 00101000
          316 1454 -102 callgsubr
        </CharString>
        <CharString name="Dcroat">
          22 callgsubr
          196 184 816 202 vstem
          38 -76 callgsubr
          601 hlineto
          413 341 312 438 445 -266 297 -428 hvcurveto
          -645 hlineto
          -14 -87 7 -14 144 -38 rlineto
          -548 -172 vlineto
          -14 -21 -14 -56 14 -40 rrcurveto
          186 -560 hlineto
          -148 -43 rlineto
          332 68 rmoveto
          535 358 vlineto
          11 23 14 38 -12 56 rrcurveto
          -371 548 hlineto
          0 122 22 128 308 258 -229 -452 -382 -210 -182 -302 -166 -138 23 0 vhcurveto
          endchar
        </CharString>
        <CharString name="Delta">
          748 1 119 1396 -20 hstem
          202 1473 vstem
          202 22 rmoveto
          14 -21 rlineto
          1443 hlineto
          16 26 -753 1489 rlineto
          -32 hlineto
          -519 -1396 rmoveto
          498 1093 540 -1093 rlineto
          endchar
        </CharString>
        <CharString name="E">
          -70 callgsubr
          hstem
          240 189 407 -25 callsubr
          vstem
          -106 callgsubr
          endchar
        </CharString>
        <CharString name="Eacute">
          -70 callgsubr
          117 410 -18 callsubr
          87 400 -80 -25 callsubr
          hintmask 11101011
          -106 callgsubr
          hintmask 00010100
          504 1524 rmoveto
          -99 callsubr
        </CharString>
        <CharString name="Ebreve">
          -70 callgsubr
          178 125 -18 callsubr
          -8 591 -176 -25 callsubr
          hintmask 11101011
          -106 callgsubr
          hintmask 00010100
          621 1585 -95 callsubr
        </CharString>
        <CharString name="Ecaron">
          -70 callgsubr
          115 150 -18 callsubr
          -48 671 -216 -25 callsubr
          hintmask 11101011
          -106 callgsubr
          hintmask 00010100
          546 1522 -102 callgsubr
        </CharString>
        <CharString name="Ecircumflex">
          -70 callgsubr
          361 158 -18 callsubr
          -70 715 -238 -25 callsubr
          hintmask 11101011
          -106 callgsubr
          hintmask 00010100
          330 1492 -105 callgsubr
        </CharString>
        <CharString name="Edieresis">
          -70 callgsubr
          208 239 -18 callsubr
          -25 625 -193 -25 callsubr
          hintmask 11101011
          -106 callgsubr
          hintmask 00010100
          807 1615 -93 callgsubr
        </CharString>
        <CharString name="Edotaccent">
          -70 callgsubr
          146 237 -18 callsubr
          165 245 -3 -25 callsubr
          hintmask 11101011
          -106 callgsubr
          hintmask 00010100
          619 1553 -90 callgsubr
        </CharString>
        <CharString name="Egrave">
          -70 callgsubr
          117 410 -18 callsubr
          87 400 -80 -25 callsubr
          hintmask 11101011
          -106 callgsubr
          hintmask 00010100
          735 1524 -91 callsubr
        </CharString>
        <CharString name="Emacron">
          -70 callgsubr
          175 118 -18 callsubr
          51 472 -116 -25 callsubr
          hintmask 11101011
          -106 callgsubr
          hintmask 00010100
          390 1582 -76 callsubr
        </CharString>
        <CharString name="Eng">
          576 -68 callsubr
          1219 125 -85 85 hstemhm
          263 118 985 117 hintmask 00000000
          hintmask 10011100
          -7 callgsubr
          405 hlineto
          14 80 11 callgsubr
          1104 vlineto
          913 -1110 rlineto
          -120 vlineto
          -216 -112 -148 -95 -40 vhcurveto
          0 3 -55 31 -31 vhcurveto
          133 66 229 141 321 vvcurveto
          1304 vlineto
          hintmask 01101100
          125 -27 callsubr
          -411 18 callgsubr
          rlineto
          hintmask 10011100
          171 -36 rlineto
          -991 vlineto
          -933 1121 rlineto
          -330 hlineto
          hintmask 01011100
          -14 -81 7 -13 167 -31 rlineto
          -1219 vlineto
          -153 -43 rlineto
          endchar
        </CharString>
        <CharString name="Eogonek">
          232 28 callgsubr
          360 117 585 119 554 117 -18 callsubr
          329 162 -84 -25 callsubr
          hintmask 11111101
          87 -76 callgsubr
          875 hlineto
          0 -209 -81 callsubr
          160 176 116 9 5 hvcurveto
          79 hlineto
          -9 360 rlineto
          -45 10 -33 -10 0 vvcurveto
          -85 -243 rlineto
          -583 585 hlineto
          hintmask 11111011
          407 hlineto
          50 -141 rlineto
          39 -7 38 7 0 vvcurveto
          402 vlineto
          0 -45 8 -32 -8 vhcurveto
          -50 -142 rlineto
          -407 554 540 hlineto
          58 -182 rlineto
          0 38 -12 45 7 vhcurveto
          34 304 rlineto
          -1036 hlineto
          -14 -85 7 -14 139 -33 rlineto
          -1232 -45 callsubr
          endchar
        </CharString>
        <CharString name="Eth">
          22 callgsubr
          166 184 836 202 vstem
          8 -76 callgsubr
          621 hlineto
          413 341 312 438 445 -266 297 -428 hvcurveto
          -665 hlineto
          -14 -87 7 -14 144 -38 rlineto
          -548 -138 vlineto
          -14 -21 -14 -56 14 -40 rrcurveto
          152 -560 hlineto
          -148 -43 rlineto
          332 68 rmoveto
          535 392 vlineto
          11 23 14 38 -11 56 rrcurveto
          -406 548 hlineto
          0 127 22 143 308 258 -229 -452 -382 -210 -182 -302 -184 -140 23 0 vhcurveto
          endchar
        </CharString>
        <CharString name="Euro">
          237 -36 130 490 104 96 104 483 137 hstem
          236 205 570 7 vstem
          68 584 rmoveto
          173 hlineto
          -346 33 210 -274 327 hhcurveto
          309 179 112 0 hvcurveto
          -55 313 rlineto
          0 -44 0 -40 -14 vhcurveto
          0 -5 -128 -12 -47 vhcurveto
          0 -99 -106 -151 -193 -193 165 325 -52 vhcurveto
          509 hlineto
          23 25 9 32 26 vvcurveto
          25 -6 9 -15 callgsubr
          -408 -13 -139 vhcurveto
          -2 23 0 26 29 vvcurveto
          18 544 vlineto
          24 27 9 30 26 vvcurveto
          25 -7 10 -15 callgsubr
          -445 -14 -120 vhcurveto
          308 31 141 175 158 hhcurveto
          238 87 -83 0 hvcurveto
          12 -54 0 -117 0 vvcurveto
          34 -12 53 0 0 vvcurveto
          72 318 rlineto
          0 -148 85 -231 -327 -240 -258 -353 -71 vhcurveto
          -169 -40 19 callsubr
          173 hlineto
          0 -5 -49 -40 vvcurveto
          -150 -38 19 callsubr
          endchar
        </CharString>
        <CharString name="F">
          232 -68 callsubr
          536 119 592 117 hstemhm
          260 189 472 77 hintmask 10111100
          107 -76 callgsubr
          546 -77 callgsubr
          rlineto
          hintmask 01111100
          -62 callsubr
          hintmask 10111100
          -30 callgsubr
          rlineto
          endchar
        </CharString>
        <CharString name="G">
          -36 -28 callgsubr
          hstem
          78 205 923 188 vstem
          -101 callsubr
          endchar
        </CharString>
        <CharString name="Gbreve">
          -36 -28 callgsubr
          162 125 28 callsubr
          181 591 151 188 hintmask 11101010
          -101 callsubr
          hintmask 00010100
          682 989 -95 callsubr
        </CharString>
        <CharString name="Gcircumflex">
          -36 -28 callgsubr
          345 158 28 callsubr
          119 715 89 188 hintmask 11101010
          -101 callsubr
          hintmask 00010100
          391 896 -105 callgsubr
        </CharString>
        <CharString name="Gcommaaccent">
          -513 -21 498 -28 callgsubr
          28 callsubr
          441 170 312 188 hintmask 01111010
          -101 callsubr
          hintmask 10000100
          571 -862 -101 callgsubr
        </CharString>
        <CharString name="Gdotaccent">
          -36 -28 callgsubr
          130 237 28 callsubr
          354 245 324 188 hintmask 11101010
          -101 callsubr
          hintmask 00010100
          680 957 -90 callgsubr
        </CharString>
        <CharString name="H">
          406 -68 callsubr
          570 117 549 -2 callgsubr
          201 189 756 188 hintmask 00000000
          hintmask 10110110
          48 9 rmoveto
          hintmask 10101110
          -82 callgsubr
          hintmask 10110110
          4 callgsubr
          hintmask 10101110
          -4 callgsubr
          hintmask 01110110
          -14 callsubr
          1236 vlineto
          151 43 9 76 rlineto
          hintmask 10101110
          -5 9 rlineto
          -475 hlineto
          -15 -81 7 -13 rlineto
          hintmask 01101110
          5 callgsubr
          hintmask 10101110
          -5 -63 callgsubr
          hintmask 01101110
          139 -79 callsubr
          -143 -43 rlineto
          endchar
        </CharString>
        <CharString name="Hbar">
          574 -68 callsubr
          570 117 205 117 227 -2 callgsubr
          71 1561 -1342 189 756 188 hintmask 1011101000000000
          137 9 rmoveto
          -82 callgsubr
          hintmask 0111100110000000
          -14 callsubr
          570 756 -570 vlineto
          hintmask 1011101000000000
          -144 -43 -9 -76 -4 callgsubr
          hintmask 0111100110000000
          -14 callsubr
          892 189 vlineto
          13 23 14 38 -12 56 rrcurveto
          -204 227 hlineto
          hintmask 1011011000000000
          151 -74 callsubr
          -475 hlineto
          -15 -81 7 -13 rlineto
          hintmask 1011100110000000
          140 -34 rlineto
          -227 -756 227 vlineto
          hintmask 1011011000000000
          -4 callsubr
          -14 -81 7 -13 rlineto
          hintmask 0111100110000000
          139 -34 rlineto
          -227 -199 vlineto
          -14 -20 -14 -57 14 -40 rrcurveto
          213 -892 hlineto
          hintmask 1011101000000000
          -143 -43 rlineto
          hintmask 1011100110000000
          332 730 rmoveto
          205 756 -205 vlineto
          endchar
        </CharString>
        <CharString name="Hcircumflex">
          406 -68 callsubr
          570 117 549 128 -85 85 16 callsubr
          201 189 21 715 20 188 -31 callsubr
          hintmask 1011001010000000
          48 9 rmoveto
          hintmask 1010101010000000
          -82 callgsubr
          hintmask 1011001010000000
          4 callgsubr
          hintmask 1010101010000000
          -4 callgsubr
          hintmask 0111001010000000
          -14 callsubr
          1236 vlineto
          151 43 9 76 rlineto
          hintmask 1010101010000000
          -5 9 rlineto
          -475 hlineto
          -15 -81 7 -13 rlineto
          hintmask 0110101010000000
          5 callgsubr
          hintmask 1010101010000000
          -5 -63 callgsubr
          hintmask 0110101010000000
          139 -79 callsubr
          -143 -43 rlineto
          hintmask 0000010100000000
          420 1492 -105 callgsubr
        </CharString>
        <CharString name="I">
          -74 callgsubr
          hstemhm
          248 187 -58 callgsubr
          endchar
        </CharString>
        <CharString name="IJ">
          237 -68 callsubr
          1236 -2 callgsubr
          248 187 496 188 -58 callgsubr
          hintmask 00000000
          822 -83 rmoveto
          hintmask 00100100
          -55 callgsubr
          hintmask 00010100
          -36 callsubr
          endchar
        </CharString>
        <CharString name="Iacute">
          -74 callgsubr
          -38 callgsubr
          141 400 -293 -99 callgsubr
          116 1524 rmoveto
          -99 callsubr
        </CharString>
        <CharString name="Ibreve">
          -74 callgsubr
          178 125 hstemhm
          46 591 -389 -99 callgsubr
          233 1585 -95 callsubr
        </CharString>
        <CharString name="Icircumflex">
          -74 callgsubr
          16 callsubr
          -16 715 -451 -99 callgsubr
          -58 1492 -105 callgsubr
        </CharString>
        <CharString name="Idieresis">
          -74 callgsubr
          208 239 hstemhm
          29 625 -406 -99 callgsubr
          419 1615 -93 callgsubr
        </CharString>
        <CharString name="Idotaccent">
          -74 callgsubr
          -16 callgsubr
          219 245 -216 -99 callgsubr
          231 1553 -90 callgsubr
        </CharString>
        <CharString name="Igrave">
          -74 callgsubr
          -38 callgsubr
          141 400 -293 -99 callgsubr
          347 1524 -91 callsubr
        </CharString>
        <CharString name="Imacron">
          -74 callgsubr
          175 118 hstemhm
          105 472 -329 -99 callgsubr
          2 1582 -76 callsubr
        </CharString>
        <CharString name="Iogonek">
          -446 28 callgsubr
          360 -68 callgsubr
          -107 -21 1364 -2 callgsubr
          158 162 -72 187 hintmask 10011010
          99 -76 callgsubr
          204 hlineto
          0 -150 -81 callsubr
          164 127 117 0 hvcurveto
          132 hlineto
          15 80 -7 14 rlineto
          hintmask 10101001
          -152 34 rlineto
          1236 vlineto
          hintmask 10010110
          144 43 10 76 -4 -63 callgsubr
          hintmask 10101001
          -54 callgsubr
          hintmask 11001010
          -139 -43 rlineto
          endchar
        </CharString>
        <CharString name="Itilde">
          -74 callgsubr
          236 22 callsubr
          -22 728 -458 29 callsubr
          hintmask 10100001
          99 9 rmoveto
          hintmask 10010001
          -82 callgsubr
          hintmask 01100001
          -152 34 rlineto
          1236 vlineto
          144 43 10 76 rlineto
          hintmask 10010001
          -4 -63 callgsubr
          hintmask 01010001
          -54 callgsubr
          -139 -43 rlineto
          hintmask 00000000
          -62 1625 rmoveto
          hintmask 00001010
          -80 callsubr
          hintmask 00000110
          -81 callgsubr
        </CharString>
        <CharString name="J">
          -446 1364 -2 callgsubr
          248 188 hintmask 00000000
          hintmask 10100000
          248 2 rmoveto
          hintmask 01100000
          -55 callgsubr
          hintmask 10100000
          -36 callsubr
          endchar
        </CharString>
        <CharString name="Jcircumflex">
          -446 1364 128 -85 85 16 callsubr
          -39 715 -428 188 hintmask 00000000
          hintmask 10001000
          248 2 rmoveto
          hintmask 01001000
          -55 callgsubr
          hintmask 10001000
          -36 callsubr
          hintmask 00110000
          -220 213 -105 callgsubr
        </CharString>
        <CharString name="K">
          237 0 4 callsubr
          hintmask 00000000
          hintmask 11001000
          80 9 rmoveto
          hintmask 10011000
          -82 callgsubr
          hintmask 11001000
          -61 callgsubr
          hintmask 10011000
          5 callsubr
          hintmask 10101000
          19 callgsubr
          endchar
        </CharString>
        <CharString name="Kcommaaccent">
          237 -2 callsubr
          4 callsubr
          285 170 hintmask 00000000
          hintmask 01100100
          80 9 rmoveto
          hintmask 01001100
          -82 callgsubr
          hintmask 01100100
          -61 callgsubr
          hintmask 01001100
          5 callsubr
          hintmask 01010100
          19 callgsubr
          hintmask 10000010
          542 -266 -101 callgsubr
        </CharString>
        <CharString name="L">
          65 0 117 1247 -29 callsubr
          595 81 hintmask 11011000
          78 -76 callgsubr
          1018 hlineto
          -9 371 rlineto
          -45 7 -32 -7 0 vvcurveto
          -92 -254 rlineto
          -503 1247 hlineto
          hintmask 10111000
          -62 callgsubr
          hintmask 11011000
          141 -79 callsubr
          -30 callgsubr
          rlineto
          endchar
        </CharString>
        <CharString name="Lacute">
          65 0 117 1247 128 -85 85 88 409 hstemhm
          231 189 -109 401 303 81 hintmask 11001010
          78 -76 callgsubr
          1018 hlineto
          -9 371 rlineto
          -45 7 -32 -7 0 vvcurveto
          -92 -254 rlineto
          -503 1247 hlineto
          hintmask 10101010
          -62 callgsubr
          hintmask 11001010
          141 -79 callsubr
          -30 callgsubr
          rlineto
          hintmask 00010100
          309 1495 -102 callsubr
        </CharString>
        <CharString name="Lcaron">
          65 0 117 834 555 -142 -29 callsubr
          369 160 66 81 hintmask 10101010
          78 -76 callgsubr
          1018 hlineto
          -9 371 rlineto
          -45 7 -32 -7 0 vvcurveto
          -92 -254 rlineto
          -503 1247 hlineto
          hintmask 10011010
          -62 callgsubr
          hintmask 10101010
          141 -79 callsubr
          -30 callgsubr
          rlineto
          hintmask 01000100
          617 1299 -36 callgsubr
          endchar
        </CharString>
        <CharString name="Lcommaaccent">
          65 -2 callsubr
          117 1247 -29 callsubr
          159 170 266 81 hintmask 01101010
          78 -76 callgsubr
          1018 hlineto
          -9 371 rlineto
          -45 7 -32 -7 0 vvcurveto
          -92 -254 rlineto
          -503 1247 hlineto
          hintmask 01011010
          -62 callgsubr
          hintmask 01101010
          141 -79 callsubr
          -30 callgsubr
          rlineto
          hintmask 10000100
          417 -266 -101 callgsubr
        </CharString>
        <CharString name="Ldot">
          65 0 117 543 -21 725 -29 callsubr
          396 245 -46 81 hintmask 10101010
          78 -76 callgsubr
          1018 hlineto
          -9 371 rlineto
          -45 7 -32 -7 0 vvcurveto
          -92 -254 rlineto
          -503 1247 hlineto
          hintmask 10011010
          -62 callgsubr
          hintmask 10101010
          141 -79 callsubr
          -30 callgsubr
          rlineto
          hintmask 01000100
          729 669 -92 callgsubr
        </CharString>
        <CharString name="Lslash">
          65 0 117 1247 -29 callsubr
          595 81 hintmask 11011000
          78 -76 callgsubr
          1018 hlineto
          -9 371 rlineto
          -45 7 -32 -7 0 vvcurveto
          -92 -254 rlineto
          -503 642 hlineto
          400 143 -3 29 -7 39 -21 38 rlinecurve
          -369 -133 rlineto
          489 vlineto
          hintmask 10111000
          -62 callgsubr
          hintmask 11011000
          141 -34 rlineto
          -568 vlineto
          -268 -97 rlineto
          -33 14 -45 20 -23 vhcurveto
          234 83 rlineto
          -553 -45 callsubr
          endchar
        </CharString>
        <CharString name="M">
          917 0 85 1395 12 hstem
          111 1823 vstem
          111 -76 callgsubr
          412 -77 callgsubr
          -142 34 45 1074 530 -1155 rlineto
          36 42 25 29 12 hvcurveto
          468 1125 47 -1098 -142 -43 -11 -76 5 -9 rlineto
          494 hlineto
          15 80 -7 14 -168 34 -56 1234 184 31 18 87 -16 12 rlineto
          -379 hlineto
          -476 -1168 -518 1168 rlineto
          -357 hlineto
          -15 -85 7 -14 179 -31 -56 -1234 -153 -43 rlineto
          endchar
        </CharString>
        <CharString name="N">
          576 -15 -48 callgsubr
          hstemhm
          263 118 985 117 hintmask 00000000
          hintmask 11010110
          -7 callgsubr
          hintmask 11001110
          26 callsubr
          rlineto
          hintmask 10110110
          -53 callsubr
          hintmask 11001110
          -52 callgsubr
          hintmask 10101110
          -50 callgsubr
          hintmask 11001110
          -65 callgsubr
          hintmask 11010110
          -19 callgsubr
          endchar
        </CharString>
        <CharString name="Nacute">
          576 -15 -48 callgsubr
          116 410 hstemhm
          263 118 321 400 264 117 -31 callsubr
          hintmask 1101001010000000
          -7 callgsubr
          hintmask 1100101010000000
          26 callsubr
          rlineto
          hintmask 1011001010000000
          -53 callsubr
          hintmask 1100101010000000
          -52 callgsubr
          hintmask 1010101010000000
          -50 callgsubr
          hintmask 1100101010000000
          -65 callgsubr
          hintmask 1101001010000000
          -19 callgsubr
          hintmask 0000010100000000
          676 1523 rmoveto
          -99 callsubr
        </CharString>
        <CharString name="Ncaron">
          576 -15 -48 callgsubr
          114 150 hstemhm
          263 118 186 671 128 117 -31 callsubr
          hintmask 1101001010000000
          -7 callgsubr
          hintmask 1100101010000000
          26 callsubr
          rlineto
          hintmask 1011001010000000
          -53 callsubr
          hintmask 1100101010000000
          -52 callgsubr
          hintmask 1010101010000000
          -50 callgsubr
          hintmask 1100101010000000
          -65 callgsubr
          hintmask 1101001010000000
          -19 callgsubr
          hintmask 0000010100000000
          718 1521 -102 callgsubr
        </CharString>
        <CharString name="Ncommaaccent">
          576 -488 -21 494 -48 callgsubr
          hstemhm
          263 118 486 170 329 117 -31 callsubr
          hintmask 0110101010000000
          -7 callgsubr
          hintmask 0110011010000000
          26 callsubr
          rlineto
          hintmask 0101101010000000
          -53 callsubr
          hintmask 0110011010000000
          -52 callgsubr
          hintmask 0101011010000000
          -50 callgsubr
          hintmask 0110011010000000
          -65 callgsubr
          hintmask 0110101010000000
          -19 callgsubr
          hintmask 1000000100000000
          682 -241 -101 callgsubr
        </CharString>
        <CharString name="Ntilde">
          576 -15 -48 callgsubr
          235 22 callsubr
          263 118 158 728 99 117 -31 callsubr
          hintmask 1101000101000000
          -7 callgsubr
          hintmask 1100100101000000
          26 callsubr
          rlineto
          hintmask 1011000101000000
          -53 callsubr
          hintmask 1100100101000000
          -52 callgsubr
          hintmask 1010100101000000
          -50 callgsubr
          hintmask 1100100101000000
          -65 callgsubr
          hintmask 1101000101000000
          -19 callgsubr
          -31 callsubr
          498 1624 rmoveto
          hintmask 0000010010000000
          -80 callsubr
          hintmask 0000001010000000
          -81 callgsubr
        </CharString>
        <CharString name="O">
          -61 callsubr
          hstem
          126 205 1043 205 vstem
          -105 callsubr
          endchar
        </CharString>
        <CharString name="OE">
          924 -36 130 -94 117 585 119 554 117 -112 128 28 callsubr
          751 188 448 127 95 81 hintmask 1010111110000000
          78 706 rmoveto
          -412 280 -330 419 vhcurveto
          hintmask 0111011110000000
          77 76 13 23 70 hvcurveto
          978 hlineto
          -9 360 rlineto
          -45 10 -32 -10 0 vvcurveto
          -85 -243 rlineto
          -585 585 448 hlineto
          49 -141 rlineto
          40 -7 38 7 0 vvcurveto
          402 vlineto
          0 -44 8 -34 -8 vhcurveto
          -49 -142 rlineto
          -448 554 560 hlineto
          60 -182 rlineto
          0 37 -12 45 7 vhcurveto
          33 304 rlineto
          -968 hlineto
          hintmask 1010111110000000
          10 -48 -51 6 -54 hhcurveto
          -409 -349 -351 -451 hvcurveto
          205 90 rmoveto
          370 191 214 310 90 85 -25 -45 75 vhcurveto
          -1180 vlineto
          -24 -59 -63 -12 -71 hhcurveto
          -311 -247 264 438 hvcurveto
          endchar
        </CharString>
        <CharString name="Oacute">
          -61 callsubr
          101 410 -25 callgsubr
          321 400 322 205 hintmask 11010100
          -105 callsubr
          hintmask 00101000
          405 813 rmoveto
          -99 callsubr
        </CharString>
        <CharString name="Obreve">
          -61 callsubr
          162 125 -25 callgsubr
          226 591 226 205 hintmask 11010100
          -105 callsubr
          hintmask 00101000
          522 874 -95 callsubr
        </CharString>
        <CharString name="Ocircumflex">
          -61 callsubr
          345 158 -25 callgsubr
          164 715 164 205 hintmask 11010100
          -105 callsubr
          hintmask 00101000
          231 781 -105 callgsubr
        </CharString>
        <CharString name="Odieresis">
          -61 callsubr
          192 239 -25 callgsubr
          209 625 209 205 hintmask 11010100
          -105 callsubr
          hintmask 00101000
          708 904 -93 callgsubr
        </CharString>
        <CharString name="Ograve">
          -61 callsubr
          101 410 -25 callgsubr
          321 400 322 205 hintmask 11010100
          -105 callsubr
          hintmask 00101000
          636 813 -91 callsubr
        </CharString>
        <CharString name="Ohungarumlaut">
          -61 callsubr
          71 439 -25 callgsubr
          291 701 51 205 hintmask 11010100
          -105 callsubr
          hintmask 00101000
          386 784 -84 callsubr
        </CharString>
        <CharString name="Omacron">
          -61 callsubr
          159 118 -25 callgsubr
          285 472 286 205 hintmask 11010100
          -105 callsubr
          hintmask 00101000
          291 871 -76 callsubr
        </CharString>
        <CharString name="Omega">
          918 0 166 1275 112 hstemhm
          333 197 984 200 vstemhm
          225 hmoveto
          692 166 hlineto
          -161 90 -226 268 329 vvcurveto
          428 216 160 285 241 242 -135 -419 -326 -156 -273 -206 -122 vhcurveto
          -166 670 vlineto
          48 392 rlineto
          -43 16 -39 -4 0 vvcurveto
          hintmask 11110000
          -89 -222 -382 -24 178 154 214 329 5 247 rlinecurve
          447 9 -286 218 -392 hhcurveto
          -356 -347 -197 -504 -9 hvcurveto
          -6 -294 229 -287 177 -116 -385 26 rcurveline
          -89 223 rlineto
          0 -39 4 -43 -16 vhcurveto
          endchar
        </CharString>
        <CharString name="Oslash">
          576 -162 1769 -1643 130 1286 128 -25 callgsubr
          177 688 178 205 hintmask 10011100
          508 -128 rmoveto
          -13 24 47 -21 28 hhcurveto
          49 145 rlineto
          hintmask 01111100
          -12 53 57 -7 59 hhcurveto
          412 342 342 455 326 -156 264 -266 106 hvcurveto
          39 114 rlineto
          hintmask 10011100
          18 -21 -52 18 -29 hhcurveto
          -40 -118 rlineto
          hintmask 01111100
          12 -53 -57 7 -60 hhcurveto
          -409 -349 -351 -451 -316 165 -268 265 -107 hvcurveto
          55 160 rmoveto
          -168 110 -112 216 295 vvcurveto
          370 191 214 310 61 58 -11 -22 55 vhcurveto
          -301 -1220 rmoveto
          397 1169 rlineto
          162 -110 110 -217 -300 vvcurveto
          -377 -200 -198 -285 -65 -61 11 22 -58 vhcurveto
          endchar
        </CharString>
        <CharString name="Otilde">
          -61 callsubr
          220 22 callsubr
          126 205 158 728 157 205 hintmask 11001010
          -105 callsubr
          hintmask 00000000
          227 914 rmoveto
          hintmask 00100100
          -80 callsubr
          hintmask 00010100
          -81 callgsubr
        </CharString>
        <CharString name="P">
          67 0 11 572 118 674 117 hstem
          211 189 516 201 vstem
          -72 callgsubr
          endchar
        </CharString>
        <CharString name="Q">
          576 -36 130 -106 -21 1413 128 -25 callgsubr
          515 962 -434 205 hintmask 01111000
          126 706 rmoveto
          hintmask 10111000
          -412 280 -330 419 8 8 0 1 8 vhcurveto
          371 -318 518 -121 0 0 70 48 148 vvcurveto
          -274 30 -304 134 -204 106 rrcurveto
          hintmask 01110100
          317 90 236 301 378 vvcurveto
          1 callgsubr
          321 -429 -409 -349 -351 -451 vhcurveto
          205 90 rmoveto
          370 191 214 310 297 245 -263 -448 vhcurveto
          hintmask 10111000
          -377 -200 -198 -285 -311 -247 264 438 vhcurveto
          endchar
        </CharString>
        <CharString name="R">
          237 -2 -26 callsubr
          hstemhm
          231 189 536 201 hintmask 00000000
          hintmask 01111100
          -78 callgsubr
          hintmask 10111100
          -88 callsubr
          hintmask 01111100
          -72 callsubr
          endchar
        </CharString>
        <CharString name="Racute">
          237 -2 -26 callsubr
          -38 callgsubr
          231 189 73 400 63 -85 callsubr
          157 843 rmoveto
          -99 callsubr
        </CharString>
        <CharString name="Rcaron">
          237 -2 -26 callsubr
          115 150 hstemhm
          231 189 -62 671 -73 -85 callsubr
          199 841 -102 callgsubr
        </CharString>
        <CharString name="Rcommaaccent">
          237 -513 -21 532 -26 callsubr
          hstemhm
          231 189 238 170 128 201 hintmask 00000000
          hintmask 00111101
          -78 callgsubr
          hintmask 01011101
          -88 callsubr
          hintmask 00111101
          -72 callsubr
          hintmask 10000010
          163 -947 -101 callgsubr
        </CharString>
        <CharString name="S">
          67 -36 -37 callgsubr
          hstem
          30 callsubr
          580 171 vstem
          134 94 rmoveto
          0 126 -130 309 304 209 158 255 vhcurveto
          466 -751 -18 330 vvcurveto
          128 70 95 144 224 126 -115 0 vhcurveto
          13 -54 0 -119 0 vvcurveto
          0 32 -18 45 7 vhcurveto
          71 312 rlineto
          0 -184 117 -231 -270 -205 -175 -243 vhcurveto
          -447 745 4 -310 vvcurveto
          -184 -116 -68 -144 -215 -142 139 0 vhcurveto
          -11 54 0 115 0 vvcurveto
          0 -34 21 -45 -7 vhcurveto
          endchar
        </CharString>
        <CharString name="Sacute">
          67 -36 -37 callgsubr
          101 410 hstemhm
          30 callsubr
          67 400 113 171 hintmask 11010100
          134 94 rmoveto
          0 126 -130 309 304 209 158 255 vhcurveto
          466 -751 -18 330 vvcurveto
          128 70 95 144 224 126 -115 0 vhcurveto
          13 -54 0 -119 0 vvcurveto
          0 32 -18 45 7 vhcurveto
          71 312 rlineto
          0 -184 117 -231 -270 -205 -175 -243 vhcurveto
          -447 745 4 -310 vvcurveto
          -184 -116 -68 -144 -215 -142 139 0 vhcurveto
          -11 54 0 115 0 vvcurveto
          0 -34 21 -45 -7 vhcurveto
          hintmask 00101000
          278 1202 rmoveto
          -99 callsubr
        </CharString>
        <CharString name="Scaron">
          67 -36 -37 callgsubr
          99 150 hstemhm
          30 callsubr
          -68 671 -23 171 hintmask 11010100
          134 94 rmoveto
          0 126 -130 309 304 209 158 255 vhcurveto
          466 -751 -18 330 vvcurveto
          128 70 95 144 224 126 -115 0 vhcurveto
          13 -54 0 -119 0 vvcurveto
          0 32 -18 45 7 vhcurveto
          71 312 rlineto
          0 -184 117 -231 -270 -205 -175 -243 vhcurveto
          -447 745 4 -310 vvcurveto
          -184 -116 -68 -144 -215 -142 139 0 vhcurveto
          -11 54 0 115 0 vvcurveto
          0 -34 21 -45 -7 vhcurveto
          hintmask 00101000
          320 1200 -102 callgsubr
        </CharString>
        <CharString name="Scedilla">
          67 -8 callsubr
          70 -37 callgsubr
          hstem
          30 callsubr
          346 165 69 171 vstem
          134 94 rmoveto
          0 104 -107 250 -20 vhcurveto
          -55 -130 rlineto
          -94 callgsubr
          30 89 rlineto
          263 24 176 151 234 466 -751 -18 330 vvcurveto
          128 70 95 144 224 126 -115 0 vhcurveto
          13 -54 0 -119 0 vvcurveto
          0 32 -18 45 7 vhcurveto
          71 312 rlineto
          0 -184 117 -231 -270 -205 -175 -243 vhcurveto
          -447 745 4 -310 vvcurveto
          -184 -116 -68 -144 -215 -142 139 0 vhcurveto
          -11 54 0 115 0 vvcurveto
          0 -34 21 -45 -7 vhcurveto
          endchar
        </CharString>
        <CharString name="Scircumflex">
          67 -36 -37 callgsubr
          345 158 hstemhm
          30 callsubr
          -90 715 -45 171 hintmask 11010100
          134 94 rmoveto
          0 126 -130 309 304 209 158 255 vhcurveto
          466 -751 -18 330 vvcurveto
          128 70 95 144 224 126 -115 0 vhcurveto
          13 -54 0 -119 0 vvcurveto
          0 32 -18 45 7 vhcurveto
          71 312 rlineto
          0 -184 117 -231 -270 -205 -175 -243 vhcurveto
          -447 745 4 -310 vvcurveto
          -184 -116 -68 -144 -215 -142 139 0 vhcurveto
          -11 54 0 115 0 vvcurveto
          0 -34 21 -45 -7 vhcurveto
          hintmask 00101000
          104 1170 -105 callgsubr
        </CharString>
        <CharString name="Scommaaccent">
          67 -513 -21 498 -37 callgsubr
          hstemhm
          30 callsubr
          232 170 178 171 hintmask 01110100
          134 94 rmoveto
          0 126 -130 309 304 209 158 255 vhcurveto
          466 -751 -18 330 vvcurveto
          128 70 95 144 224 126 -115 0 vhcurveto
          13 -54 0 -119 0 vvcurveto
          0 32 -18 45 7 vhcurveto
          71 312 rlineto
          0 -184 117 -231 -270 -205 -175 -243 vhcurveto
          -447 745 4 -310 vvcurveto
          -184 -116 -68 -144 -215 -142 139 0 vhcurveto
          -11 54 0 115 0 vvcurveto
          0 -34 21 -45 -7 vhcurveto
          hintmask 10001000
          284 -588 -101 callgsubr
        </CharString>
        <CharString name="T">
          -9 callgsubr
          hstemhm
          586 189 hintmask 10110000
          -52 callsubr
          hintmask 01110000
          -86 callsubr
          hintmask 10110000
          -214 -43 rlineto
          endchar
        </CharString>
        <CharString name="Tbar">
          233 -68 callsubr
          621 118 503 122 hstemhm
          303 752 -469 189 hintmask 10111000
          -52 callsubr
          hintmask 01110100
          -217 43 rlineto
          621 262 vlineto
          11 24 14 38 -11 56 rrcurveto
          -276 503 187 hlineto
          151 23 -33 -177 58 hvcurveto
          0 52 0 34 17 vhcurveto
          -41 315 rlineto
          -1120 hlineto
          -38 -315 rlineto
          29 -17 57 0 0 vvcurveto
          177 58 24 33 151 hhcurveto
          186 -503 -263 hlineto
          -14 -22 -15 -56 15 -40 rrcurveto
          277 -621 hlineto
          hintmask 10111000
          -214 -43 rlineto
          endchar
        </CharString>
        <CharString name="Tcaron">
          -9 callgsubr
          115 150 hstemhm
          345 671 -430 189 hintmask 10100100
          -52 callsubr
          hintmask 01100100
          -86 callsubr
          hintmask 10100100
          -214 -43 rlineto
          hintmask 00011000
          234 1522 -102 callgsubr
        </CharString>
        <CharString name="Tcommaaccent">
          233 -2 callsubr
          9 callgsubr
          hstemhm
          586 189 -130 170 hintmask 01011000
          -52 callsubr
          hintmask 00111000
          -86 callsubr
          hintmask 01011000
          -214 -43 rlineto
          hintmask 10000100
          198 -266 -101 callgsubr
        </CharString>
        <CharString name="Thorn">
          67 0 11 324 117 611 117 184 128 hstem
          211 189 513 200 vstem
          58 11 rmoveto
          7 -11 rlineto
          544 -77 callgsubr
          -216 34 rlineto
          216 vlineto
          -5 32 54 -4 97 hhcurveto
          278 252 117 316 282 -169 130 -310 hvcurveto
          -234 184 hlineto
          142 43 11 76 -77 callsubr
          -54 callgsubr
          -141 -43 rlineto
          330 374 rmoveto
          584 vlineto
          0 84 20 92 219 118 -144 -151 -229 -156 -87 -224 -63 -43 2 5 -27 vhcurveto
          endchar
        </CharString>
        <CharString name="U">
          -64 callsubr
          -24 callsubr
          833 128 hintmask 00000000
          hintmask 11011000
          -31 callgsubr
          hintmask 10111000
          -60 callsubr
          hintmask 11011000
          365 231 215 313 hvcurveto
          872 vlineto
          144 -74 callsubr
          -422 -89 callgsubr
          153 -34 rlineto
          -865 vlineto
          -256 -193 -149 -229 -277 -134 149 317 vhcurveto
          804 vlineto
          166 43 11 76 -77 callsubr
          122 -34 rlineto
          endchar
        </CharString>
        <CharString name="Uacute">
          -64 callsubr
          117 410 -24 callsubr
          197 400 236 128 hintmask 00000000
          hintmask 11001010
          -31 callgsubr
          hintmask 10101010
          -60 callsubr
          hintmask 11001010
          365 231 215 313 hvcurveto
          872 vlineto
          144 -74 callsubr
          -422 -89 callgsubr
          153 -34 rlineto
          -865 vlineto
          -256 -193 -149 -229 -277 -134 149 317 vhcurveto
          804 vlineto
          166 43 11 76 -77 callsubr
          122 -34 rlineto
          hintmask 00010100
          470 245 rmoveto
          -99 callsubr
        </CharString>
        <CharString name="Ubreve">
          -64 callsubr
          178 125 -24 callsubr
          102 591 140 128 hintmask 00000000
          hintmask 11001010
          -31 callgsubr
          hintmask 10101010
          -60 callsubr
          hintmask 11001010
          365 231 215 313 hvcurveto
          872 vlineto
          144 -74 callsubr
          -422 -89 callgsubr
          153 -34 rlineto
          -865 vlineto
          -256 -193 -149 -229 -277 -134 149 317 vhcurveto
          804 vlineto
          166 43 11 76 -77 callsubr
          122 -34 rlineto
          hintmask 00010100
          587 306 -95 callsubr
        </CharString>
        <CharString name="Ucircumflex">
          -64 callsubr
          361 158 -24 callsubr
          40 715 78 128 hintmask 00000000
          hintmask 11001010
          -31 callgsubr
          hintmask 10101010
          -60 callsubr
          hintmask 11001010
          365 231 215 313 hvcurveto
          872 vlineto
          144 -74 callsubr
          -422 -89 callgsubr
          153 -34 rlineto
          -865 vlineto
          -256 -193 -149 -229 -277 -134 149 317 vhcurveto
          804 vlineto
          166 43 11 76 -77 callsubr
          122 -34 rlineto
          hintmask 00010100
          296 213 -105 callgsubr
        </CharString>
        <CharString name="Udieresis">
          -64 callsubr
          208 239 -24 callsubr
          85 625 123 128 hintmask 00000000
          hintmask 11001010
          -31 callgsubr
          hintmask 10101010
          -60 callsubr
          hintmask 11001010
          365 231 215 313 hvcurveto
          872 vlineto
          144 -74 callsubr
          -422 -89 callgsubr
          153 -34 rlineto
          -865 vlineto
          -256 -193 -149 -229 -277 -134 149 317 vhcurveto
          804 vlineto
          166 43 11 76 -77 callsubr
          122 -34 rlineto
          hintmask 00010100
          773 336 -93 callgsubr
        </CharString>
        <CharString name="Ugrave">
          -64 callsubr
          117 410 -24 callsubr
          197 400 236 128 hintmask 00000000
          hintmask 11001010
          -31 callgsubr
          hintmask 10101010
          -60 callsubr
          hintmask 11001010
          365 231 215 313 hvcurveto
          872 vlineto
          144 -74 callsubr
          -422 -89 callgsubr
          153 -34 rlineto
          -865 vlineto
          -256 -193 -149 -229 -277 -134 149 317 vhcurveto
          804 vlineto
          166 43 11 76 -77 callsubr
          122 -34 rlineto
          hintmask 00010100
          701 245 -91 callsubr
        </CharString>
        <CharString name="Uhungarumlaut">
          -64 callsubr
          87 439 -24 callsubr
          167 701 -35 128 hintmask 00000000
          hintmask 11001010
          -31 callgsubr
          hintmask 10101010
          -60 callsubr
          hintmask 11001010
          365 231 215 313 hvcurveto
          872 vlineto
          144 -74 callsubr
          -422 -89 callgsubr
          153 -34 rlineto
          -865 vlineto
          -256 -193 -149 -229 -277 -134 149 317 vhcurveto
          804 vlineto
          166 43 11 76 -77 callsubr
          122 -34 rlineto
          hintmask 00010100
          451 216 -84 callsubr
        </CharString>
        <CharString name="Umacron">
          -64 callsubr
          175 118 -24 callsubr
          161 472 200 128 hintmask 00000000
          hintmask 11001010
          -31 callgsubr
          hintmask 10101010
          -60 callsubr
          hintmask 11001010
          365 231 215 313 hvcurveto
          872 vlineto
          144 -74 callsubr
          -422 -89 callgsubr
          153 -34 rlineto
          -865 vlineto
          -256 -193 -149 -229 -277 -134 149 317 vhcurveto
          804 vlineto
          166 43 11 76 -77 callsubr
          122 -34 rlineto
          hintmask 00010100
          356 303 -76 callsubr
        </CharString>
        <CharString name="Uogonek">
          402 28 callgsubr
          324 130 1250 128 hstem
          179 189 207 163 461 128 vstem
          -31 callgsubr
          -312 193 -200 349 vhcurveto
          17 hlineto
          -62 -49 -101 -101 -118 vvcurveto
          -108 66 -76 101 144 115 121 0 44 -42 17 -3 vhcurveto
          -2 -90 -54 -44 hhcurveto
          -50 -32 25 54 121 101 111 104 47 hvcurveto
          195 80 189 115 299 vvcurveto
          852 vlineto
          143 -27 callsubr
          -415 -89 callgsubr
          146 -34 rlineto
          -845 vlineto
          -256 -195 -149 -245 -264 -127 149 317 vhcurveto
          784 vlineto
          166 43 11 76 -77 callsubr
          122 -34 rlineto
          endchar
        </CharString>
        <CharString name="Uring">
          -64 callsubr
          105 90 245 90 -24 callsubr
          182 118 194 119 220 128 -31 callsubr
          hintmask 1100010010000000
          -31 callgsubr
          hintmask 1010010010000000
          -60 callsubr
          hintmask 1100010010000000
          365 231 215 313 hvcurveto
          872 vlineto
          144 -74 callsubr
          -422 -89 callgsubr
          153 -34 rlineto
          -865 vlineto
          -256 -193 -149 -229 -277 -134 149 317 vhcurveto
          804 vlineto
          166 43 11 76 -77 callsubr
          122 -34 rlineto
          hintmask 0001101100000000
          581 233 -73 callsubr
        </CharString>
        <CharString name="Utilde">
          -64 callsubr
          236 22 callsubr
          179 189 34 728 71 128 hintmask 00000000
          hintmask 11000101
          -31 callgsubr
          hintmask 10100101
          -60 callsubr
          hintmask 11000101
          365 231 215 313 hvcurveto
          872 vlineto
          144 -74 callsubr
          -422 -89 callgsubr
          153 -34 rlineto
          -865 vlineto
          -256 -193 -149 -229 -277 -134 149 317 vhcurveto
          804 vlineto
          166 43 11 76 -77 callsubr
          122 -34 rlineto
          hintmask 00000000
          292 346 rmoveto
          hintmask 00010010
          -80 callsubr
          hintmask 00001010
          -81 callgsubr
        </CharString>
        <CharString name="V">
          -2 -21 1506 9 hstem
          2 1527 vstem
          678 -23 rmoveto
          0 108 0 79 46 vhcurveto
          492 1337 162 42 10 81 -5 9 rlineto
          -468 hlineto
          -14 -85 7 -14 143 -36 -391 -1193 -400 1193 136 45 10 81 -6 9 rlineto
          -524 hlineto
          -15 -83 8 -16 169 -33 rlineto
          endchar
        </CharString>
        <CharString name="W">
          -20 callsubr
          hstem
          -43 2300 vstem
          566 -23 rmoveto
          0 108 0 79 46 vhcurveto
          355 1181 370 -1227 rlineto
          0 108 0 77 46 vhcurveto
          432 1341 153 -74 callsubr
          -421 hlineto
          -15 -81 8 -13 132 -34 -363 -1202 -368 1304 rlineto
          0 -112 0 -66 -66 vhcurveto
          -366 -1231 -348 1195 130 -74 callsubr
          -496 -89 callgsubr
          160 -34 rlineto
          endchar
        </CharString>
        <CharString name="Wacute">
          -20 callsubr
          -38 callgsubr
          -43 2300 -1350 400 hintmask 11010000
          566 -23 rmoveto
          0 108 0 79 46 vhcurveto
          355 1181 370 -1227 rlineto
          0 108 0 77 46 vhcurveto
          432 1341 153 -74 callsubr
          -421 hlineto
          -15 -81 8 -13 132 -34 -363 -1202 -368 1304 rlineto
          0 -112 0 -66 -66 vhcurveto
          -366 -1231 -348 1195 130 -74 callsubr
          -496 -89 callgsubr
          160 -34 rlineto
          hintmask 00101000
          867 245 rmoveto
          -99 callsubr
        </CharString>
        <CharString name="Wcircumflex">
          -20 callsubr
          16 callsubr
          -43 2300 -1507 715 hintmask 11010000
          566 -23 rmoveto
          0 108 0 79 46 vhcurveto
          355 1181 370 -1227 rlineto
          0 108 0 77 46 vhcurveto
          432 1341 153 -74 callsubr
          -421 hlineto
          -15 -81 8 -13 132 -34 -363 -1202 -368 1304 rlineto
          0 -112 0 -66 -66 vhcurveto
          -366 -1231 -348 1195 130 -74 callsubr
          -496 -89 callgsubr
          160 -34 rlineto
          hintmask 00101000
          693 213 -105 callgsubr
        </CharString>
        <CharString name="Wdieresis">
          -20 callsubr
          208 239 hstemhm
          -43 2300 -1462 625 hintmask 11010000
          566 -23 rmoveto
          0 108 0 79 46 vhcurveto
          355 1181 370 -1227 rlineto
          0 108 0 77 46 vhcurveto
          432 1341 153 -74 callsubr
          -421 hlineto
          -15 -81 8 -13 132 -34 -363 -1202 -368 1304 rlineto
          0 -112 0 -66 -66 vhcurveto
          -366 -1231 -348 1195 130 -74 callsubr
          -496 -89 callgsubr
          160 -34 rlineto
          hintmask 00101000
          1170 336 -93 callgsubr
        </CharString>
        <CharString name="Wgrave">
          -20 callsubr
          -38 callgsubr
          -43 2300 -1350 400 hintmask 11010000
          566 -23 rmoveto
          0 108 0 79 46 vhcurveto
          355 1181 370 -1227 rlineto
          0 108 0 77 46 vhcurveto
          432 1341 153 -74 callsubr
          -421 hlineto
          -15 -81 8 -13 132 -34 -363 -1202 -368 1304 rlineto
          0 -112 0 -66 -66 vhcurveto
          -366 -1231 -348 1195 130 -74 callsubr
          -496 -89 callgsubr
          160 -34 rlineto
          hintmask 00101000
          1098 245 -91 callsubr
        </CharString>
        <CharString name="X">
          233 0 85 1279 -2 callgsubr
          -25 1412 hintmask 00000000
          hintmask 10110000
          -20 hmoveto
          454 -77 callgsubr
          -148 34 346 534 368 -534 -142 -43 -9 -76 5 -9 rlineto
          513 hlineto
          13 80 -7 14 -148 34 -466 675 398 561 149 -74 callsubr
          -454 hlineto
          -15 -81 8 -13 140 -34 -299 -462 -315 462 151 43 9 76 -4 9 rlineto
          -513 hlineto
          -15 -81 7 -13 139 -34 413 -601 rlineto
          hintmask 11010000
          -443 -635 -142 -43 -9 -76 rlineto
          endchar
        </CharString>
        <CharString name="Y">
          -49 callsubr
          hstemhm
          509 189 hintmask 00000000
          hintmask 10011000
          356 -76 callgsubr
          476 -77 callgsubr
          rlineto
          hintmask 10101000
          -14 callsubr
          431 vlineto
          400 805 148 43 rlineto
          hintmask 01011000
          10 -67 callgsubr
          -454 -89 callgsubr
          146 -41 -312 -676 -310 683 150 43 10 76 rlineto
          hintmask 10011000
          -5 9 rlineto
          -513 hlineto
          -15 -81 8 -13 rlineto
          hintmask 01011000
          138 -34 422 -819 rlineto
          -417 -45 callsubr
          endchar
        </CharString>
        <CharString name="Yacute">
          -49 callsubr
          -38 callgsubr
          398 400 -289 189 hintmask 00000000
          hintmask 10010010
          356 -76 callgsubr
          476 -77 callgsubr
          rlineto
          hintmask 10100010
          -14 callsubr
          431 vlineto
          400 805 148 43 rlineto
          hintmask 01010010
          10 -67 callgsubr
          -454 -89 callgsubr
          146 -41 -312 -676 -310 683 150 43 10 76 rlineto
          hintmask 10010010
          -5 9 rlineto
          -513 hlineto
          -15 -81 8 -13 rlineto
          hintmask 01010010
          138 -34 422 -819 rlineto
          -417 -45 callsubr
          hintmask 00001100
          117 1524 rmoveto
          -99 callsubr
        </CharString>
        <CharString name="Ycircumflex">
          -49 callsubr
          16 callsubr
          241 715 -447 189 hintmask 00000000
          hintmask 10010010
          356 -76 callgsubr
          476 -77 callgsubr
          rlineto
          hintmask 10100010
          -14 callsubr
          431 vlineto
          400 805 148 43 rlineto
          hintmask 01010010
          10 -67 callgsubr
          -454 -89 callgsubr
          146 -41 -312 -676 -310 683 150 43 10 76 rlineto
          hintmask 10010010
          -5 9 rlineto
          -513 hlineto
          -15 -81 8 -13 rlineto
          hintmask 01010010
          138 -34 422 -819 rlineto
          -417 -45 callsubr
          hintmask 00001100
          -57 1492 -105 callgsubr
        </CharString>
        <CharString name="Ydieresis">
          -49 callsubr
          208 239 hstemhm
          286 625 -402 189 hintmask 00000000
          hintmask 10010010
          356 -76 callgsubr
          476 -77 callgsubr
          rlineto
          hintmask 10100010
          -14 callsubr
          431 vlineto
          400 805 148 43 rlineto
          hintmask 01010010
          10 -67 callgsubr
          -454 -89 callgsubr
          146 -41 -312 -676 -310 683 150 43 10 76 rlineto
          hintmask 10010010
          -5 9 rlineto
          -513 hlineto
          -15 -81 8 -13 rlineto
          hintmask 01010010
          138 -34 422 -819 rlineto
          -417 -45 callsubr
          hintmask 00001100
          420 1615 -93 callgsubr
        </CharString>
        <CharString name="Ygrave">
          -49 callsubr
          -38 callgsubr
          398 400 -289 189 hintmask 00000000
          hintmask 10010010
          356 -76 callgsubr
          476 -77 callgsubr
          rlineto
          hintmask 10100010
          -14 callsubr
          431 vlineto
          400 805 148 43 rlineto
          hintmask 01010010
          10 -67 callgsubr
          -454 -89 callgsubr
          146 -41 -312 -676 -310 683 150 43 10 76 rlineto
          hintmask 10010010
          -5 9 rlineto
          -513 hlineto
          -15 -81 8 -13 rlineto
          hintmask 01010010
          138 -34 422 -819 rlineto
          -417 -45 callsubr
          hintmask 00001100
          348 1524 -91 callsubr
        </CharString>
        <CharString name="Z">
          -20 callgsubr
          hstem
          1250 12 vstem
          -90 callsubr
          endchar
        </CharString>
        <CharString name="Zacute">
          -20 callgsubr
          -38 callgsubr
          475 400 375 12 hintmask 11001000
          -90 callsubr
          hintmask 00110000
          459 1609 rmoveto
          -99 callsubr
        </CharString>
        <CharString name="Zcaron">
          -20 callgsubr
          115 150 hstemhm
          340 671 239 12 hintmask 11001000
          -90 callsubr
          hintmask 00110000
          501 1607 -102 callgsubr
        </CharString>
        <CharString name="Zdotaccent">
          -20 callgsubr
          -16 callgsubr
          553 245 452 12 hintmask 11001000
          -90 callsubr
          hintmask 00110000
          574 1638 -90 callgsubr
        </CharString>
        <CharString name="a">
          -50 callsubr
          hstem
          79 178 409 160 vstem
          -107 callgsubr
          endchar
        </CharString>
        <CharString name="aacute">
          -50 callsubr
          -17 callsubr
          79 178 138 401 -130 160 hintmask 11010100
          -107 callgsubr
          hintmask 00101000
          223 886 -102 callsubr
        </CharString>
        <CharString name="abreve">
          -50 callsubr
          163 3 callgsubr
          79 178 -73 591 -109 160 hintmask 11001010
          -107 callgsubr
          hintmask 00110100
          224 917 -95 callgsubr
        </CharString>
        <CharString name="acircumflex">
          -50 callsubr
          407 158 hstemhm
          79 178 -146 715 -160 160 hintmask 11010100
          -107 callgsubr
          hintmask 00101000
          -79 886 -106 callsubr
        </CharString>
        <CharString name="acute">
          -592 1180 409 hstem
          183 401 vstem
          268 1180 -102 callsubr
        </CharString>
        <CharString name="acute.cap">
          20 callsubr
          160 1609 rmoveto
          -99 callsubr
        </CharString>
        <CharString name="adieresis">
          -50 callsubr
          160 238 hstemhm
          79 178 -109 664 -146 160 hintmask 11010100
          -107 callgsubr
          hintmask 00101000
          431 914 -94 callsubr
        </CharString>
        <CharString name="ae">
          -93 callsubr
          endchar
        </CharString>
        <CharString name="aeacute">
          -93 callsubr
          hintmask 01101111
          547 886 -102 callsubr
        </CharString>
        <CharString name="agrave">
          -50 callsubr
          -17 callsubr
          79 178 -94 401 102 160 hintmask 11010100
          -107 callgsubr
          hintmask 00101000
          222 886 -91 callgsubr
        </CharString>
        <CharString name="amacron">
          -50 callsubr
          161 117 hstemhm
          79 178 -94 612 -109 160 hintmask 11010100
          -107 callgsubr
          hintmask 00101000
          -88 915 -75 callgsubr
        </CharString>
        <CharString name="ampersand">
          -36 112 1324 108 hstemhm
          128 198 -43 165 308 193 hintmask 11101000
          128 358 rmoveto
          -245 196 -149 331 179 141 61 82 108 vhcurveto
          79 -61 75 -53 63 -42 rrcurveto
          116 33 30 122 0 vvcurveto
          -73 42 -75 47 -74 51 119 149 49 154 2 11 rrcurveto
          0 -36 109 -119 16 vhcurveto
          0 -36 -183 -105 -165 vhcurveto
          -175 133 -163 150 -119 151 rrcurveto
          160 98 148 155 165 vvcurveto
          179 -106 140 -197 vhcurveto
          hintmask 11011000
          -184 -179 -130 -243 -113 58 -129 90 -132 hvcurveto
          hintmask 11101000
          -194 -131 -109 -84 -188 vvcurveto
          461 483 rmoveto
          hintmask 11011000
          -88 127 -53 125 113 vvcurveto
          144 85 50 52 110 61 -101 -131 -126 -53 -92 -114 -109 vhcurveto
          hintmask 11101000
          -263 -448 rmoveto
          115 45 100 114 80 vhcurveto
          134 -175 184 -176 174 -144 rrcurveto
          -69 -78 -98 -48 -124 hhcurveto
          -231 -120 155 162 hvcurveto
          endchar
        </CharString>
        <CharString name="aogonek">
          -104 28 callgsubr
          324 144 815 125 hstemhm
          79 178 299 162 -52 160 hintmask 11111000
          79 285 rmoveto
          -153 104 -168 227 99 110 106 58 56 vhcurveto
          18 -149 3 -3 rlineto
          -69 -68 -71 -99 -122 -22 callsubr
          116 26 135 200 75 hvcurveto
          39 14 23 82 -11 14 rlineto
          0 -106 -11 -26 vhcurveto
          hintmask 11110100
          -28 -9 16 29 hvcurveto
          503 vlineto
          231 -97 125 -227 -153 -195 -102 0 -65 40 -21 -15 callgsubr
          160 63 108 144 60 -101 -168 vhcurveto
          -86 vlineto
          -13 -2 -120 -15 -188 -28 rrcurveto
          -198 -31 -68 -58 -149 vvcurveto
          178 9 rmoveto
          85 38 33 88 17 vhcurveto
          16 96 176 2 11 hhcurveto
          -231 vlineto
          -39 -53 -99 -69 -77 hhcurveto
          -106 -74 99 87 hvcurveto
          endchar
        </CharString>
        <CharString name="approxequal">
          65 265 119 6 118 99 119 6 118 hstemhm
          131 931 hintmask 00000000
          hintmask 10101000
          190 606 rmoveto
          hintmask 10011000
          24 callsubr
          -57 callsubr
          hintmask 10101000
          -46 callgsubr
          -342 vmoveto
          24 callsubr
          hintmask 01101000
          -57 callsubr
          hintmask 10101000
          -46 callgsubr
          endchar
        </CharString>
        <CharString name="aring">
          -50 callsubr
          169 93 258 95 hstemhm
          79 178 -3 128 211 129 -56 160 hintmask 11001001
          -107 callgsubr
          hintmask 00110110
          225 923 -73 callgsubr
        </CharString>
        <CharString name="asciicircum">
          67 79 1132 hstem
          72 1042 vstem
          72 183 rmoveto
          0 27 -73 106 -22 vhcurveto
          391 841 382 -841 rlineto
          0 89 -50 47 136 vhcurveto
          -470 1035 rlineto
          -65 12 -40 -50 0 vvcurveto
          endchar
        </CharString>
        <CharString name="asciitilde">
          67 451 119 6 118 hstemhm
          132 931 hintmask 00000000
          hintmask 10100000
          191 450 rmoveto
          hintmask 01100000
          24 callsubr
          -57 callsubr
          hintmask 10100000
          -46 callgsubr
          endchar
        </CharString>
        <CharString name="asterisk">
          -103 926 721 hstem
          157 712 vstem
          532 926 rmoveto
          54 2 36 18 16 15 -47 261 rcurveline
          269 -9 rlineto
          7 19 2 18 15 vvcurveto
          25 -2 20 -7 14 vhcurveto
          -269 42 96 247 rlineto
          23 -32 -33 11 -24 -7 -5 -3 -5 hhcurveto
          -124 -240 -203 167 -39 -29 -20 -34 -5 -27 rlinecurve
          182 -186 -215 -146 17 -54 30 -23 22 -12 rlinecurve
          231 118 rlineto
          endchar
        </CharString>
        <CharString name="at">
          919 -459 99 315 123 -114 161 805 118 262 113 hstemhm
          173 131 299 180 961 131 hintmask 00000000
          hintmask 10111111
          173 308 rmoveto
          -436 308 -331 443 259 182 115 0 40 -31 33 -15 callgsubr
          -153 -89 -187 vhcurveto
          hintmask 11011111
          -472 -218 308 425 494 368 443 461 394 217 -215 -405 -436 -290 -176 -89 hvcurveto
          -64 158 rlineto
          hintmask 10111111
          102 741 rlineto
          50 -72 -103 21 -104 hhcurveto
          hintmask 11011111
          -195 -326 -309 -414 -195 135 -166 240 hvcurveto
          186 213 66 -206 29 -16 rlineto
          353 9 263 368 405 vvcurveto
          403 -254 283 -398 vhcurveto
          hintmask 10111111
          -575 -475 -509 -606 hvcurveto
          610 47 rmoveto
          425 283 150 0 67 52 -26 -42 40 vhcurveto
          -70 -565 -175 -172 rlineto
          -129 -68 87 143 hvcurveto
          endchar
        </CharString>
        <CharString name="atilde">
          -50 callsubr
          192 -3 callsubr
          79 178 -140 727 -178 160 hintmask 11000101
          -107 callgsubr
          hintmask 00000000
          -72 926 rmoveto
          hintmask 00101010
          -80 callgsubr
          hintmask 00010010
          -82 callsubr
        </CharString>
        <CharString name="b">
          65 -36 112 819 153 476 -20 hstem
          168 159 582 167 vstem
          -71 callsubr
          endchar
        </CharString>
        <CharString name="backslash">
          21 callsubr
          673 -162 rmoveto
          28 48 21 13 23 hvcurveto
          -587 1735 rlineto
          -27 -52 -18 -18 -22 hvcurveto
          endchar
        </CharString>
        <CharString name="bar">
          8 callgsubr
          -471 rmoveto
          117 2237 -117 hlineto
          endchar
        </CharString>
        <CharString name="braceleft">
          -445 -146 1715 hstemhm
          149 96 -37 166 -112 153 hintmask 00000000
          hintmask 10010000
          208 177 rmoveto
          -144 126 -127 101 -52 vhcurveto
          hintmask 10100000
          20 7 18 19 9 35 rrcurveto
          -42 26 -66 106 120 94 41 90 134 vvcurveto
          135 -118 61 -52 25 vhcurveto
          hintmask 10010000
          15 vlineto
          hintmask 11000000
          52 30 118 45 141 135 -41 89 95 vvcurveto
          119 69 106 35 27 vhcurveto
          -3 30 -20 24 -20 7 rrcurveto
          -101 -52 -126 -128 -144 -121 54 -99 -126 vvcurveto
          -68 -113 -89 -15 callgsubr
          -8 -12 -19 vvcurveto
          -10 2 -9 6 -11 vhcurveto
          0 113 -90 -68 -125 -54 -99 -122 vvcurveto
          endchar
        </CharString>
        <CharString name="braceright">
          -445 -146 1715 hstemhm
          298 153 -112 166 -37 96 hintmask 00000000
          505 177 rmoveto
          122 -54 99 125 vvcurveto
          68 113 90 0 vhcurveto
          6 11 2 9 10 vvcurveto
          19 -8 12 -15 callgsubr
          -113 89 68 126 54 99 121 vvcurveto
          144 -126 128 -101 52 vhcurveto
          -20 -7 -20 -24 -3 -30 rrcurveto
          35 -27 69 -106 -119 vvcurveto
          hintmask 11000000
          -95 -41 -89 -135 vvcurveto
          hintmask 10100000
          -141 118 -45 52 -30 vhcurveto
          -15 vlineto
          -52 -25 -118 -61 -135 -134 41 -90 -94 vvcurveto
          hintmask 11000000
          -120 -66 -106 -42 -26 vhcurveto
          9 -35 18 -19 20 -7 rrcurveto
          hintmask 10010000
          101 52 126 127 144 vvcurveto
          endchar
        </CharString>
        <CharString name="bracketleft">
          21 callgsubr
          185 160 vstem
          185 -299 rmoveto
          287 hlineto
          26 75 -10 19 -143 23 rlineto
          1537 vlineto
          127 20 21 83 -7 14 rlineto
          -301 hlineto
          endchar
        </CharString>
        <CharString name="bracketright">
          21 callgsubr
          338 160 vstem
          210 -202 rmoveto
          -21 -83 7 -14 rlineto
          302 1771 -288 hlineto
          -25 -76 9 -18 144 -23 rlineto
          -1537 vlineto
          endchar
        </CharString>
        <CharString name="breve">
          -385 1211 0 callgsubr
          hstem
          78 591 vstem
          375 1211 -95 callgsubr
        </CharString>
        <CharString name="breve.cap">
          -576 1670 125 hstem
          -18 591 vstem
          278 1670 -95 callsubr
        </CharString>
        <CharString name="brokenbar">
          8 callgsubr
          746 rmoveto
          117 1020 -117 hlineto
          -2237 vmoveto
          117 1067 -117 hlineto
          endchar
        </CharString>
        <CharString name="bullet">
          -617 436 386 hstem
          63 385 vstem
          256 436 rmoveto
          106 86 87 106 106 -86 87 -106 -107 -86 -87 -106 -106 86 -87 107 hvcurveto
          endchar
        </CharString>
        <CharString name="c">
          -105 -36 -18 callgsubr
          hstem
          102 167 vstem
          -96 callsubr
          endchar
        </CharString>
        <CharString name="cacute">
          -105 -36 -18 callgsubr
          -17 callsubr
          102 167 232 401 hintmask 11010000
          -96 callsubr
          hintmask 00101000
          484 706 -102 callsubr
        </CharString>
        <CharString name="caron">
          -269 1187 -1 callsubr
          hstem
          97 671 vstem
          358 1187 -97 callgsubr
        </CharString>
        <CharString name="caron.cap">
          -576 1607 150 hstem
          -59 671 vstem
          202 1607 -102 callgsubr
        </CharString>
        <CharString name="ccaron">
          -105 -36 -18 callgsubr
          139 3 callsubr
          102 167 -18 671 hintmask 11001000
          -96 callsubr
          hintmask 00110100
          410 713 -97 callgsubr
        </CharString>
        <CharString name="ccedilla">
          -105 -8 callsubr
          70 -18 callgsubr
          hstem
          102 167 398 165 vstem
          423 -163 rmoveto
          -94 callgsubr
          31 89 rlineto
          150 27 165 158 0 vvcurveto
          52 -56 22 -15 callgsubr
          -94 -107 -164 -166 -200 143 274 216 127 182 151 157 125 -115 0 vhcurveto
          80 65 7 95 0 vvcurveto
          0 -83 68 -180 -302 -249 -42 callgsubr
          -249 137 -204 242 -47 vhcurveto
          endchar
        </CharString>
        <CharString name="ccircumflex">
          -105 -36 -18 callgsubr
          407 158 hstemhm
          102 167 -52 715 hintmask 11010000
          -96 callsubr
          hintmask 00101000
          182 706 -106 callsubr
        </CharString>
        <CharString name="cdotaccent">
          -105 -36 -18 callgsubr
          100 -21 hstemhm
          102 167 195 245 hintmask 11010000
          -96 callsubr
          hintmask 00101000
          362 768 -92 callgsubr
        </CharString>
        <CharString name="cedilla">
          -567 -8 callsubr
          hstem
          363 165 vstem
          196 17 rmoveto
          -77 -180 rlineto
          -94 callgsubr
          43 124 rlineto
          endchar
        </CharString>
        <CharString name="cedilla.cap">
          -567 -8 callsubr
          hstem
          363 165 vstem
          196 17 rmoveto
          -77 -180 rlineto
          -94 callgsubr
          43 124 rlineto
          endchar
        </CharString>
        <CharString name="cent">
          -105 -314 10 268 -18 callgsubr
          273 10 hstem
          87 168 vstem
          478 -28 rmoveto
          -12 -276 43 -13 23 0 42 9 rlinecurve
          6 272 rlineto
          161 3 195 186 0 vvcurveto
          52 -57 22 -15 callgsubr
          -94 -107 -163 -13 -12 1 1 -13 vhcurveto
          10 436 18 367 rlineto
          118 -28 85 -77 0 vvcurveto
          80 65 7 95 0 vvcurveto
          0 -83 68 -180 -7 -7 0 -1 -7 vhcurveto
          13 274 -32 12 -43 2 -33 -9 rlinecurve
          -7 -292 rlineto
          -245 -58 -184 -229 -273 vvcurveto
          -253 143 -206 248 -43 vhcurveto
          9 177 rmoveto
          -124 55 -108 131 202 vvcurveto
          207 116 176 143 14 vhcurveto
          -7 -350 rlineto
          endchar
        </CharString>
        <CharString name="circumflex">
          -269 1455 158 hstem
          82 715 vstem
          149 1180 -106 callsubr
        </CharString>
        <CharString name="circumflex.cap">
          -576 1853 158 hstem
          -81 715 vstem
          -14 1577 -105 callgsubr
        </CharString>
        <CharString name="colon">
          -617 0 -21 12 callgsubr
          -10 callgsubr
          -120 -551 -5 callsubr
        </CharString>
        <CharString name="comma">
          -617 -339 2 callsubr
          94 -36 callgsubr
          endchar
        </CharString>
        <CharString name="commaaccent">
          -576 -513 -21 hstem
          294 170 vstem
          219 -181 -101 callgsubr
        </CharString>
        <CharString name="commaaccent.cap">
          -576 -508 -21 hstem
          294 159 vstem
          208 -171 rmoveto
          -77 86 26 -119 vvcurveto
          -66 -64 -70 -5 vhcurveto
          0 -2 -40 47 -12 vhcurveto
          0 183 80 258 vvcurveto
          65 -61 54 -65 -54 -65 -47 -52 vhcurveto
          endchar
        </CharString>
        <CharString name="copyright">
          748 -36 99 236 76 727 80 227 99 hstem
          78 124 229 146 931 117 vstem
          78 735 rmoveto
          -422 329 -349 447 445 326 349 422 424 -326 349 -445 -447 -329 -349 -424 vhcurveto
          124 hmoveto
          382 288 292 364 366 288 -292 -382 -382 -288 -290 -366 -364 -288 290 382 vhcurveto
          229 -24 rmoveto
          -223 162 -189 259 208 118 78 0 vhcurveto
          -29 178 rlineto
          0 -28 0 -22 -9 vhcurveto
          0 -2 -70 -5 -31 vhcurveto
          0 -79 -70 -116 -158 -162 129 252 219 129 127 142 167 64 -61 0 vhcurveto
          9 -30 0 -67 0 vvcurveto
          22 -7 23 0 0 vvcurveto
          45 184 rlineto
          0 -113 61 -180 -267 -187 -209 -262 vhcurveto
          endchar
        </CharString>
        <CharString name="currency">
          233 52 110 688 111 hstem
          264 164 530 165 vstem
          115 33 rmoveto
          0 17 -26 28 -28 vhcurveto
          12 -12 18 -14 20 -14 76 76 76 95 38 48 rrcurveto
          -66 71 95 -40 112 hhcurveto
          106 99 39 67 78 hvcurveto
          37 -48 77 -95 77 -76 rrcurveto
          0 25 16 29 29 vhcurveto
          11 11 14 19 15 19 -77 77 -98 78 -47 37 rrcurveto
          62 80 37 102 114 vvcurveto
          105 -29 96 -52 74 vhcurveto
          51 41 84 69 69 69 rrcurveto
          0 -17 25 -28 29 vhcurveto
          -11 12 -20 15 -18 13 -67 -67 -69 -82 -41 -51 rrcurveto
          58 -68 -90 34 -106 hhcurveto
          -114 -107 -47 -76 -80 hvcurveto
          -32 41 -85 107 -83 83 rrcurveto
          0 -27 -17 -28 -27 vhcurveto
          -12 -12 -14 -19 -14 -19 88 -88 113 -89 36 -28 rrcurveto
          -55 -78 -33 -97 -105 vvcurveto
          -99 27 -90 49 -73 vhcurveto
          -45 -35 -101 -81 -79 -79 rrcurveto
          313 506 rmoveto
          214 97 97 155 123 155 -151 -230 -219 -101 -88 -144 -134 -151 159 218 vhcurveto
          endchar
        </CharString>
        <CharString name="d">
          66 -21 callsubr
          hstemhm
          105 168 588 159 hintmask 00000000
          hintmask 10111000
          -70 callsubr
          hintmask 01111000
          -47 callsubr
          hintmask 10111000
          -83 callgsubr
          endchar
        </CharString>
        <CharString name="dagger">
          71 770 77 hstem
          554 94 -5 callgsubr
          33 -1106 rlineto
          -4 14 -80 36 -47 vhcurveto
          33 47 11 80 4 vvcurveto
          36 1111 -42 66 297 14 callsubr
          -379 -11 callsubr
          endchar
        </CharString>
        <CharString name="daggerdbl">
          71 -513 -21 1186 193 hstem
          179 842 -5 callgsubr
          81 -198 82 203 -42 66 295 14 callsubr
          -377 -11 callsubr
          1 -770 rmoveto
          379 16 -35 -75 36 -555 26 -5 35 14 17 7 rlinecurve
          37 539 -33 79 379 -20 -10 198 -12 3 -14 2 -22 -15 rlinecurve
          -25 -73 -294 -35 38 67 -80 202 -83 -202 44 -67 -300 35 -25 73 -22 15 -14 -2 -12 -3 rlinecurve
          endchar
        </CharString>
        <CharString name="dcaron">
          237 -21 callsubr
          33 555 hstemhm
          105 168 588 159 207 -41 callgsubr
          hintmask 10101100
          -70 callsubr
          hintmask 01101100
          -47 callsubr
          hintmask 10101100
          -83 callgsubr
          hintmask 00010010
          869 977 -36 callgsubr
          endchar
        </CharString>
        <CharString name="dcroat">
          66 -21 callsubr
          120 118 hstemhm
          105 168 315 542 -269 159 hintmask 10111100
          105 474 rmoveto
          -285 182 -225 308 85 115 76 63 78 vhcurveto
          16 -112 rlineto
          hintmask 01111100
          15 -14 268 10 callsubr
          -101 -12 -25 vhcurveto
          hintmask 10111010
          -31 -7 17 28 hvcurveto
          968 92 vlineto
          12 23 13 38 -11 57 rrcurveto
          -106 341 hlineto
          -16 9 -310 -112 -11 -54 11 -14 167 -40 rlineto
          -130 -254 vlineto
          -14 -21 -13 -56 13 -41 rrcurveto
          268 -163 hlineto
          22 -56 -85 21 -89 hhcurveto
          -83 callgsubr
          endchar
        </CharString>
        <CharString name="degree">
          -276 1013 89 316 90 hstem
          172 108 292 108 vstem
          424 1013 rmoveto
          141 115 111 136 134 -115 114 -141 -139 -113 -114 -134 -136 113 -111 139 hvcurveto
          2 89 rmoveto
          -76 -70 62 96 84 59 74 83 81 69 -71 -87 -87 -64 -71 -82 hvcurveto
          endchar
        </CharString>
        <CharString name="dieresis">
          -345 1208 238 hstem
          60 664 vstem
          600 1208 -94 callsubr
        </CharString>
        <CharString name="dieresis.cap">
          -576 1700 239 hstem
          -36 625 vstem
          463 1700 -93 callgsubr
        </CharString>
        <CharString name="divide">
          65 532 95 407 -20 hstemhm
          152 889 -576 245 hintmask 00000000
          hintmask 11100000
          584 796 rmoveto
          69 57 69 56 61 -72 52 -56 -65 -52 -66 -56 hvcurveto
          hintmask 11010000
          -62 65 -54 54 vhcurveto
          -423 -264 rmoveto
          871 hlineto
          25 callgsubr
          -871 hlineto
          -12 -31 0 -34 12 -30 rrcurveto
          304 -287 7 callsubr
          -66 -56 vhcurveto
          endchar
        </CharString>
        <CharString name="dollar">
          67 -179 12 131 -37 callgsubr
          126 11 hstem
          30 callsubr
          186 170 224 171 vstem
          134 94 rmoveto
          0 113 -117 275 -12 vhcurveto
          -5 -132 40 -15 24 0 45 9 rlinecurve
          2 139 rlineto
          272 20 182 153 238 vvcurveto
          257 -228 109 -205 102 vhcurveto
          25 519 rlineto
          141 -30 80 -71 0 vvcurveto
          13 -54 0 -119 0 vvcurveto
          0 32 -18 45 7 vhcurveto
          71 312 rlineto
          0 -163 103 -212 12 vhcurveto
          6 128 -32 13 -41 2 -36 -10 rlinecurve
          -4 -135 rlineto
          -236 -26 -172 -166 -222 vvcurveto
          -229 195 -111 191 -95 vhcurveto
          -24 -555 rlineto
          -144 36 -90 88 0 vvcurveto
          -11 54 0 115 0 vvcurveto
          0 -34 21 -45 -7 vhcurveto
          356 484 rmoveto
          -128 68 -101 75 121 vvcurveto
          128 70 95 144 9 8 0 -1 9 vhcurveto
          60 -1292 rmoveto
          10 526 rlineto
          147 -74 123 -74 -126 vvcurveto
          -184 -116 -68 -144 vhcurveto
          endchar
        </CharString>
        <CharString name="dotaccent">
          -733 1148 -21 hstem
          78 245 vstem
          78 1242 -92 callgsubr
        </CharString>
        <CharString name="dotaccent.cap">
          -576 1638 237 hstem
          153 245 vstem
          274 1638 -90 callgsubr
        </CharString>
        <CharString name="dotlessi">
          -46 callsubr
          hstemhm
          272 -41 callgsubr
          hintmask 11010000
          130 9 rmoveto
          hintmask 10110000
          -98 callsubr
          endchar
        </CharString>
        <CharString name="dotlessj">
          -3 callgsubr
          hstemhm
          290 -41 callgsubr
          hintmask 10110000
          290 -45 -66 callsubr
          hintmask 11010000
          1034 vlineto
          hintmask 10110000
          -39 callgsubr
          endchar
        </CharString>
        <CharString name="e">
          -64 callgsubr
          hstem
          80 167 521 180 vstem
          -107 callsubr
          endchar
        </CharString>
        <CharString name="eacute">
          -64 callgsubr
          -17 callsubr
          80 167 236 401 -116 180 hintmask 11101010
          -107 callsubr
          hintmask 00010100
          238 556 -102 callsubr
        </CharString>
        <CharString name="ebreve">
          -64 callgsubr
          163 3 callgsubr
          80 167 25 591 -95 180 hintmask 11100101
          -107 callsubr
          hintmask 00011010
          239 587 -95 callgsubr
        </CharString>
        <CharString name="ecaron">
          -64 callgsubr
          139 3 callsubr
          80 167 -14 671 -136 180 hintmask 11100101
          -107 callsubr
          hintmask 00011010
          164 563 -97 callgsubr
        </CharString>
        <CharString name="ecircumflex">
          -64 callgsubr
          407 158 hstemhm
          80 167 -48 715 -146 180 hintmask 11101010
          -107 callsubr
          hintmask 00010100
          -64 556 -106 callsubr
        </CharString>
        <CharString name="edieresis">
          -64 callgsubr
          160 238 hstemhm
          80 167 -11 664 -132 180 hintmask 11101010
          -107 callsubr
          hintmask 00010100
          446 584 -94 callsubr
        </CharString>
        <CharString name="edotaccent">
          -64 callgsubr
          100 -21 hstemhm
          80 167 199 245 77 180 hintmask 11101010
          -107 callsubr
          hintmask 00010100
          116 618 -92 callgsubr
        </CharString>
        <CharString name="egrave">
          -64 callgsubr
          -17 callsubr
          80 167 4 401 116 180 hintmask 11101010
          -107 callsubr
          hintmask 00010100
          237 556 -91 callgsubr
        </CharString>
        <CharString name="eight">
          67 -36 106 1223 107 hstemhm
          132 185 -151 158 498 180 -103 165 hintmask 00000000
          hintmask 11011000
          132 313 rmoveto
          -188 156 -161 285 281 210 133 263 184 -175 108 -170 90 vhcurveto
          hintmask 11100100
          154 101 129 116 136 vvcurveto
          165 -132 140 -255 -250 -199 -140 -224 -148 114 -95 142 -82 vhcurveto
          hintmask 11011000
          -163 -99 -127 -122 -177 vvcurveto
          hintmask 11100100
          488 480 rmoveto
          -152 79 -144 87 133 vvcurveto
          121 95 80 156 151 96 -97 -117 -115 -49 -74 -153 -97 vhcurveto
          hintmask 11011000
          -303 -461 rmoveto
          122 55 116 140 89 vhcurveto
          208 -108 179 -101 -129 vvcurveto
          -173 -152 -78 -132 -202 -96 130 132 vhcurveto
          endchar
        </CharString>
        <CharString name="ellipsis">
          407 -21 237 -216 -21 hstemhm
          133 245 267 245 267 245 cntrmask 00111000
          hintmask 00000000
          hintmask 01111000
          1157 94 rmoveto
          -13 callgsubr
          -512 hmoveto
          -13 callgsubr
          -512 hmoveto
          -13 callgsubr
          endchar
        </CharString>
        <CharString name="emacron">
          -64 callgsubr
          161 117 hstemhm
          80 167 4 612 -95 180 hintmask 11101010
          -107 callsubr
          hintmask 00010100
          -73 585 -75 callgsubr
        </CharString>
        <CharString name="emdash">
          574 532 95 hstem
          150 1404 vstem
          158 532 rmoveto
          1387 hlineto
          25 callgsubr
          -1387 hlineto
          -32 callgsubr
        </CharString>
        <CharString name="endash">
          67 532 95 hstem
          154 888 vstem
          162 -15 callsubr
        </CharString>
        <CharString name="eng">
          236 -514 -21 535 12 callsubr
          513 161 hintmask 00000000
          hintmask 11100110
          -51 callgsubr
          -4 -53 callgsubr
          692 vlineto
          hintmask 11010110
          0 155 77 153 vhcurveto
          hintmask 11001110
          157 48 -104 -134 hvcurveto
          -704 vlineto
          -216 -113 -148 -94 -41 vhcurveto
          0 2 -56 31 -29 vhcurveto
          134 66 201 134 321 vvcurveto
          720 vlineto
          211 -114 131 -203 -157 -219 -151 0 vhcurveto
          123 vlineto
          -17 9 -263 -106 -10 -54 10 -12 rlineto
          hintmask 11100110
          -60 callgsubr
          endchar
        </CharString>
        <CharString name="eogonek">
          -104 28 callgsubr
          324 156 408 96 313 111 hstem
          80 167 212 162 147 180 vstem
          80 474 rmoveto
          -285 188 -225 283 19 19 2 4 19 vhcurveto
          -72 -71 -77 -100 -103 vvcurveto
          -108 65 -76 101 144 116 121 0 44 -42 17 -3 vhcurveto
          -2 -90 -54 -44 hhcurveto
          -50 -33 25 54 143 185 189 16 16 hvcurveto
          64 44 42 42 0 vvcurveto
          -5 54 -52 20 0 vvcurveto
          0 -113 -107 -138 -173 -198 141 271 -2 vhcurveto
          0 122 -4 159 261 143 11 14 7 vhcurveto
          0 9 24 61 vvcurveto
          216 -115 194 -240 -270 -243 -24 callgsubr
          172 150 rmoveto
          207 26 124 106 135 hhcurveto
          137 94 -162 -132 hvcurveto
          -9 -67 -139 -10 -232 hhcurveto
          endchar
        </CharString>
        <CharString name="equal">
          65 357 94 252 94 hstem
          153 888 vstem
          161 703 rmoveto
          872 15 callsubr
          -872 hlineto
          -11 -31 0 -32 11 -31 rrcurveto
          -346 vmoveto
          872 hlineto
          11 39 0 15 -11 40 rrcurveto
          -872 hlineto
          -11 -31 0 -33 11 -30 rrcurveto
          endchar
        </CharString>
        <CharString name="eth">
          67 -36 112 819 111 hstem
          78 180 662 178 vstem
          78 485 rmoveto
          -287 196 -234 294 303 227 218 319 526 -350 306 0 vhcurveto
          123 63 106 55 0 vvcurveto
          -7 59 -34 25 0 vvcurveto
          -265 -133 -79 61 -87 52 -92 47 rlinecurve
          0 -52 -12 -7 -62 vhcurveto
          52 -30 74 -52 75 -64 -232 -117 rcurveline
          0 0 -50 41 -35 vhcurveto
          -3 127 64 137 71 vhcurveto
          77 -81 57 -134 38 -99 rrcurveto
          32 -51 -73 16 -83 hhcurveto
          -263 -252 -156 -365 hvcurveto
          180 61 rmoveto
          269 154 80 195 186 127 -172 -287 -250 -125 -110 -182 -167 -188 198 272 vhcurveto
          endchar
        </CharString>
        <CharString name="exclam">
          -617 0 -21 1519 -20 12 callgsubr
          210 344 rmoveto
          0 17 -7 23 12 15 2 5 14 vhcurveto
          0 42 612 12 542 vhcurveto
          0 -40 10 -57 -26 -32 -3 -7 -34 vhcurveto
          12 -542 42 -612 0 vvcurveto
          -77 -250 -5 callsubr
        </CharString>
        <CharString name="exclamdown">
          -617 -248 20 1478 21 12 callgsubr
          210 906 rmoveto
          0 -42 -612 -12 -542 vhcurveto
          -7 34 32 -3 26 hhcurveto
          57 40 10 0 hvcurveto
          -12 542 -42 612 0 vvcurveto
          5 -14 -15 2 -12 hhcurveto
          -23 -17 -7 0 hvcurveto
          -77 250 rmoveto
          -57 52 -65 65 57 71 52 61 56 -57 68 -68 -54 -66 -54 -61 vhcurveto
          endchar
        </CharString>
        <CharString name="f">
          -446 0 9 888 11 callsubr
          hstem
          215 160 vstem
          73 9 -103 callsubr
          endchar
        </CharString>
        <CharString name="ff">
          237 0 9 888 11 callsubr
          hstemhm
          215 160 523 160 hintmask 11110000
          73 9 -103 callsubr
          hintmask 11101000
          673 -76 -103 callsubr
          endchar
        </CharString>
        <CharString name="fi">
          236 0 9 888 118 5 -20 519 117 hstemhm
          215 160 580 160 hintmask 11011000
          73 9 -103 callsubr
          hintmask 00000000
          944 1124 rmoveto
          hintmask 10100100
          68 58 65 59 58 -69 55 -57 -65 -54 -66 -56 -61 65 -54 54 hvcurveto
          -214 -1200 rmoveto
          -98 callsubr
          endchar
        </CharString>
        <CharString name="five">
          -105 -377 106 678 123 337 167 hstem
          745 202 vstem
          158 -101 rmoveto
          0 -78 -50 -4 -92 vhcurveto
          0 88 -134 203 283 297 169 353 224 -196 161 -225 -111 -90 -17 -21 -87 vhcurveto
          68 398 rlineto
          0 252 -23 218 63 40 5 0 vhcurveto
          45 249 rlineto
          9 -15 -23 3 -16 hhcurveto
          -24 hlineto
          -21 -68 rlineto
          -22 -4 -24 -9 -122 hhcurveto
          -92 -142 4 10 -229 hvcurveto
          -80 -619 rlineto
          0 9 -38 31 -12 vhcurveto
          14 66 104 14 56 hhcurveto
          229 118 -125 -198 -204 -117 -151 -169 -176 -125 170 0 hvcurveto
          endchar
        </CharString>
        <CharString name="fl">
          238 0 9 -9 -68 callgsubr
          769 11 callsubr
          hstemhm
          215 160 573 160 hintmask 10011100
          73 9 -103 callsubr
          hintmask 00000000
          726 -76 -63 callsubr
          447 hlineto
          15 80 -8 -53 callgsubr
          hintmask 01000010
          1499 vlineto
          hintmask 00100010
          -55 callsubr
          hintmask 01000010
          -32 callsubr
          endchar
        </CharString>
        <CharString name="florin">
          71 -346 117 1126 11 callsubr
          hstem
          -30 1265 vstem
          62 -160 rmoveto
          -79 -54 -13 -97 0 vvcurveto
          0 74 -35 83 285 196 211 265 33 vhcurveto
          95 767 rlineto
          223 hlineto
          22 24 11 30 29 vvcurveto
          2 20 -2 15 0 vvcurveto
          0 -141 -10 -102 vhcurveto
          26 201 rlineto
          221 26 81 92 65 hhcurveto
          132 64 -68 0 hvcurveto
          77 54 15 97 0 vvcurveto
          0 -90 34 -83 -272 -171 -213 -262 -35 vhcurveto
          -19 -148 -153 -42 rlineto
          0 -13 -15 -5 -28 vhcurveto
          -31 158 vlineto
          -102 -812 rlineto
          -247 -31 -80 -67 -73 hhcurveto
          -132 -72 69 0 hvcurveto
          endchar
        </CharString>
        <CharString name="four">
          64 0 106 hstem
          716 169 vstem
          130 hmoveto
          586 -393 hlineto
          111 4 58 52 0 vvcurveto
          337 227 vlineto
          28 52 -5 94 0 vvcurveto
          0 -128 -21 -122 -8 vhcurveto
          463 vlineto
          0 -110 -29 -59 -40 vhcurveto
          -398 vlineto
          -474 -14 160 167 371 521 126 224 rlinecurve
          0 -73 72 -106 43 vhcurveto
          -177 -380 -245 -423 -215 -213 rrcurveto
          7 -61 40 -49 0 vvcurveto
          endchar
        </CharString>
        <CharString name="fraction">
          71 -125 1761 hstem
          79 1041 vstem
          79 -78 -71 callgsubr
          endchar
        </CharString>
        <CharString name="g">
          -69 callgsubr
          -43 callgsubr
          423 165 -86 178 -31 callsubr
          hintmask 1110100010100000
          170 -115 rmoveto
          -38 -29 -14 -43 -44 vvcurveto
          hintmask 1110001010100000
          -130 150 -175 320 304 201 152 205 vhcurveto
          hintmask 1111000010100000
          221 -154 33 -344 38 vhcurveto
          -160 17 -22 45 63 vvcurveto
          hintmask 1110100010100000
          43 53 36 37 20 vhcurveto
          -2 24 25 -3 24 hhcurveto
          222 203 162 212 83 -33 101 -70 54 hvcurveto
          hintmask 1110010010100000
          7 15 rlineto
          -8 58 36 -39 68 hhcurveto
          hintmask 1110100001100000
          40 18 14 0 hvcurveto
          0 11 18 43 vvcurveto
          hintmask 1110100100010000
          38 -6 20 -21 29 vhcurveto
          -22 -56 -81 -7 -74 -112 -110 11 -50 hhcurveto
          -218 -229 -144 -255 -149 102 -106 139 -47 hvcurveto
          hintmask 1110100001100000
          -120 -74 -71 -25 -94 vvcurveto
          -61 23 -58 64 -36 vhcurveto
          hintmask 1110100010100000
          -69 -52 -47 -42 -30 -28 rrcurveto
          441 555 rmoveto
          hintmask 1110100100010000
          -153 -118 106 165 134 95 101 138 136 127 -110 -175 -142 -109 -79 -116 hvcurveto
          hintmask 1110100010100000
          -329 -634 rmoveto
          86 62 64 35 23 vhcurveto
          49 -15 67 -9 84 -9 rrcurveto
          261 -30 75 -21 -89 vvcurveto
          -122 -70 -115 -236 -219 -108 121 116 vhcurveto
          endchar
        </CharString>
        <CharString name="gbreve">
          -69 callgsubr
          166 124 180 -20 -43 callgsubr
          -96 591 -72 165 -86 178 -31 callsubr
          hintmask 1110100000100100
          170 -115 rmoveto
          -38 -29 -14 -43 -44 vvcurveto
          hintmask 1110001000100100
          -130 150 -175 320 304 201 152 205 vhcurveto
          hintmask 1111000000100100
          221 -154 33 -344 38 vhcurveto
          -160 17 -22 45 63 vvcurveto
          hintmask 1110100000100100
          43 53 36 37 20 vhcurveto
          -2 24 25 -3 24 hhcurveto
          222 203 162 212 83 -33 101 -70 54 hvcurveto
          hintmask 1110010000100100
          7 15 rlineto
          -8 58 36 -39 68 hhcurveto
          hintmask 1110100000010100
          40 18 14 0 hvcurveto
          0 11 18 43 vvcurveto
          hintmask 1110100001000010
          38 -6 20 -21 29 vhcurveto
          -22 -56 -81 -7 -74 -112 -110 11 -50 hhcurveto
          -218 -229 -144 -255 -149 102 -106 139 -47 hvcurveto
          hintmask 1110100000010100
          -120 -74 -71 -25 -94 vvcurveto
          -61 23 -58 64 -36 vhcurveto
          hintmask 1110100000100100
          -69 -52 -47 -42 -30 -28 rrcurveto
          441 555 rmoveto
          hintmask 1110100001000010
          -153 -118 106 165 134 95 101 138 136 127 -110 -175 -142 -109 -79 -116 hvcurveto
          hintmask 1110100000100100
          -329 -634 rmoveto
          86 62 64 35 23 vhcurveto
          49 -15 67 -9 84 -9 rrcurveto
          261 -30 75 -21 -89 vvcurveto
          -122 -70 -115 -236 -219 -108 121 116 vhcurveto
          hintmask 0000000110001000
          332 1405 -95 callgsubr
        </CharString>
        <CharString name="gcircumflex">
          -69 callgsubr
          410 158 -43 callgsubr
          -169 715 -123 -103 callgsubr
          29 1374 -106 callsubr
        </CharString>
        <CharString name="gcommaaccent">
          -69 callgsubr
          187 555 -43 callgsubr
          54 160 209 -103 callgsubr
          430 1548 rmoveto
          -75 callsubr
          endchar
        </CharString>
        <CharString name="gdotaccent">
          -69 callgsubr
          103 -21 -43 callgsubr
          78 245 100 -103 callgsubr
          209 1436 -92 callgsubr
        </CharString>
        <CharString name="germandbls">
          67 -36 108 -72 9 1530 117 hstemhm
          216 161 169 155 133 166 -2 157 hintmask 00000000
          hintmask 01111010
          76 -1 callgsubr
          294 1254 hlineto
          233 43 52 150 172 92 -87 -111 -127 -45 -102 -68 -64 vhcurveto
          hintmask 01111100
          -118 -103 -57 -54 -128 -331 452 44 -260 vvcurveto
          -101 -72 -43 -81 vhcurveto
          hintmask 10111010
          -94 -99 58 63 -68 hvcurveto
          -19 callsubr
          0 92 -76 197 194 161 116 179 vhcurveto
          334 -454 -39 256 vvcurveto
          79 34 35 96 86 vhcurveto
          86 88 83 104 151 vvcurveto
          157 -135 146 -229 vhcurveto
          hintmask 01111100
          -274 -146 -213 -262 hvcurveto
          -1053 vlineto
          -131 -43 rlineto
          endchar
        </CharString>
        <CharString name="grave">
          -592 1180 409 hstem
          -49 401 vstem
          267 1180 -91 callgsubr
        </CharString>
        <CharString name="grave.cap">
          20 callsubr
          391 1609 -91 callsubr
        </CharString>
        <CharString name="greater">
          64 -43 1232 hstem
          146 900 vstem
          153 45 rmoveto
          10 -71 56 -17 0 vvcurveto
          811 578 rlineto
          0 20 27 -4 43 vhcurveto
          -839 584 rlineto
          -56 -30 -5 -60 0 vvcurveto
          782 -526 rlineto
          endchar
        </CharString>
        <CharString name="greaterequal">
          64 0 95 hstem
          143 908 vstem
          1050 900 rmoveto
          5 42 -22 28 0 vvcurveto
          -823 577 rlineto
          0 -58 -16 -9 -71 vhcurveto
          789 -527 -782 -528 rlineto
          0 5 -59 57 -31 vhcurveto
          813 -315 rmoveto
          11 30 0 34 -11 31 rrcurveto
          -852 hlineto
          -11 -41 0 -13 11 -41 rrcurveto
          endchar
        </CharString>
        <CharString name="guillemotleft">
          63 169 822 hstemhm
          65 528 -38 528 hintmask 11000000
          526 169 -59 callsubr
          hintmask 10100000
          950 -384 -59 callsubr
          endchar
        </CharString>
        <CharString name="guillemotright">
          63 146 822 hstemhm
          109 528 -38 528 hintmask 11000000
          176 968 -59 callgsubr
          hintmask 10100000
          30 384 -59 callgsubr
          endchar
        </CharString>
        <CharString name="guilsinglleft">
          -447 169 822 hstem
          65 528 vstem
          526 169 -59 callsubr
          endchar
        </CharString>
        <CharString name="guilsinglright">
          -447 180 822 hstem
          89 528 vstem
          156 1002 -59 callgsubr
          endchar
        </CharString>
        <CharString name="h">
          236 0 27 callsubr
          476 -20 hstem
          272 160 514 160 vstem
          133 9 rmoveto
          -21 callgsubr
          692 vlineto
          0 155 77 156 156 47 -115 -135 vhcurveto
          -519 vlineto
          -30 callgsubr
          -9 -76 7 -9 rlineto
          475 hlineto
          12 80 -7 14 -174 34 rlineto
          567 vlineto
          209 -111 144 -204 -159 -200 -138 0 vhcurveto
          717 vlineto
          -28 callsubr
          -12 158 -40 rlineto
          -1290 -35 callsubr
          endchar
        </CharString>
        <CharString name="hbar">
          197 0 27 callsubr
          120 118 238 -20 hstemhm
          86 543 -357 160 514 160 hintmask 11111010
          13 callgsubr
          rlineto
          hintmask 11110110
          -161 34 rlineto
          692 vlineto
          0 155 77 156 156 47 -115 -135 vhcurveto
          -519 vlineto
          -30 callgsubr
          -9 -76 7 -9 rlineto
          475 hlineto
          12 80 -7 14 -174 34 rlineto
          567 vlineto
          209 -111 144 -204 -159 -200 -138 0 vhcurveto
          258 177 vlineto
          13 23 14 38 -12 57 rrcurveto
          -192 341 hlineto
          -28 callsubr
          -12 158 -40 rlineto
          -132 -166 vlineto
          -14 -21 -14 -56 14 -41 rrcurveto
          180 -1040 hlineto
          -130 -43 rlineto
          endchar
        </CharString>
        <CharString name="hcircumflex">
          236 0 27 callsubr
          813 158 hstemhm
          -26 715 -417 160 514 160 hintmask 11001100
          133 9 rmoveto
          -21 callgsubr
          692 vlineto
          0 155 77 156 156 47 -115 -135 vhcurveto
          -519 vlineto
          -30 callgsubr
          -9 -76 7 -9 rlineto
          475 hlineto
          12 80 -7 14 -174 34 rlineto
          567 vlineto
          209 -111 144 -204 -159 -200 -138 0 vhcurveto
          647 vlineto
          -28 callsubr
          -12 158 -40 rlineto
          -1220 -35 callsubr
          hintmask 00110000
          -101 1501 -106 callsubr
        </CharString>
        <CharString name="hungarumlaut">
          -279 1517 -20 hstem
          76 701 vstem
          172 1161 -84 callgsubr
        </CharString>
        <CharString name="hungarumlaut.cap">
          -576 1579 439 hstem
          48 701 vstem
          143 1580 -84 callsubr
        </CharString>
        <CharString name="hyphen">
          -38 callsubr
        </CharString>
        <CharString name="i">
          -46 callsubr
          hstemhm
          272 -41 callgsubr
          hintmask 11010000
          344 1209 rmoveto
          hintmask 10110000
          68 58 65 59 58 -69 55 -57 -65 -54 -66 -56 -61 65 -54 54 hvcurveto
          -214 -1200 rmoveto
          -98 callsubr
          endchar
        </CharString>
        <CharString name="iacute">
          -46 callsubr
          171 409 hstemhm
          272 160 -158 401 hintmask 00000000
          hintmask 11001000
          130 9 rmoveto
          hintmask 10101000
          -98 callsubr
          hintmask 00010100
          219 1095 -102 callsubr
        </CharString>
        <CharString name="ibreve">
          -947 0 9 1011 -6 callsubr
          202 3 callgsubr
          63 591 -382 -41 callgsubr
          hintmask 11000010
          130 9 rmoveto
          hintmask 10100010
          -98 callsubr
          hintmask 00011100
          220 1126 -95 callgsubr
        </CharString>
        <CharString name="icircumflex">
          -46 callsubr
          446 158 hstemhm
          -10 715 -433 -41 callgsubr
          hintmask 11000100
          130 9 rmoveto
          hintmask 10100100
          -98 callsubr
          hintmask 00011000
          -83 1095 -106 callsubr
        </CharString>
        <CharString name="idieresis">
          -46 callsubr
          199 238 hstemhm
          27 664 -419 -41 callgsubr
          hintmask 11000100
          130 9 rmoveto
          hintmask 10100100
          -98 callsubr
          hintmask 00011000
          427 1123 -94 callsubr
        </CharString>
        <CharString name="igrave">
          -46 callsubr
          171 409 hstemhm
          42 401 -171 -41 callgsubr
          hintmask 11000100
          130 9 rmoveto
          hintmask 10100100
          -98 callsubr
          hintmask 00011000
          218 1095 -91 callgsubr
        </CharString>
        <CharString name="ij">
          237 -514 -21 535 9 1011 -6 callsubr
          200 237 hstemhm
          272 160 495 243 -198 -41 callgsubr
          hintmask 01100100
          344 1209 rmoveto
          hintmask 01010100
          68 58 65 59 58 -69 55 -57 -65 -54 -66 -56 -61 65 -54 54 hvcurveto
          -214 -1200 rmoveto
          -98 callsubr
          hintmask 00000000
          907 1124 2 callgsubr
          hintmask 10011010
          -75 -1254 -66 callsubr
          1034 vlineto
          hintmask 10100001
          -39 callgsubr
          endchar
        </CharString>
        <CharString name="imacron">
          -947 0 9 1011 -6 callsubr
          200 117 hstemhm
          42 612 -382 -41 callgsubr
          hintmask 11000100
          130 9 rmoveto
          hintmask 10100100
          -98 callsubr
          hintmask 00011000
          -92 1124 -75 callgsubr
        </CharString>
        <CharString name="infinity">
          641 240 112 -112 117 510 127 -122 122 hstemhm
          115 176 1188 176 hintmask 01011100
          501 240 rmoveto
          156 2 99 128 102 135 rrcurveto
          -130 107 124 -135 175 hhcurveto
          208 183 172 225 180 -107 181 -259 -4 hvcurveto
          -157 -3 -113 -128 -107 -135 rrcurveto
          130 -107 -124 136 -175 hhcurveto
          -208 -183 -172 -225 -180 127 -181 259 4 hvcurveto
          22 117 rmoveto
          -139 -93 137 140 120 50 118 134 137 107 -174 -116 85 hvcurveto
          -112 -78 -93 -113 -110 hhcurveto
          444 293 rmoveto
          hintmask 10101100
          107 83 107 110 110 hhcurveto
          139 73 -132 -135 -125 -30 -123 -134 -137 -124 177 121 -87 hvcurveto
          endchar
        </CharString>
        <CharString name="integral">
          -105 -472 120 1945 120 hstemhm
          339 175 -7 175 hintmask 00000000
          hintmask 11010000
          115 -234 rmoveto
          -63 -1 -39 -38 -28 -52 rrcurveto
          -128 56 150 -19 69 hhcurveto
          hintmask 11100000
          261 161 236 278 hvcurveto
          407 -168 404 407 vvcurveto
          229 32 104 184 86 77 -62 -56 13 vhcurveto
          46 -25 43 46 41 70 rrcurveto
          128 -56 -150 19 -69 hhcurveto
          hintmask 11010000
          -261 -161 -236 -278 hvcurveto
          -406 168 -404 -408 vvcurveto
          -229 -32 -104 -184 -86 -77 62 56 -13 vhcurveto
          endchar
        </CharString>
        <CharString name="iogonek">
          -447 28 callgsubr
          360 9 12 -21 1020 -6 callsubr
          hstemhm
          158 162 -48 160 hintmask 11010100
          344 1209 rmoveto
          68 58 65 59 58 -69 55 -57 -65 -54 -66 -56 -61 65 -54 54 hvcurveto
          -214 -1200 rmoveto
          7 -9 rlineto
          171 hlineto
          0 -150 -81 callsubr
          164 127 117 0 hvcurveto
          138 26 callgsubr
          rlineto
          hintmask 10110010
          -41 callsubr
          892 vlineto
          hintmask 11001010
          -17 9 -282 -115 -11 -54 11 -12 139 -59 rlineto
          -661 vlineto
          -132 -43 rlineto
          endchar
        </CharString>
        <CharString name="itilde">
          -46 callsubr
          231 -3 callsubr
          -4 727 -451 -41 callgsubr
          hintmask 11000001
          130 9 rmoveto
          hintmask 10100001
          -98 callsubr
          hintmask 00000000
          -76 1135 rmoveto
          hintmask 00010110
          -80 callgsubr
          hintmask 00001010
          -82 callsubr
        </CharString>
        <CharString name="j">
          -3 callgsubr
          200 237 hstemhm
          245 243 -198 -41 callgsubr
          hintmask 10111000
          365 1209 2 callgsubr
          hintmask 11000100
          -75 -1254 -66 callsubr
          1034 vlineto
          hintmask 10100100
          -39 callgsubr
          endchar
        </CharString>
        <CharString name="jcircumflex">
          -3 callgsubr
          446 158 hstemhm
          -3 715 -422 -41 callgsubr
          hintmask 10100100
          290 -45 -66 callsubr
          hintmask 11000100
          1034 vlineto
          hintmask 10100100
          -39 callgsubr
          hintmask 00011000
          -226 391 -106 callsubr
        </CharString>
        <CharString name="k">
          67 0 8 callsubr
          hintmask 00000000
          hintmask 10111000
          116 9 rmoveto
          -21 callgsubr
          299 vlineto
          101 84 332 -383 -105 -43 -10 -76 -45 callgsubr
          -5 14 -139 34 -423 477 337 278 143 47 10 73 -5 10 rlineto
          -450 hlineto
          -12 -80 7 -12 141 -29 -388 -348 rlineto
          1083 vlineto
          -28 callsubr
          -14 rlineto
          hintmask 11011000
          158 -34 callsubr
          endchar
        </CharString>
        <CharString name="kcommaaccent">
          67 -2 callsubr
          8 callsubr
          211 170 hintmask 00000000
          hintmask 01011100
          116 9 rmoveto
          -21 callgsubr
          299 vlineto
          101 84 332 -383 -105 -43 -10 -76 -45 callgsubr
          -5 14 -139 34 -423 477 337 278 143 47 10 73 -5 10 rlineto
          -450 hlineto
          -12 -80 7 -12 141 -29 -388 -348 rlineto
          1083 vlineto
          -28 callsubr
          -14 rlineto
          hintmask 01101100
          158 -34 callsubr
          hintmask 10000010
          1 callgsubr
          -101 callgsubr
        </CharString>
        <CharString name="kgreenlandic">
          67 0 9 883 121 -83 83 25 -20 30 -20 hstemhm
          255 -41 callgsubr
          hintmask 10010100
          116 9 rmoveto
          hintmask 10101100
          -21 callgsubr
          299 vlineto
          101 84 332 -383 -105 -43 -10 -76 -45 callgsubr
          -5 14 -139 34 -423 477 337 278 143 47 10 73 -5 10 rlineto
          -450 hlineto
          -12 -80 7 -12 141 -29 -388 -348 rlineto
          494 vlineto
          -16 10 -281 -106 -9 -54 9 -14 rlineto
          hintmask 11001100
          137 -59 rlineto
          -687 -35 callsubr
          endchar
        </CharString>
        <CharString name="l">
          -445 -68 callsubr
          hstemhm
          265 -41 callgsubr
          hintmask 10100000
          -69 callsubr
          hintmask 01100000
          1499 vlineto
          hintmask 10100000
          -55 callsubr
          hintmask 01100000
          -32 callsubr
          endchar
        </CharString>
        <CharString name="lacute">
          -445 -68 callsubr
          1368 -20 -17 callsubr
          259 401 -395 -41 callgsubr
          hintmask 10100100
          -69 callsubr
          hintmask 01100100
          1359 vlineto
          hintmask 10100100
          -55 callsubr
          hintmask 01100100
          157 -40 rlineto
          -1148 -35 callsubr
          hintmask 00011000
          209 1523 -102 callsubr
        </CharString>
        <CharString name="lcaron">
          -275 -68 callsubr
          953 555 hstemhm
          265 160 220 160 -56 callgsubr
          425 1429 -36 callgsubr
          endchar
        </CharString>
        <CharString name="lcommaaccent">
          -445 -2 callsubr
          -68 callgsubr
          hstemhm
          265 160 -140 170 hintmask 00000000
          hintmask 01010000
          -69 callsubr
          hintmask 00110000
          1499 vlineto
          hintmask 01010000
          -55 callsubr
          hintmask 00110000
          -32 callsubr
          hintmask 10001000
          75 -266 -101 callgsubr
        </CharString>
        <CharString name="ldot">
          -95 -68 callsubr
          475 -21 hstemhm
          265 160 98 245 -56 callgsubr
          388 612 -92 callgsubr
        </CharString>
        <CharString name="less">
          64 -43 1232 hstem
          142 908 vstem
          143 542 -40 callgsubr
          endchar
        </CharString>
        <CharString name="lessequal">
          64 0 95 hstem
          142 908 vstem
          143 900 -40 callgsubr
          25 -900 rmoveto
          852 hlineto
          11 41 0 13 -11 41 rrcurveto
          -852 hlineto
          -32 callgsubr
        </CharString>
        <CharString name="logicalnot">
          65 532 95 hstem
          880 116 vstem
          206 532 rmoveto
          674 -305 hlineto
          67 49 16 0 hvcurveto
          384 -790 vlineto
          -32 callgsubr
        </CharString>
        <CharString name="lozenge">
          755 -90 1680 hstem
          326 1231 vstem
          342 728 rmoveto
          560 -800 8 -11 48 -28 15 21 rlinecurve
          553 796 18 24 10 23 -14 20 rlinecurve
          -560 800 -12 17 -44 18 -14 -19 rlinecurve
          -557 -796 -13 -13 -14 -29 16 -23 rlinecurve
          112 23 rmoveto
          488 721 483 -723 -485 -720 rlineto
          endchar
        </CharString>
        <CharString name="lslash">
          -445 -68 callsubr
          hstemhm
          265 -41 callgsubr
          hintmask 10100000
          -69 callsubr
          713 vlineto
          170 57 rlineto
          29 -8 36 -23 38 vhcurveto
          -139 -56 rlineto
          hintmask 01100000
          682 vlineto
          hintmask 10100000
          -55 callsubr
          hintmask 01100000
          157 -40 rlineto
          -530 vlineto
          -160 -51 -2 -34 14 -42 23 -26 rlinecurve
          125 50 rlineto
          -655 -35 callsubr
          endchar
        </CharString>
        <CharString name="m">
          915 0 -27 callgsubr
          hstemhm
          298 160 513 161 489 -41 callgsubr
          hintmask 11001110
          156 -33 callgsubr
          -4 -53 callgsubr
          692 vlineto
          0 155 77 153 157 48 -104 -134 vhcurveto
          -531 vlineto
          -144 -48 callsubr
          463 hlineto
          13 80 -7 14 -159 34 rlineto
          578 vlineto
          hintmask 10101110
          40 -7 41 -8 38 vhcurveto
          hintmask 10011110
          16 35 133 56 134 hhcurveto
          155 47 -104 -134 hvcurveto
          -531 vlineto
          -143 -48 callsubr
          477 hlineto
          13 80 -8 14 -174 34 rlineto
          578 vlineto
          211 -110 131 -206 -157 -214 -146 -5 -5 vhcurveto
          hintmask 11001110
          -40 callsubr
          endchar
        </CharString>
        <CharString name="macron">
          -448 1209 117 hstem
          23 612 vstem
          29 1209 -75 callgsubr
        </CharString>
        <CharString name="macron.cap">
          -576 1667 118 hstem
          41 472 vstem
          47 1667 -76 callsubr
        </CharString>
        <CharString name="minus">
          -69 532 95 hstem
          86 888 vstem
          94 -15 callsubr
        </CharString>
        <CharString name="mu">
          67 -507 -21 492 13 callsubr
          186 160 474 -41 callgsubr
          hintmask 11010011
          266 68 rmoveto
          hintmask 11000111
          10 4 rlineto
          -58 56 82 -50 107 hhcurveto
          -56 callsubr
          hvcurveto
          9 -2 12 -124 14 -14 273 10 callsubr
          -104 -12 -25 -31 -7 17 28 vhcurveto
          822 vlineto
          -19 7 rlineto
          hintmask 10101011
          -283 -103 -6 -54 6 -12 142 -62 rlineto
          -593 vlineto
          -19 -31 -130 -71 -89 hhcurveto
          -177 -47 103 135 hvcurveto
          667 vlineto
          hintmask 11000111
          -16 9 -243 -89 -9 -55 9 -11 99 -49 rlineto
          -517 vlineto
          0 0 -471 16 -365 vhcurveto
          106 -8 45 57 0 vvcurveto
          -63 183 -12 215 -12 149 rrcurveto
          endchar
        </CharString>
        <CharString name="multiply">
          65 231 688 hstem
          253 688 vstem
          253 304 rmoveto
          12 -30 23 -24 31 -14 272 271 rcurveline
          277 -276 38 19 16 16 19 38 rlinecurve
          -277 276 273 272 -22 38 -9 9 -38 20 rlinecurve
          -271 -271 -271 271 -31 -13 -30 -30 -12 -31 rlinecurve
          270 -271 rlineto
          endchar
        </CharString>
        <CharString name="n">
          236 0 12 callsubr
          513 161 hintmask 00000000
          hintmask 11001100
          -51 callgsubr
          rlineto
          hintmask 10101100
          -4 14 rlineto
          hintmask 10011100
          -41 callsubr
          692 vlineto
          0 155 77 153 157 48 -104 -134 vhcurveto
          -531 vlineto
          -144 -48 callsubr
          476 hlineto
          12 80 -5 14 -173 34 rlineto
          578 vlineto
          hintmask 11001100
          -85 callgsubr
          endchar
        </CharString>
        <CharString name="nacute">
          236 0 -27 callgsubr
          171 409 17 callsubr
          164 401 -52 161 hintmask 00000000
          hintmask 11000101
          -51 callgsubr
          rlineto
          hintmask 10100101
          -4 14 rlineto
          hintmask 10010101
          -41 callsubr
          692 vlineto
          0 155 77 153 157 48 -104 -134 vhcurveto
          -531 vlineto
          -144 -48 callsubr
          476 hlineto
          12 80 -5 14 -173 34 rlineto
          578 vlineto
          hintmask 11000101
          -85 callgsubr
          hintmask 00001010
          541 1095 -102 callsubr
        </CharString>
        <CharString name="nbspace">
          -648 endchar
        </CharString>
        <CharString name="ncaron">
          236 0 -27 callgsubr
          178 150 189 23 callgsubr
          -86 671 -72 161 -31 callsubr
          hintmask 1100001010000000
          -51 callgsubr
          rlineto
          hintmask 1010001010000000
          -4 14 rlineto
          hintmask 1001001010000000
          -41 callsubr
          692 vlineto
          0 155 77 153 157 48 -104 -134 vhcurveto
          -531 vlineto
          -144 -48 callsubr
          476 hlineto
          12 80 -5 14 -173 34 rlineto
          578 vlineto
          hintmask 1100001010000000
          -85 callgsubr
          hintmask 0000110100000000
          467 1102 -97 callgsubr
        </CharString>
        <CharString name="ncommaaccent">
          236 -2 callsubr
          12 callsubr
          210 170 133 161 hintmask 00000000
          hintmask 01100101
          -51 callgsubr
          rlineto
          hintmask 01010101
          -4 14 rlineto
          hintmask 01001101
          -41 callsubr
          692 vlineto
          0 155 77 153 157 48 -104 -134 vhcurveto
          -531 vlineto
          -144 -48 callsubr
          476 hlineto
          12 80 -5 14 -173 34 rlineto
          578 vlineto
          hintmask 01100101
          -85 callgsubr
          hintmask 10000010
          427 -266 -101 callgsubr
        </CharString>
        <CharString name="nine">
          67 175 146 666 108 hstem
          112 165 626 191 vstem
          294 -278 rmoveto
          -14 -50 32 -49 0 vvcurveto
          359 85 423 328 539 vvcurveto
          273 -157 247 -330 -289 -206 -233 -259 -250 154 -178 228 160 132 150 115 57 vhcurveto
          29 -7 -14 19 -33 hhcurveto
          -79 -45 -57 -88 -112 hhcurveto
          -174 -124 115 247 158 110 146 166 196 154 -156 -287 -488 -333 -256 -276 -78 hvcurveto
          endchar
        </CharString>
        <CharString name="notequal">
          65 357 94 252 94 228 -20 hstem
          153 888 -727 553 vstem
          314 103 rmoveto
          21 -23 31 -14 33 -3 143 294 rcurveline
          491 hlineto
          11 39 0 15 -11 40 rrcurveto
          -445 hlineto
          122 252 rlineto
          323 15 callsubr
          -277 hlineto
          111 228 -30 27 -14 6 -40 7 rlinecurve
          -131 -268 rlineto
          -491 hlineto
          -11 -31 0 -32 11 -31 rrcurveto
          445 hlineto
          -122 -252 rlineto
          -323 hlineto
          -11 -31 0 -33 11 -30 rrcurveto
          277 hlineto
          endchar
        </CharString>
        <CharString name="ntilde">
          236 0 -27 callgsubr
          231 -3 callsubr
          271 160 -114 727 -100 161 -31 callsubr
          hintmask 1100000101000000
          -51 callgsubr
          rlineto
          hintmask 1010000101000000
          -4 14 rlineto
          hintmask 1001000101000000
          -41 callsubr
          692 vlineto
          0 155 77 153 157 48 -104 -134 vhcurveto
          -531 vlineto
          -144 -48 callsubr
          476 hlineto
          12 80 -5 14 -173 34 rlineto
          578 vlineto
          hintmask 1100000101000000
          -85 callgsubr
          -31 callsubr
          246 1135 rmoveto
          hintmask 0000101010000000
          -80 callgsubr
          hintmask 0000010010000000
          -82 callsubr
        </CharString>
        <CharString name="numbersign">
          233 -10 -21 433 119 304 117 hstem
          114 1132 vstem
          266 -31 rmoveto
          23 -9 40 -14 27 2 104 454 rcurveline
          331 hlineto
          -98 -433 24 -9 41 -14 27 2 rlinecurve
          104 454 rlineto
          219 hlineto
          36 55 -13 64 0 vvcurveto
          -215 hlineto
          69 304 rlineto
          236 hlineto
          34 54 -10 63 0 vvcurveto
          -233 hlineto
          87 377 rlineto
          14 -22 -44 7 -28 hhcurveto
          -91 -398 rlineto
          -331 hlineto
          87 377 rlineto
          14 -22 -43 7 -29 hhcurveto
          -90 -398 rlineto
          -229 hlineto
          -34 -38 0 -42 11 -37 rrcurveto
          225 hlineto
          -68 -304 rlineto
          -246 hlineto
          -36 -38 0 -43 13 -38 rrcurveto
          242 hlineto
          123 119 rmoveto
          69 304 rlineto
          331 hlineto
          -69 -304 rlineto
          endchar
        </CharString>
        <CharString name="o">
          -54 callsubr
          hstem
          88 178 663 178 vstem
          -104 callgsubr
          endchar
        </CharString>
        <CharString name="oacute">
          -54 callsubr
          -17 callsubr
          88 178 247 401 15 178 hintmask 11010100
          -104 callgsubr
          hintmask 00101000
          332 634 -102 callsubr
        </CharString>
        <CharString name="obreve">
          -54 callsubr
          163 3 callgsubr
          88 178 36 591 36 178 hintmask 11001010
          -104 callgsubr
          hintmask 00110100
          333 665 -95 callgsubr
        </CharString>
        <CharString name="ocircumflex">
          -54 callsubr
          407 158 31 callsubr
          -37 715 -15 178 hintmask 11010100
          -104 callgsubr
          hintmask 00101000
          30 634 -106 callsubr
        </CharString>
        <CharString name="odieresis">
          -54 callsubr
          160 238 31 callsubr
          0 664 -1 178 hintmask 11010100
          -104 callgsubr
          hintmask 00101000
          540 662 -94 callsubr
        </CharString>
        <CharString name="oe">
          914 -36 112 -112 156 408 96 313 111 hstemhm
          134 179 662 230 521 182 hintmask 00000000
          hintmask 10111110
          134 485 rmoveto
          -287 196 -234 294 196 171 108 171 92 vhcurveto
          -167 73 154 -112 200 hhcurveto
          185 191 189 0 hvcurveto
          -5 54 -51 20 0 vvcurveto
          0 -113 -107 -139 -172 -197 141 271 -4 vhcurveto
          0 154 -4 127 262 143 11 14 8 vhcurveto
          0 9 24 61 vvcurveto
          hintmask 01111110
          216 -116 194 -240 -184 -167 -115 -175 -91 vhcurveto
          188 -67 -186 102 -191 hhcurveto
          hintmask 10111110
          -287 -245 -248 -315 hvcurveto
          1077 139 rmoveto
          207 25 126 106 133 hhcurveto
          137 94 -162 -132 hvcurveto
          -9 -65 -140 -10 -233 hhcurveto
          -975 -78 rmoveto
          269 120 122 196 153 193 -191 -287 -273 -125 -7 callsubr
          -168 -188 198 272 vhcurveto
          endchar
        </CharString>
        <CharString name="ogonek">
          -556 28 callgsubr
          381 -21 hstem
          76 162 vstem
          285 hmoveto
          0 -209 -81 callsubr
          160 176 116 9 5 hvcurveto
          -66 30 rlineto
          endchar
        </CharString>
        <CharString name="ograve">
          -54 callsubr
          -17 callsubr
          88 178 15 401 247 178 hintmask 11010100
          -104 callgsubr
          hintmask 00101000
          331 634 -91 callgsubr
        </CharString>
        <CharString name="ohungarumlaut">
          -54 callsubr
          469 -20 31 callsubr
          -19 701 -19 178 hintmask 11010100
          -104 callgsubr
          hintmask 00101000
          77 615 -84 callgsubr
        </CharString>
        <CharString name="omacron">
          -54 callsubr
          161 117 31 callsubr
          15 612 36 178 hintmask 11010100
          -104 callgsubr
          hintmask 00101000
          21 663 -75 callgsubr
        </CharString>
        <CharString name="one">
          -278 -68 callsubr
          hstemhm
          378 -41 callgsubr
          hintmask 10100000
          116 9 rmoveto
          hintmask 01100000
          -23 callsubr
          hintmask 10100000
          644 -77 callgsubr
          -233 34 rlineto
          hintmask 01100000
          776 vlineto
          43 167 -25 26 -444 -155 -11 -86 7 -14 270 49 rlineto
          -763 vlineto
          -253 -43 rlineto
          endchar
        </CharString>
        <CharString name="onehalf">
          918 -125 1761 -925 24 callgsubr
          -42 1041 hintmask 10000100
          398 -78 -71 callgsubr
          hintmask 00000000
          -1238 -925 rmoveto
          hintmask 01011000
          -66 callgsubr
          hintmask 01101000
          1057 -721 rmoveto
          604 hlineto
          -18 215 rlineto
          0 -11 4 -25 -27 -2 -7 0 vhcurveto
          -29 -96 rlineto
          -20 -7 -77 -14 -273 hhcurveto
          271 182 146 127 188 vvcurveto
          133 -94 85 -151 -166 -128 -130 0 vhcurveto
          2 -41 49 -23 0 vvcurveto
          0 102 82 74 92 52 -63 -88 -94 -68 -138 -339 -236 vhcurveto
          0 -7 -9 -17 vvcurveto
          -30 30 -10 0 vhcurveto
          endchar
        </CharString>
        <CharString name="onequarter">
          918 -125 1761 -1634 73 636 100 697 -20 hstemhm
          283 157 -42 1041 38 146 hintmask 01000010
          973 78 rmoveto
          4 -42 32 -34 0 vvcurveto
          468 -203 hlineto
          85 6 61 35 0 vvcurveto
          162 159 vlineto
          22 36 -4 65 0 vvcurveto
          0 -81 -13 -96 -5 vhcurveto
          320 vlineto
          0 -102 -19 -44 -26 vhcurveto
          -280 vlineto
          -367 -10 96 116 259 318 97 155 rlinecurve
          0 -50 52 -80 28 vhcurveto
          -137 -263 -176 -247 -146 -151 rrcurveto
          hintmask 10000100
          -575 -156 -71 callgsubr
          hintmask 00000000
          -1238 -925 rmoveto
          hintmask 00111000
          -66 callgsubr
          endchar
        </CharString>
        <CharString name="onesuperior">
          -447 711 24 callgsubr
          hintmask 00000000
          hintmask 10110000
          121 711 rmoveto
          hintmask 11010000
          -66 callgsubr
          endchar
        </CharString>
        <CharString name="ordfeminine">
          -276 654 90 17 12 180 76 0 -20 239 78 hstemhm
          146 135 228 123 hintmask 00000000
          hintmask 10011110
          365 654 rmoveto
          53 54 41 38 45 hvcurveto
          11 -66 12 -17 191 66 13 45 -9 12 rlineto
          0 -65 -7 -27 -9 -2 9 18 vhcurveto
          314 vlineto
          141 -61 78 -151 -96 -130 -66 0 -35 35 -16 -15 callgsubr
          106 39 61 vhcurveto
          hintmask 11101110
          80 33 -61 -104 hvcurveto
          -54 vlineto
          -7 -28 -4 -7 -35 hvcurveto
          -118 -18 rlineto
          -130 -18 -45 -38 -92 vvcurveto
          -94 71 -104 148 vhcurveto
          15 90 rmoveto
          hintmask 10011110
          -59 -40 61 55 54 21 21 47 7 hvcurveto
          9 54 87 2 19 hhcurveto
          -150 vlineto
          hintmask 11101110
          4 hlineto
          -23 -32 -59 -36 -42 hhcurveto
          endchar
        </CharString>
        <CharString name="ordmasculine">
          -275 654 69 535 68 hstem
          100 134 385 135 vstem
          415 654 rmoveto
          186 153 149 200 184 -117 139 -196 -184 -157 -153 -196 -179 124 -144 191 hvcurveto
          28 69 rmoveto
          -99 -110 122 170 167 70 76 113 92 110 -118 -179 -170 -70 -68 -106 hvcurveto
          endchar
        </CharString>
        <CharString name="oslash">
          -54 callsubr
          hstem
          88 178 663 178 vstem
          170 -43 rmoveto
          0 26 -49 64 -11 vhcurveto
          87 121 rlineto
          -32 65 79 -22 87 hhcurveto
          289 240 241 321 155 -52 134 -92 95 hvcurveto
          90 124 rlineto
          0 -18 54 -69 4 vhcurveto
          -82 -117 rlineto
          47 -74 -89 26 -102 hhcurveto
          -286 -245 -248 -315 -162 61 -146 108 -97 hvcurveto
          111 144 rmoveto
          -61 82 -41 110 130 vvcurveto
          269 121 122 196 68 78 -40 -68 63 vhcurveto
          -362 -671 rmoveto
          414 606 rlineto
          49 -81 36 -103 -121 vvcurveto
          -273 -126 -7 callsubr
          -66 -68 30 52 -58 vhcurveto
          endchar
        </CharString>
        <CharString name="otilde">
          -54 callsubr
          192 -3 callsubr
          88 178 -31 727 -33 178 hintmask 11000101
          -104 callgsubr
          hintmask 00000000
          37 674 rmoveto
          hintmask 00101010
          -80 callgsubr
          hintmask 00010010
          -82 callsubr
        </CharString>
        <CharString name="p">
          67 -29 callgsubr
          30 callgsubr
          hstemhm
          193 159 582 167 -31 callsubr
          hintmask 1010010110000000
          352 hmoveto
          hintmask 0110001110000000
          -37 callsubr
          hintmask 1010100110000000
          -264 -103 0 callsubr
          140 -64 rlineto
          hintmask 0101100110000000
          -1185 10 callgsubr
          hintmask 1010100110000000
          -49 callgsubr
          endchar
        </CharString>
        <CharString name="paragraph">
          237 1344 128 hstem
          678 144 184 144 vstem
          678 -424 rmoveto
          119 25 47 0 hvcurveto
          1644 vlineto
          184 30 rlineto
          -1721 vlineto
          122 22 47 0 hvcurveto
          1721 vlineto
          142 43 11 -67 callgsubr
          -600 hlineto
          -284 -302 -110 -347 -346 277 -99 289 hvcurveto
          endchar
        </CharString>
        <CharString name="parenleft">
          -275 -434 2061 hstem
          101 146 389 17 vstem
          101 603 rmoveto
          -445 215 -363 320 -229 vhcurveto
          0 99 43 17 103 vhcurveto
          -274 187 -231 306 445 vvcurveto
          415 186 277 220 229 vhcurveto
          49 -36 10 -4 -3 vhcurveto
          -292 -211 -220 -368 -445 vvcurveto
          endchar
        </CharString>
        <CharString name="parenright">
          -275 -431 2061 hstem
          200 17 389 146 vstem
          752 593 rmoveto
          445 -215 363 -320 229 vhcurveto
          0 -99 -43 -17 -103 vhcurveto
          274 -187 231 -306 -445 vvcurveto
          -415 -186 -277 -220 -229 vhcurveto
          -49 36 -10 4 3 vhcurveto
          292 211 220 368 445 vvcurveto
          endchar
        </CharString>
        <CharString name="partialdiff">
          67 -24 107 726 109 505 109 hstem
          111 163 638 153 vstem
          111 367 rmoveto
          -232 18 182 -159 234 hhcurveto
          460 84 516 381 -29 hvcurveto
          357 -26 -150 302 -396 hhcurveto
          -141 -154 -42 -73 -93 hvcurveto
          3 -59 58 -11 0 vvcurveto
          55 80 94 21 96 hhcurveto
          323 109 -251 -287 35 hvcurveto
          22 -70 -72 11 -73 hhcurveto
          -319 -277 -225 -326 24 hvcurveto
          163 51 rmoveto
          262 -20 179 129 193 hhcurveto
          98 102 -31 -58 84 hvcurveto
          2 -44 1 -48 -1 -50 rrcurveto
          -231 -7 -58 -264 -242 hhcurveto
          -181 -137 153 182 -13 hvcurveto
          endchar
        </CharString>
        <CharString name="percent">
          574 1 callsubr
          119 179 45 1041 -737 181 48 178 349 181 hintmask 0111110111000000
          442 758 rmoveto
          212 174 154 232 208 -112 156 -231 -201 -165 29 callgsubr
          209 15 callgsubr
          59 81 90 120 80 -117 -211 -169 -66 -76 -83 hvcurveto
          378 -22 callgsubr
          -200 -164 -159 -230 vhcurveto
          178 28 rmoveto
          189 60 80 88 121 80 -116 -212 -169 -66 -76 -82 -112 -89 113 191 vhcurveto
          hintmask 1000001000000000
          -711 -431 -71 callgsubr
          endchar
        </CharString>
        <CharString name="period">
          -617 0 -21 12 callgsubr
          133 94 -92 callgsubr
        </CharString>
        <CharString name="periodcentered">
          -617 481 -21 12 callgsubr
          133 575 -92 callgsubr
        </CharString>
        <CharString name="perthousand">
          1259 1 callsubr
          72 180 42 1041 -735 182 47 180 348 181 116 178 348 182 hintmask 0111110111110000
          396 758 rmoveto
          211 175 154 232 208 -113 156 -231 -200 -166 29 callgsubr
          210 15 callgsubr
          58 81 90 121 79 -117 -211 -169 -65 -76 -83 hvcurveto
          1202 -22 callgsubr
          -202 -162 -159 -230 vhcurveto
          -825 hmoveto
          -200 113 -161 209 213 174 153 234 207 -113 156 -231 -200 -165 -159 -230 vhcurveto
          1003 28 rmoveto
          189 60 80 88 121 79 -116 -212 -169 -67 -76 -81 -108 -92 113 191 vhcurveto
          -823 hmoveto
          189 58 80 90 119 81 -116 -212 -169 -67 -76 -81 -112 -88 113 191 vhcurveto
          hintmask 1000001000000000
          -715 -431 -71 callgsubr
          endchar
        </CharString>
        <CharString name="pi">
          408 -24 188 791 164 hstem
          469 120 348 131 vstem
          161 114 rmoveto
          3 -53 78 -83 63 -2 53 16 48 24 39 36 92 84 23 65 17 229 21 525 rcurveline
          382 hlineto
          -43 -675 rlineto
          -140 -8 1 -164 135 hhcurveto
          165 86 118 115 40 hvcurveto
          65 -78 12 0 vhcurveto
          -71 -26 -74 -51 -60 hhcurveto
          -19 -31 11 86 hvcurveto
          34 694 172 3 101 66 41 166 rlinecurve
          -16 23 -52 28 -33 -15 rrcurveto
          -81 -41 -69 -26 -89 hhcurveto
          -643 hlineto
          -157 -135 -51 -133 -59 hvcurveto
          22 -42 22 -15 46 1 23 62 106 15 77 -1 rrcurveto
          61 hlineto
          -22 -466 -8 -136 -21 -91 -117 -80 rlinecurve
          -57 -39 -76 -25 -17 -4 rrcurveto
          endchar
        </CharString>
        <CharString name="plus">
          65 532 95 392 -20 hstem
          546 103 vstem
          161 532 rmoveto
          385 -393 hlineto
          40 -11 24 0 39 11 rrcurveto
          393 384 vlineto
          25 callgsubr
          -384 384 hlineto
          -30 11 -42 0 -31 -11 rrcurveto
          -384 -385 vlineto
          -32 callgsubr
        </CharString>
        <CharString name="plusminus">
          65 141 95 440 94 hstem
          546 105 vstem
          546 330 rmoveto
          41 -13 24 0 40 13 rrcurveto
          346 383 vlineto
          13 40 0 14 -13 40 rrcurveto
          -383 385 hlineto
          -31 11 -43 0 -31 -11 rrcurveto
          -385 -383 vlineto
          -12 -31 0 -33 12 -30 rrcurveto
          383 hlineto
          -387 -535 rmoveto
          870 hlineto
          13 41 0 13 -13 41 rrcurveto
          -870 hlineto
          -13 -31 0 -33 13 -31 rrcurveto
          endchar
        </CharString>
        <CharString name="product">
          404 -9 -21 hstem
          24 1330 vstem
          28 -161 -63 callsubr
          465 hlineto
          15 80 -7 14 -142 33 -10 1394 rlineto
          652 hlineto
          10 -1388 -161 -48 -39 callsubr
          490 -77 callgsubr
          -146 34 -11 1406 151 -74 callsubr
          -1307 -89 callgsubr
          139 -34 11 -1406 -143 -43 rlineto
          endchar
        </CharString>
        <CharString name="q">
          67 -519 85 -85 130 353 156 817 111 -16 -6 callsubr
          hstemhm
          105 168 584 -41 callgsubr
          hintmask 01101011
          105 474 rmoveto
          -285 182 -225 308 vhcurveto
          hintmask 10100111
          81 103 67 56 78 hvcurveto
          hintmask 01110011
          -476 vlineto
          -191 -45 -9 -72 5 -13 rlineto
          490 hlineto
          11 81 rlineto
          hintmask 10110011
          -7 14 -139 35 rlineto
          1421 vlineto
          -16 9 rlineto
          hintmask 01110011
          -71 -47 rlineto
          21 -57 -108 33 -134 hhcurveto
          -313 -213 -42 callgsubr
          hvcurveto
          168 63 rmoveto
          243 132 157 192 142 96 -96 -23 22 vhcurveto
          -636 vlineto
          -29 -49 -78 -33 -90 hhcurveto
          -167 -200 143 274 hvcurveto
          endchar
        </CharString>
        <CharString name="question">
          -106 0 -21 1403 126 hstem
          346 118 250 176 vstem
          398 328 rmoveto
          49 -15 36 29 0 vvcurveto
          -14 58 -5 50 44 vvcurveto
          130 57 68 137 85 vhcurveto
          110 68 122 74 176 vvcurveto
          247 -185 166 -249 -211 -133 -108 0 0 0 -121 117 -59 vhcurveto
          0 124 162 175 124 62 -87 -138 -109 -47 -66 -90 -68 vhcurveto
          -130 -96 -101 -95 -165 vvcurveto
          -66 17 -76 35 -88 vhcurveto
          -68 -234 7 callsubr
          -65 -57 vhcurveto
          endchar
        </CharString>
        <CharString name="questiondown">
          -106 -481 126 1382 21 hstem
          133 176 250 118 vstem
          625 699 rmoveto
          -49 15 -36 -29 0 vvcurveto
          14 -58 5 -50 -44 vvcurveto
          -130 -57 -68 -137 -85 vhcurveto
          -110 -68 -122 -74 -176 vvcurveto
          -247 185 -166 249 211 133 108 0 0 0 121 -117 59 vhcurveto
          0 -124 -162 -175 -124 -62 87 138 109 47 66 90 68 vhcurveto
          130 96 101 95 165 vvcurveto
          66 -17 76 -35 88 vhcurveto
          68 234 rmoveto
          61 -65 54 -54 -69 -57 -68 -56 -61 72 -52 56 65 52 65 57 vhcurveto
          endchar
        </CharString>
        <CharString name="quotedbl">
          -275 1508 -20 hstem
          177 169 166 169 vstem
          533 1063 rmoveto
          -18 24 21 -7 20 hhcurveto
          16 16 5 9 17 hvcurveto
          19 83 15 220 124 vvcurveto
          19 -33 -30 10 -34 hhcurveto
          -23 -24 -5 -10 -25 hvcurveto
          8 -85 1 -271 12 -74 rrcurveto
          -270 -25 -44 callgsubr
        </CharString>
        <CharString name="quotedblbase">
          -275 -339 7 callgsubr
          94 -67 callsubr
        </CharString>
        <CharString name="quotedblleft">
          -275 1011 555 hstemhm
          117 160 -23 callgsubr
          hintmask 11000000
          362 1133 rmoveto
          -75 callsubr
          hintmask 10100000
          353 hmoveto
          -75 callsubr
          endchar
        </CharString>
        <CharString name="quotedblright">
          -275 951 7 callgsubr
          1384 -67 callsubr
        </CharString>
        <CharString name="quoteleft">
          -617 1013 555 hstem
          121 160 vstem
          366 1135 rmoveto
          -75 callsubr
          endchar
        </CharString>
        <CharString name="quoteright">
          -617 951 2 callsubr
          1384 -36 callgsubr
          endchar
        </CharString>
        <CharString name="quotesinglbase">
          -617 -339 2 callsubr
          94 -36 callgsubr
          endchar
        </CharString>
        <CharString name="quotesingle">
          -617 1508 -20 hstem
          177 169 vstem
          263 1038 -44 callgsubr
        </CharString>
        <CharString name="r">
          -10 callsubr
          hstemhm
          241 159 hintmask 00000000
          hintmask 10101000
          99 9 rmoveto
          hintmask 10011000
          -87 callgsubr
          hintmask 11001000
          -42 callsubr
          endchar
        </CharString>
        <CharString name="racute">
          -10 callsubr
          171 409 hstemhm
          241 159 5 401 hintmask 00000000
          hintmask 10100100
          99 9 rmoveto
          hintmask 10010100
          -87 callgsubr
          hintmask 11000100
          -42 callsubr
          hintmask 00001010
          382 1095 -102 callsubr
        </CharString>
        <CharString name="radical">
          573 -354 177 hstem
          200 1469 vstem
          259 473 rmoveto
          126 82 388 -909 rlineto
          177 hlineto
          719 2274 rlineto
          -163 hlineto
          -633 -2097 rlineto
          -8 hlineto
          -335 885 rlineto
          -169 hlineto
          -161 -129 rlineto
          endchar
        </CharString>
        <CharString name="rcaron">
          -10 callsubr
          178 3 callsubr
          155 671 -585 159 hintmask 00000000
          hintmask 10100001
          99 9 rmoveto
          hintmask 10010001
          -87 callgsubr
          hintmask 11000001
          -42 callsubr
          hintmask 00001110
          308 1102 -97 callgsubr
        </CharString>
        <CharString name="rcommaaccent">
          -276 -2 callsubr
          9 872 167 30 callgsubr
          hstemhm
          241 159 -127 170 hintmask 00000000
          hintmask 01010100
          99 9 rmoveto
          hintmask 01001100
          -87 callgsubr
          hintmask 01100100
          -42 callsubr
          hintmask 10000010
          90 -266 -101 callgsubr
        </CharString>
        <CharString name="registered">
          -269 944 36 87 19 125 23 134 26 78 36 hstem
          148 44 144 45 117 52 117 45 vstem
          430 944 rmoveto
          165 117 128 153 155 -117 128 -165 -163 -119 -128 -155 -153 119 -128 163 hvcurveto
          36 vmoveto
          -132 -106 106 139 139 106 108 132 134 103 -108 -139 -139 -103 -106 -134 hvcurveto
          -127 87 rmoveto
          127 19 hlineto
          -49 9 rlineto
          116 45 vlineto
          44 -45 12 -80 45 -23 52 4 rcurveline
          4 16 -4 3 -58 19 -4 73 -47 35 rlinecurve
          37 7 43 28 55 vvcurveto
          63 -43 28 -67 vhcurveto
          -133 hlineto
          -4 -19 2 -2 31 -7 rlineto
          -271 vlineto
          -31 -9 -5 -17 rlineto
          81 167 rmoveto
          128 vlineto
          0 21 4 24 44 28 -24 -41 -53 -33 -16 -50 vhcurveto
          -16 -9 2 -9 hhcurveto
          endchar
        </CharString>
        <CharString name="ring">
          -543 1217 93 258 95 hstem
          67 128 211 129 vstem
          295 1217 -73 callgsubr
        </CharString>
        <CharString name="ring.cap">
          -576 1597 90 245 90 hstem
          61 118 194 119 vstem
          271 1597 -73 callsubr
        </CharString>
        <CharString name="s">
          -9 callsubr
          hstem
          122 150 355 150 vstem
          -100 callsubr
          endchar
        </CharString>
        <CharString name="sacute">
          -9 callsubr
          -17 callsubr
          122 150 66 401 -112 150 hintmask 11010100
          -100 callsubr
          hintmask 00101000
          336 1140 -102 callsubr
        </CharString>
        <CharString name="scaron">
          -9 callsubr
          139 3 callsubr
          88 671 -637 150 355 150 hintmask 11000110
          -100 callsubr
          hintmask 00111000
          262 1147 -97 callgsubr
        </CharString>
        <CharString name="scedilla">
          -275 -8 callsubr
          70 104 876 104 hstemhm
          122 150 230 165 -40 150 hintmask 11111100
          87 40 rmoveto
          0 72 -55 155 -16 vhcurveto
          -56 -132 rlineto
          -94 callgsubr
          31 90 rlineto
          hintmask 11111010
          176 22 132 109 159 350 -505 -60 256 vvcurveto
          76 52 63 78 104 87 -45 -54 70 vhcurveto
          69 67 12 91 0 vvcurveto
          0 -106 45 -160 -198 -158 -125 -170 vhcurveto
          -360 505 78 -259 vvcurveto
          -102 -86 -42 -92 -103 -110 62 63 -76 vhcurveto
          -19 callsubr
          endchar
        </CharString>
        <CharString name="scircumflex">
          -9 callsubr
          407 158 hstemhm
          54 715 -647 150 355 150 hintmask 11001100
          -100 callsubr
          hintmask 00110000
          34 1140 -106 callsubr
        </CharString>
        <CharString name="scommaaccent">
          -275 -513 -21 498 104 876 104 hstemhm
          122 150 116 170 69 150 hintmask 01110100
          -100 callsubr
          hintmask 10001000
          226 -221 -101 callgsubr
        </CharString>
        <CharString name="section">
          -105 -261 108 1493 109 hstemhm
          138 136 -104 156 379 155 -115 140 hintmask 11101000
          143 -155 rmoveto
          0 133 -106 198 236 150 110 205 83 -38 66 -57 57 vhcurveto
          hintmask 11010100
          37 25 83 72 140 360 -559 73 248 vvcurveto
          108 87 54 92 94 97 -75 -83 68 vhcurveto
          71 71 2 94 0 vvcurveto
          0 -89 102 -198 -209 -171 -125 -191 -82 36 -66 54 -57 vhcurveto
          hintmask 11101000
          -34 -23 -88 -74 -146 -368 567 -61 -247 vvcurveto
          -115 -72 -47 -95 -132 -122 81 81 -69 vhcurveto
          -70 -70 -2 -94 0 vvcurveto
          565 465 rmoveto
          -173 138 -261 94 207 vvcurveto
          73 25 40 14 17 vhcurveto
          hintmask 11100100
          170 -141 262 -95 -205 vvcurveto
          -70 -22 -39 -15 -19 vhcurveto
          endchar
        </CharString>
        <CharString name="semicolon">
          -617 -339 1222 -238 238 hstemhm
          145 245 -159 159 hintmask 01100000
          -10 callgsubr
          -108 -551 rmoveto
          hintmask 10010000
          -76 86 3 -120 vvcurveto
          -74 -104 -51 callsubr
          47 -11 vhcurveto
          0 223 141 274 vvcurveto
          63 -61 77 -65 vhcurveto
          hintmask 01100000
          -55 -64 -70 -52 hvcurveto
          endchar
        </CharString>
        <CharString name="seven">
          67 917 131 -87 87 hstemhm
          115 987 hintmask 01100000
          316 -315 rmoveto
          68 -71 109 -3 0 vvcurveto
          257 787 352 563 0 vvcurveto
          48 -5 4 -20 35 vhcurveto
          -962 hlineto
          37 -347 rlineto
          45 -6 33 11 0 vvcurveto
          31 144 rlineto
          hintmask 10100000
          9 45 14 9 650 13 rrcurveto
          0 -269 -474 -349 -758 vhcurveto
          endchar
        </CharString>
        <CharString name="six">
          67 -36 108 620 146 hstemhm
          114 188 581 22 23 163 hintmask 00000000
          hintmask 11111000
          114 485 rmoveto
          -273 177 -248 302 295 203 234 259 vhcurveto
          hintmask 11101000
          221 -138 160 -232 -161 -151 -122 -96 -56 vhcurveto
          -29 7 13 -18 34 hhcurveto
          54 45 78 65 112 hhcurveto
          161 125 -101 -214 -159 -109 -146 -172 -190 -155 157 287 437 330 218 269 72 hvcurveto
          15 50 -33 49 0 vvcurveto
          hintmask 11111000
          -354 -79 -415 -290 -488 vvcurveto
          endchar
        </CharString>
        <CharString name="slash">
          21 callsubr
          84 -128 rmoveto
          -13 24 47 -21 28 hhcurveto
          589 1733 rlineto
          18 -21 -52 18 -29 hhcurveto
          endchar
        </CharString>
        <CharString name="space">
          -447 endchar
        </CharString>
        <CharString name="sterling">
          236 -43 156 -128 -21 36 160 528 108 593 117 hstemhm
          106 1153 hintmask 00000000
          hintmask 01111100
          108 47 rmoveto
          0 -15 -61 40 -22 vhcurveto
          7 128 155 29 113 hhcurveto
          hintmask 10011100
          134 149 -43 125 hhcurveto
          221 101 238 0 0 0 38 -61 21 hvcurveto
          hintmask 01111100
          0 -90 -141 -134 vhcurveto
          -118 -125 47 -113 hhcurveto
          -65 -71 -38 -19 -43 hvcurveto
          -5 14 90 76 56 108 15 115 rlinecurve
          30 272 rlineto
          295 hlineto
          24 26 9 30 26 vvcurveto
          2 21 -4 14 0 vvcurveto
          0 -205 -9 -109 vhcurveto
          28 279 rlineto
          222 24 77 92 67 hhcurveto
          131 66 -69 0 hvcurveto
          75 54 12 97 0 vvcurveto
          0 -73 35 -110 -274 -155 -209 -267 -31 vhcurveto
          -22 -227 -153 -42 rlineto
          0 -15 -17 -5 -25 vhcurveto
          -11 2 -11 -9 vvcurveto
          158 hlineto
          -35 -315 -24 -201 -112 -100 -160 -25 rlinecurve
          endchar
        </CharString>
        <CharString name="summation">
          404 -179 117 1505 109 hstemhm
          188 1140 -87 82 hintmask 11100000
          188 -117 rmoveto
          11 -27 11 -24 14 -11 1104 -1 rcurveline
          -9 360 rlineto
          hintmask 11010000
          -45 10 -33 -10 0 vvcurveto
          -85 -233 -702 -16 529 749 -549 768 682 -12 58 -182 rlineto
          0 38 -12 45 7 vhcurveto
          34 304 rlineto
          -1037 hlineto
          -23 -34 -59 -22 11 hvcurveto
          561 -795 rlineto
          endchar
        </CharString>
        <CharString name="t">
          9 callsubr
          hstem
          208 163 vstem
          -92 callsubr
          endchar
        </CharString>
        <CharString name="tbar">
          -276 -36 153 494 118 168 118 hstem
          73 551 -416 163 vstem
          208 268 rmoveto
          -167 78 -137 191 120 172 130 0 0 0 47 -40 23 vhcurveto
          0 -110 -47 -119 -79 -50 72 87 vhcurveto
          335 vlineto
          227 4 17 21 16 40 -11 57 rlinecurve
          -249 -4 rlineto
          168 326 vlineto
          22 26 2 30 27 vvcurveto
          20 -2 18 callsubr
          -247 -10 -101 vhcurveto
          287 -68 vlineto
          -73 -270 -146 -51 rlineto
          0 -15 -15 -28 vvcurveto
          -9 2 -9 6 -13 vhcurveto
          131 -170 hlineto
          -109 -1 -14 -22 -22 -57 15 -40 rlinecurve
          130 2 rlineto
          endchar
        </CharString>
        <CharString name="tcaron">
          9 callsubr
          69 555 hstemhm
          208 163 227 160 hintmask 11010000
          -92 callsubr
          hintmask 00101000
          305 620 -36 callgsubr
          endchar
        </CharString>
        <CharString name="tcommaaccent">
          -276 -513 -21 498 153 780 118 hstemhm
          208 163 -6 170 hintmask 01110000
          -92 callsubr
          hintmask 10001000
          82 -1078 -101 callgsubr
        </CharString>
        <CharString name="thorn">
          65 -29 callgsubr
          hstemhm
          168 159 582 167 hintmask 00000000
          hintmask 10101110
          327 hmoveto
          -18 67 77 -18 83 hhcurveto
          311 211 -43 callsubr
          hvcurveto
          hintmask 01011110
          -113 -110 -66 -59 -79 hvcurveto
          669 vlineto
          -16 10 -303 -114 rlineto
          hintmask 01101110
          -7 -54 7 -14 160 -40 rlineto
          -1769 10 callgsubr
          488 hlineto
          11 81 -4 14 -201 35 rlineto
          596 vmoveto
          629 vlineto
          26 -26 callgsubr
          endchar
        </CharString>
        <CharString name="three">
          -106 -372 101 615 87 537 127 hstemhm
          638 202 -102 195 hintmask 11101000
          188 -158 rmoveto
          -40 -42 -11 -68 -36 vvcurveto
          -9 vlineto
          -40 49 100 -19 77 hhcurveto
          292 278 169 293 160 -80 162 -302 19 hvcurveto
          hintmask 11110000
          170 80 119 116 162 vvcurveto
          175 -133 131 -215 -221 -139 -134 0 vhcurveto
          5 -64 61 -23 0 vvcurveto
          0 96 94 148 128 68 -94 -106 -200 -212 -104 -125 -37 vhcurveto
          0 -2 -11 -14 vvcurveto
          -18 4 -29 20 -30 vhcurveto
          10 34 43 9 62 hhcurveto
          hintmask 11101000
          131 145 -87 -209 -177 -136 -142 -162 -85 -99 47 66 -68 hvcurveto
          endchar
        </CharString>
        <CharString name="threequarters">
          918 -125 1761 -1634 73 603 73 335 58 276 88 hstemhm
          398 1041 -987 177 -132 168 812 146 -31 callsubr
          hintmask 0111100110000000
          348 678 rmoveto
          175 142 120 146 85 -22 101 -180 14 hvcurveto
          92 45 74 61 78 vvcurveto
          97 -94 83 -146 -149 -82 -92 0 vhcurveto
          hintmask 0111101010000000
          14 -43 30 -14 0 vvcurveto
          0 64 61 76 78 32 -56 -59 -109 -117 -39 -69 -22 vhcurveto
          -14 0 -26 26 -21 vhcurveto
          9 40 26 3 21 hhcurveto
          59 59 -57 -108 -78 -47 -92 -59 -99 -74 99 0 hvcurveto
          hintmask 0111100110000000
          0 -65 -43 -16 -49 vhcurveto
          0 77 -80 134 vhcurveto
          625 -600 rmoveto
          4 -42 32 -34 0 vvcurveto
          468 -203 hlineto
          85 6 61 35 0 vvcurveto
          162 159 vlineto
          22 36 -4 65 0 vvcurveto
          0 -81 -13 -96 -5 vhcurveto
          320 vlineto
          0 -102 -19 -44 -26 vhcurveto
          -280 vlineto
          -367 -10 96 116 259 318 97 155 rlinecurve
          0 -50 52 -80 28 vhcurveto
          -137 -263 -176 -247 -146 -151 rrcurveto
          hintmask 1000010000000000
          -575 -156 -71 callgsubr
          endchar
        </CharString>
        <CharString name="threesuperior">
          -445 678 73 335 58 276 88 hstemhm
          382 176 -131 166 hintmask 00000000
          hintmask 11101000
          278 678 rmoveto
          174 141 120 146 85 -20 101 -180 14 hvcurveto
          92 45 73 61 78 vvcurveto
          97 -95 83 -146 -148 -82 -92 0 vhcurveto
          hintmask 11110000
          14 -43 31 -14 0 vvcurveto
          0 63 61 76 77 34 -56 -59 -109 -119 -39 -68 -22 vhcurveto
          -14 0 -26 27 -21 vhcurveto
          9 39 26 3 21 hhcurveto
          59 60 -57 -108 -78 -48 -92 -58 -99 -74 99 0 hvcurveto
          hintmask 11101000
          0 -65 -43 -17 -49 vhcurveto
          0 78 -80 134 vhcurveto
          endchar
        </CharString>
        <CharString name="tilde">
          -250 1240 -3 callsubr
          76 727 hintmask 00000000
          hintmask 10110000
          144 1220 rmoveto
          hintmask 01010000
          -80 callgsubr
          hintmask 10110000
          -82 callsubr
        </CharString>
        <CharString name="tilde.cap">
          -576 1728 22 callsubr
          -87 728 hintmask 00000000
          hintmask 10100000
          -18 1710 rmoveto
          hintmask 01100000
          -80 callsubr
          hintmask 10100000
          -81 callgsubr
        </CharString>
        <CharString name="trademark">
          748 961 44 -44 64 -64 66 -66 68 -68 71 -27 20 515 62 -13 13 hstemhm
          389 115 416 83 -31 callsubr
          hintmask 0100001011000000
          825 961 rmoveto
          234 hlineto
          hintmask 1000001011000000
          7 39 rlineto
          hintmask 0001001011000000
          -5 11 -17 4 -30 5 -22 5 rlinecurve
          24 402 241 -447 rlineto
          27 33 14 17 10 hvcurveto
          209 421 8 -146 9 -118 7 -143 rlinecurve
          -73 -20 -5 -44 rlineto
          276 hlineto
          7 39 rlineto
          hintmask 0000101011000000
          -5 11 rlineto
          hintmask 0100000111000000
          -80 14 -28 513 90 14 9 37 -14 13 rlineto
          -219 hlineto
          -221 -465 rlineto
          hintmask 0010001011000000
          -245 465 rlineto
          -204 hlineto
          -7 -40 5 -10 87 -14 -25 -511 rlineto
          hintmask 1000001011000000
          -78 -22 rlineto
          hintmask 0100001011000000
          -549 -44 rmoveto
          328 hlineto
          hintmask 1000001011000000
          7 44 -112 24 rlineto
          hintmask 0000011011000000
          511 97 vlineto
          71 10 -14 -77 33 hvcurveto
          0 40 0 25 14 vhcurveto
          -35 139 rlineto
          hintmask 0100001011000000
          -596 hlineto
          hintmask 1000001011000000
          -38 -139 rlineto
          hintmask 0100000111000000
          24 -14 41 0 0 vvcurveto
          77 32 12 14 73 hhcurveto
          96 -508 hlineto
          -108 -21 -4 -40 rlineto
          endchar
        </CharString>
        <CharString name="two">
          63 0 108 841 146 hstem
          744 207 vstem
          132 101 rmoveto
          -7 -70 42 -31 0 vvcurveto
          892 hlineto
          -33 323 rlineto
          -47 5 -35 -11 0 vvcurveto
          -40 -162 rlineto
          -27 -7 -106 -20 -452 hhcurveto
          454 323 158 131 222 vvcurveto
          198 -166 113 -198 -254 -196 -172 0 -51 66 -41 -15 callgsubr
          132 118 185 142 82 -97 -113 -143 -101 -152 -511 -343 vhcurveto
          endchar
        </CharString>
        <CharString name="twosuperior">
          -275 711 82 130 7 466 112 hstem
          529 168 vstem
          145 711 rmoveto
          604 hlineto
          -18 215 rlineto
          0 -11 4 -25 -27 -2 -7 0 vhcurveto
          -29 -96 rlineto
          -20 -7 -77 -14 -273 hhcurveto
          271 182 146 127 188 vvcurveto
          133 -94 85 -151 -166 -128 -130 0 vhcurveto
          2 -41 49 -23 0 vvcurveto
          0 102 82 74 92 52 -63 -88 -94 -68 -138 -339 -236 vhcurveto
          0 -7 -9 -17 vvcurveto
          -30 30 -10 0 vhcurveto
          endchar
        </CharString>
        <CharString name="u">
          67 -36 13 callsubr
          193 160 474 -41 callgsubr
          hintmask 10100110
          193 308 rmoveto
          hintmask 10001110
          -209 120 -135 215 -56 callsubr
          vhcurveto
          9 -2 12 -124 14 -14 273 10 callsubr
          -104 -12 -25 vhcurveto
          hintmask 01010110
          -31 -7 17 28 hvcurveto
          822 vlineto
          -19 7 -283 -103 -6 -54 6 -12 142 -62 rlineto
          -593 vlineto
          hintmask 10001110
          -19 -31 -130 -71 -89 hhcurveto
          -177 -47 103 135 hvcurveto
          667 vlineto
          -16 9 -243 -89 -9 -55 9 -11 99 -49 rlineto
          endchar
        </CharString>
        <CharString name="uacute">
          67 -36 -79 callgsubr
          171 409 -16 callsubr
          148 401 -75 -104 callsubr
          393 355 -102 callsubr
        </CharString>
        <CharString name="ubreve">
          67 -36 -79 callgsubr
          202 3 callgsubr
          193 160 -63 591 -54 160 -31 callsubr
          hintmask 1010000101000000
          193 308 rmoveto
          hintmask 1000100101000000
          -209 120 -135 215 -56 callsubr
          vhcurveto
          9 -2 12 -124 14 -14 273 10 callsubr
          -104 -12 -25 vhcurveto
          hintmask 0101000101000000
          -31 -7 17 28 hvcurveto
          822 vlineto
          -19 7 -283 -103 -6 -54 6 -12 142 -62 rlineto
          -593 vlineto
          hintmask 1000100101000000
          -19 -31 -130 -71 -89 hhcurveto
          -177 -47 103 135 hvcurveto
          667 vlineto
          -16 9 -243 -89 -9 -55 9 -11 99 -49 rlineto
          hintmask 0000011010000000
          394 386 -95 callgsubr
        </CharString>
        <CharString name="ucircumflex">
          67 -36 -79 callgsubr
          446 158 -16 callsubr
          -136 715 -105 -104 callsubr
          91 355 -106 callsubr
        </CharString>
        <CharString name="udieresis">
          67 -36 -79 callgsubr
          199 238 -16 callsubr
          -99 664 -91 -104 callsubr
          601 383 -94 callsubr
        </CharString>
        <CharString name="ugrave">
          67 -36 -79 callgsubr
          171 409 -16 callsubr
          -84 401 157 -104 callsubr
          392 355 -91 callgsubr
        </CharString>
        <CharString name="uhungarumlaut">
          67 -36 -79 callgsubr
          508 -20 -16 callsubr
          -118 701 -109 -104 callsubr
          138 336 -84 callgsubr
        </CharString>
        <CharString name="umacron">
          67 -36 -79 callgsubr
          200 117 -16 callsubr
          -84 612 -54 -104 callsubr
          82 384 -75 callgsubr
        </CharString>
        <CharString name="underscore">
          -107 -314 94 hstem
          -18 1058 vstem
          -10 -220 rmoveto
          -11 -31 0 -32 11 -31 rrcurveto
          1042 15 callsubr
          endchar
        </CharString>
        <CharString name="uni0001">
          -11 callgsubr
        </CharString>
        <CharString name="uni0002">
          -11 callgsubr
        </CharString>
        <CharString name="uni0003">
          -11 callgsubr
        </CharString>
        <CharString name="uni0004">
          -11 callgsubr
        </CharString>
        <CharString name="uni0005">
          -11 callgsubr
        </CharString>
        <CharString name="uni0006">
          -11 callgsubr
        </CharString>
        <CharString name="uni0007">
          -11 callgsubr
        </CharString>
        <CharString name="uni0008">
          -11 callgsubr
        </CharString>
        <CharString name="uni0009">
          -11 callgsubr
        </CharString>
        <CharString name="uni0010">
          -11 callgsubr
        </CharString>
        <CharString name="uni0011">
          -11 callgsubr
        </CharString>
        <CharString name="uni0012">
          -11 callgsubr
        </CharString>
        <CharString name="uni0013">
          -11 callgsubr
        </CharString>
        <CharString name="uni0014">
          -11 callgsubr
        </CharString>
        <CharString name="uni0015">
          -11 callgsubr
        </CharString>
        <CharString name="uni0016">
          -11 callgsubr
        </CharString>
        <CharString name="uni0017">
          -11 callgsubr
        </CharString>
        <CharString name="uni0018">
          -11 callgsubr
        </CharString>
        <CharString name="uni0019">
          -11 callgsubr
        </CharString>
        <CharString name="uni00AD">
          -38 callsubr
        </CharString>
        <CharString name="uni1E02">
          14 callgsubr
          -16 callgsubr
          249 187 84 245 207 198 -123 199 hintmask 00000000
          hintmask 11101001
          109 -76 callgsubr
          573 hlineto
          254 305 108 323 203 -97 144 -226 35 hvcurveto
          12 vlineto
          hintmask 11101010
          -14 callgsubr
          hintmask 11101001
          -57 callgsubr
          hintmask 11101010
          -6 callgsubr
          hintmask 00010100
          205 1494 -90 callgsubr
        </CharString>
        <CharString name="uni1E03">
          65 -36 112 819 153 100 -21 397 -20 hstemhm
          168 159 333 245 4 167 hintmask 11011010
          -71 callsubr
          hintmask 00100100
          333 1035 -92 callgsubr
        </CharString>
        <CharString name="uni1E0A">
          0 130 1245 25 callsubr
          196 184 268 245 303 202 hintmask 11010100
          -86 callgsubr
          hintmask 00101000
          389 1485 -90 callgsubr
        </CharString>
        <CharString name="uni1E0B">
          66 -21 callsubr
          100 -21 hstemhm
          105 168 35 245 308 159 hintmask 00000000
          hintmask 10101010
          -70 callsubr
          hintmask 01101010
          -47 callsubr
          hintmask 10101010
          -83 callgsubr
          hintmask 00010100
          35 705 -92 callgsubr
        </CharString>
        <CharString name="uni1E1E">
          232 -68 callsubr
          536 119 592 25 callsubr
          260 189 124 245 103 77 hintmask 10110101
          107 -76 callgsubr
          546 -77 callgsubr
          rlineto
          hintmask 01110101
          -62 callsubr
          hintmask 10110101
          -30 callgsubr
          rlineto
          hintmask 00001010
          578 1553 -90 callgsubr
        </CharString>
        <CharString name="uni1E1F">
          -446 0 9 888 11 callsubr
          17 -21 hstemhm
          176 245 -206 160 hintmask 11100100
          73 9 -103 callsubr
          hintmask 00011000
          93 1662 -92 callgsubr
        </CharString>
        <CharString name="uni1E40">
          917 0 85 1395 12 -16 callgsubr
          111 1823 -1034 245 hintmask 11010000
          111 -76 callgsubr
          412 -77 callgsubr
          -142 34 45 1074 530 -1155 rlineto
          36 42 25 29 12 hvcurveto
          468 1125 47 -1098 -142 -43 -11 -76 5 -9 rlineto
          494 hlineto
          15 80 -7 14 -168 34 -56 1234 184 31 18 87 -16 12 rlineto
          -379 hlineto
          -476 -1168 -518 1168 rlineto
          -357 hlineto
          -15 -85 7 -14 179 -31 -56 -1234 -153 -43 rlineto
          hintmask 00101000
          900 1553 -90 callgsubr
        </CharString>
        <CharString name="uni1E41">
          915 0 -27 callgsubr
          139 -21 hstemhm
          298 160 501 245 -233 161 489 160 -31 callsubr
          hintmask 1100010110000000
          156 -33 callgsubr
          -4 -53 callgsubr
          692 vlineto
          0 155 77 153 157 48 -104 -134 vhcurveto
          -531 vlineto
          -144 -48 callsubr
          463 hlineto
          13 80 -7 14 -159 34 rlineto
          578 vlineto
          hintmask 1010010110000000
          40 -7 41 -8 38 vhcurveto
          hintmask 1001010110000000
          16 35 133 56 134 hhcurveto
          155 47 -104 -134 hvcurveto
          -531 vlineto
          -143 -48 callsubr
          477 hlineto
          13 80 -8 14 -174 34 rlineto
          578 vlineto
          211 -110 131 -206 -157 -214 -146 -5 -5 vhcurveto
          hintmask 1100010110000000
          -40 callsubr
          hintmask 0000101000000000
          793 1157 -92 callgsubr
        </CharString>
        <CharString name="uni1E56">
          67 0 11 572 118 674 25 callsubr
          211 189 96 245 175 201 hintmask 11101010
          -72 callgsubr
          hintmask 00010100
          217 930 -90 callgsubr
        </CharString>
        <CharString name="uni1E57">
          67 -29 callgsubr
          30 callgsubr
          139 -21 hstemhm
          193 159 187 245 150 167 -31 callsubr
          hintmask 1010010010100000
          352 hmoveto
          hintmask 0110001010100000
          -37 callsubr
          hintmask 1010100010100000
          -264 -103 0 callsubr
          140 -64 rlineto
          hintmask 0101100010100000
          -1185 10 callgsubr
          hintmask 1010100010100000
          -49 callgsubr
          hintmask 0000000101000000
          187 1035 -92 callgsubr
        </CharString>
        <CharString name="uni1E60">
          67 -36 -37 callgsubr
          130 237 hstemhm
          30 callsubr
          145 245 190 171 hintmask 11010100
          134 94 rmoveto
          0 126 -130 309 304 209 158 255 vhcurveto
          466 -751 -18 330 vvcurveto
          128 70 95 144 224 126 -115 0 vhcurveto
          13 -54 0 -119 0 vvcurveto
          0 32 -18 45 7 vhcurveto
          71 312 rlineto
          0 -184 117 -231 -270 -205 -175 -243 vhcurveto
          -447 745 4 -310 vvcurveto
          -184 -116 -68 -144 -215 -142 139 0 vhcurveto
          -11 54 0 115 0 vvcurveto
          0 -34 21 -45 -7 vhcurveto
          hintmask 00101000
          393 1231 -90 callgsubr
        </CharString>
        <CharString name="uni1E61">
          -9 callsubr
          100 -21 hstemhm
          122 150 29 245 81 150 hintmask 11010100
          -100 callsubr
          hintmask 00101000
          214 1202 -92 callgsubr
        </CharString>
        <CharString name="uni1E6A">
          -9 callgsubr
          -16 callgsubr
          558 245 -217 189 hintmask 10100100
          -52 callsubr
          hintmask 01100100
          -86 callsubr
          hintmask 10100100
          -214 -43 rlineto
          hintmask 00011000
          307 1553 -90 callgsubr
        </CharString>
        <CharString name="uni1E6B">
          9 callsubr
          388 -21 hstemhm
          175 245 -212 163 hintmask 11001000
          -92 callsubr
          hintmask 00110000
          -33 600 -92 callgsubr
        </CharString>
        <CharString name="uogonek">
          67 28 callgsubr
          324 13 callsubr
          193 160 290 162 22 160 hintmask 1011001110000000
          193 308 rmoveto
          hintmask 1100101110000000
          -209 120 -135 215 -56 callsubr
          vhcurveto
          9 -2 11 -118 rlineto
          -96 -70 -115 -111 -129 -22 callsubr
          119 107 144 207 80 hvcurveto
          23 8 24 83 -12 14 rlineto
          0 -104 -12 -25 -31 -7 17 28 vhcurveto
          822 vlineto
          hintmask 1010011110000000
          -19 7 -283 -103 -6 -54 6 -12 142 -62 rlineto
          -593 vlineto
          hintmask 1101001110000000
          -19 -31 -130 -71 -89 hhcurveto
          -177 -47 103 135 hvcurveto
          667 vlineto
          hintmask 1010011110000000
          -16 9 -243 -89 -9 -55 9 -11 99 -49 rlineto
          endchar
        </CharString>
        <CharString name="uring">
          67 -36 -79 callgsubr
          208 93 258 95 -16 callsubr
          7 128 211 129 -1 160 -31 callsubr
          hintmask 1010000100100000
          193 308 rmoveto
          hintmask 1000100100100000
          -209 120 -135 215 -56 callsubr
          vhcurveto
          9 -2 12 -124 14 -14 273 10 callsubr
          -104 -12 -25 vhcurveto
          hintmask 0101000100100000
          -31 -7 17 28 hvcurveto
          822 vlineto
          -19 7 -283 -103 -6 -54 6 -12 142 -62 rlineto
          -593 vlineto
          hintmask 1000100100100000
          -19 -31 -130 -71 -89 hhcurveto
          -177 -47 103 135 hvcurveto
          667 vlineto
          -16 9 -243 -89 -9 -55 9 -11 99 -49 rlineto
          hintmask 0000011011000000
          395 392 -73 callgsubr
        </CharString>
        <CharString name="utilde">
          67 -36 -79 callgsubr
          231 -3 callsubr
          193 160 -130 727 -123 160 -31 callsubr
          hintmask 1010000010100000
          193 308 rmoveto
          hintmask 1000100010100000
          -209 120 -135 215 -56 callsubr
          vhcurveto
          9 -2 12 -124 14 -14 273 10 callsubr
          -104 -12 -25 vhcurveto
          hintmask 0101000010100000
          -31 -7 17 28 hvcurveto
          822 vlineto
          -19 7 -283 -103 -6 -54 6 -12 142 -62 rlineto
          -593 vlineto
          hintmask 1000100010100000
          -19 -31 -130 -71 -89 hhcurveto
          -177 -47 103 135 hvcurveto
          667 vlineto
          -16 9 -243 -89 -9 -55 9 -11 99 -49 rlineto
          -31 callsubr
          98 395 rmoveto
          hintmask 0000010101000000
          -80 callgsubr
          hintmask 0000001001000000
          -82 callsubr
        </CharString>
</ttFont>
